<?xml version="1.0" encoding="utf-8" standalone="no"?>
<!DOCTYPE svg PUBLIC "-//W3C//DTD SVG 1.1//EN"
  "http://www.w3.org/Graphics/SVG/1.1/DTD/svg11.dtd">
<svg xmlns:xlink="http://www.w3.org/1999/xlink" width="460.8pt" height="345.6pt" viewBox="0 0 460.8 345.6" xmlns="http://www.w3.org/2000/svg" version="1.1">
 <metadata>
  <rdf:RDF xmlns:dc="http://purl.org/dc/elements/1.1/" xmlns:cc="http://creativecommons.org/ns#" xmlns:rdf="http://www.w3.org/1999/02/22-rdf-syntax-ns#">
   <cc:Work>
    <dc:type rdf:resource="http://purl.org/dc/dcmitype/StillImage"/>
    <dc:date>2026-01-13T13:02:57.529426</dc:date>
    <dc:format>image/svg+xml</dc:format>
    <dc:creator>
     <cc:Agent>
      <dc:title>Matplotlib v3.10.6, https://matplotlib.org/</dc:title>
     </cc:Agent>
    </dc:creator>
   </cc:Work>
  </rdf:RDF>
 </metadata>
 <defs>
  <style type="text/css">*{stroke-linejoin: round; stroke-linecap: butt}</style>
 </defs>
 <g id="figure_1">
  <g id="patch_1">
   <path d="M 0 345.6 
L 460.8 345.6 
L 460.8 0 
L 0 0 
z
" style="fill: #ffffff"/>
  </g>
  <g id="axes_1">
   <g id="patch_2">
    <path d="M 57.6 307.584 
L 414.72 307.584 
L 414.72 41.472 
L 57.6 41.472 
z
" style="fill: #ffffff"/>
   </g>
   <g id="matplotlib.axis_1">
    <g id="xtick_1">
     <g id="line2d_1">
      <defs>
       <path id="m45313d85a4" d="M 0 0 
L 0 3.5 
" style="stroke: #000000; stroke-width: 0.8"/>
      </defs>
      <g>
       <use xlink:href="#m45313d85a4" x="73.832727" y="307.584" style="stroke: #000000; stroke-width: 0.8"/>
      </g>
     </g>
     <g id="text_1">
      <!-- 0 -->
      <g transform="translate(70.651477 322.182437) scale(0.1 -0.1)">
       <defs>
        <path id="DejaVuSans-30" d="M 2034 4250 
Q 1547 4250 1301 3770 
Q 1056 3291 1056 2328 
Q 1056 1369 1301 889 
Q 1547 409 2034 409 
Q 2525 409 2770 889 
Q 3016 1369 3016 2328 
Q 3016 3291 2770 3770 
Q 2525 4250 2034 4250 
z
M 2034 4750 
Q 2819 4750 3233 4129 
Q 3647 3509 3647 2328 
Q 3647 1150 3233 529 
Q 2819 -91 2034 -91 
Q 1250 -91 836 529 
Q 422 1150 422 2328 
Q 422 3509 836 4129 
Q 1250 4750 2034 4750 
z
" transform="scale(0.015625)"/>
       </defs>
       <use xlink:href="#DejaVuSans-30"/>
      </g>
     </g>
    </g>
    <g id="xtick_2">
     <g id="line2d_2">
      <g>
       <use xlink:href="#m45313d85a4" x="130.392753" y="307.584" style="stroke: #000000; stroke-width: 0.8"/>
      </g>
     </g>
     <g id="text_2">
      <!-- 50 -->
      <g transform="translate(124.030253 322.182437) scale(0.1 -0.1)">
       <defs>
        <path id="DejaVuSans-35" d="M 691 4666 
L 3169 4666 
L 3169 4134 
L 1269 4134 
L 1269 2991 
Q 1406 3038 1543 3061 
Q 1681 3084 1819 3084 
Q 2600 3084 3056 2656 
Q 3513 2228 3513 1497 
Q 3513 744 3044 326 
Q 2575 -91 1722 -91 
Q 1428 -91 1123 -41 
Q 819 9 494 109 
L 494 744 
Q 775 591 1075 516 
Q 1375 441 1709 441 
Q 2250 441 2565 725 
Q 2881 1009 2881 1497 
Q 2881 1984 2565 2268 
Q 2250 2553 1709 2553 
Q 1456 2553 1204 2497 
Q 953 2441 691 2322 
L 691 4666 
z
" transform="scale(0.015625)"/>
       </defs>
       <use xlink:href="#DejaVuSans-35"/>
       <use xlink:href="#DejaVuSans-30" transform="translate(63.623047 0)"/>
      </g>
     </g>
    </g>
    <g id="xtick_3">
     <g id="line2d_3">
      <g>
       <use xlink:href="#m45313d85a4" x="186.952778" y="307.584" style="stroke: #000000; stroke-width: 0.8"/>
      </g>
     </g>
     <g id="text_3">
      <!-- 100 -->
      <g transform="translate(177.409028 322.182437) scale(0.1 -0.1)">
       <defs>
        <path id="DejaVuSans-31" d="M 794 531 
L 1825 531 
L 1825 4091 
L 703 3866 
L 703 4441 
L 1819 4666 
L 2450 4666 
L 2450 531 
L 3481 531 
L 3481 0 
L 794 0 
L 794 531 
z
" transform="scale(0.015625)"/>
       </defs>
       <use xlink:href="#DejaVuSans-31"/>
       <use xlink:href="#DejaVuSans-30" transform="translate(63.623047 0)"/>
       <use xlink:href="#DejaVuSans-30" transform="translate(127.246094 0)"/>
      </g>
     </g>
    </g>
    <g id="xtick_4">
     <g id="line2d_4">
      <g>
       <use xlink:href="#m45313d85a4" x="243.512803" y="307.584" style="stroke: #000000; stroke-width: 0.8"/>
      </g>
     </g>
     <g id="text_4">
      <!-- 150 -->
      <g transform="translate(233.969053 322.182437) scale(0.1 -0.1)">
       <use xlink:href="#DejaVuSans-31"/>
       <use xlink:href="#DejaVuSans-35" transform="translate(63.623047 0)"/>
       <use xlink:href="#DejaVuSans-30" transform="translate(127.246094 0)"/>
      </g>
     </g>
    </g>
    <g id="xtick_5">
     <g id="line2d_5">
      <g>
       <use xlink:href="#m45313d85a4" x="300.072829" y="307.584" style="stroke: #000000; stroke-width: 0.8"/>
      </g>
     </g>
     <g id="text_5">
      <!-- 200 -->
      <g transform="translate(290.529079 322.182437) scale(0.1 -0.1)">
       <defs>
        <path id="DejaVuSans-32" d="M 1228 531 
L 3431 531 
L 3431 0 
L 469 0 
L 469 531 
Q 828 903 1448 1529 
Q 2069 2156 2228 2338 
Q 2531 2678 2651 2914 
Q 2772 3150 2772 3378 
Q 2772 3750 2511 3984 
Q 2250 4219 1831 4219 
Q 1534 4219 1204 4116 
Q 875 4013 500 3803 
L 500 4441 
Q 881 4594 1212 4672 
Q 1544 4750 1819 4750 
Q 2544 4750 2975 4387 
Q 3406 4025 3406 3419 
Q 3406 3131 3298 2873 
Q 3191 2616 2906 2266 
Q 2828 2175 2409 1742 
Q 1991 1309 1228 531 
z
" transform="scale(0.015625)"/>
       </defs>
       <use xlink:href="#DejaVuSans-32"/>
       <use xlink:href="#DejaVuSans-30" transform="translate(63.623047 0)"/>
       <use xlink:href="#DejaVuSans-30" transform="translate(127.246094 0)"/>
      </g>
     </g>
    </g>
    <g id="xtick_6">
     <g id="line2d_6">
      <g>
       <use xlink:href="#m45313d85a4" x="356.632854" y="307.584" style="stroke: #000000; stroke-width: 0.8"/>
      </g>
     </g>
     <g id="text_6">
      <!-- 250 -->
      <g transform="translate(347.089104 322.182437) scale(0.1 -0.1)">
       <use xlink:href="#DejaVuSans-32"/>
       <use xlink:href="#DejaVuSans-35" transform="translate(63.623047 0)"/>
       <use xlink:href="#DejaVuSans-30" transform="translate(127.246094 0)"/>
      </g>
     </g>
    </g>
    <g id="xtick_7">
     <g id="line2d_7">
      <g>
       <use xlink:href="#m45313d85a4" x="413.192879" y="307.584" style="stroke: #000000; stroke-width: 0.8"/>
      </g>
     </g>
     <g id="text_7">
      <!-- 300 -->
      <g transform="translate(403.649129 322.182437) scale(0.1 -0.1)">
       <defs>
        <path id="DejaVuSans-33" d="M 2597 2516 
Q 3050 2419 3304 2112 
Q 3559 1806 3559 1356 
Q 3559 666 3084 287 
Q 2609 -91 1734 -91 
Q 1441 -91 1130 -33 
Q 819 25 488 141 
L 488 750 
Q 750 597 1062 519 
Q 1375 441 1716 441 
Q 2309 441 2620 675 
Q 2931 909 2931 1356 
Q 2931 1769 2642 2001 
Q 2353 2234 1838 2234 
L 1294 2234 
L 1294 2753 
L 1863 2753 
Q 2328 2753 2575 2939 
Q 2822 3125 2822 3475 
Q 2822 3834 2567 4026 
Q 2313 4219 1838 4219 
Q 1578 4219 1281 4162 
Q 984 4106 628 3988 
L 628 4550 
Q 988 4650 1302 4700 
Q 1616 4750 1894 4750 
Q 2613 4750 3031 4423 
Q 3450 4097 3450 3541 
Q 3450 3153 3228 2886 
Q 3006 2619 2597 2516 
z
" transform="scale(0.015625)"/>
       </defs>
       <use xlink:href="#DejaVuSans-33"/>
       <use xlink:href="#DejaVuSans-30" transform="translate(63.623047 0)"/>
       <use xlink:href="#DejaVuSans-30" transform="translate(127.246094 0)"/>
      </g>
     </g>
    </g>
    <g id="text_8">
     <!-- epochs -->
     <g transform="translate(218.327188 335.860562) scale(0.1 -0.1)">
      <defs>
       <path id="DejaVuSans-65" d="M 3597 1894 
L 3597 1613 
L 953 1613 
Q 991 1019 1311 708 
Q 1631 397 2203 397 
Q 2534 397 2845 478 
Q 3156 559 3463 722 
L 3463 178 
Q 3153 47 2828 -22 
Q 2503 -91 2169 -91 
Q 1331 -91 842 396 
Q 353 884 353 1716 
Q 353 2575 817 3079 
Q 1281 3584 2069 3584 
Q 2775 3584 3186 3129 
Q 3597 2675 3597 1894 
z
M 3022 2063 
Q 3016 2534 2758 2815 
Q 2500 3097 2075 3097 
Q 1594 3097 1305 2825 
Q 1016 2553 972 2059 
L 3022 2063 
z
" transform="scale(0.015625)"/>
       <path id="DejaVuSans-70" d="M 1159 525 
L 1159 -1331 
L 581 -1331 
L 581 3500 
L 1159 3500 
L 1159 2969 
Q 1341 3281 1617 3432 
Q 1894 3584 2278 3584 
Q 2916 3584 3314 3078 
Q 3713 2572 3713 1747 
Q 3713 922 3314 415 
Q 2916 -91 2278 -91 
Q 1894 -91 1617 61 
Q 1341 213 1159 525 
z
M 3116 1747 
Q 3116 2381 2855 2742 
Q 2594 3103 2138 3103 
Q 1681 3103 1420 2742 
Q 1159 2381 1159 1747 
Q 1159 1113 1420 752 
Q 1681 391 2138 391 
Q 2594 391 2855 752 
Q 3116 1113 3116 1747 
z
" transform="scale(0.015625)"/>
       <path id="DejaVuSans-6f" d="M 1959 3097 
Q 1497 3097 1228 2736 
Q 959 2375 959 1747 
Q 959 1119 1226 758 
Q 1494 397 1959 397 
Q 2419 397 2687 759 
Q 2956 1122 2956 1747 
Q 2956 2369 2687 2733 
Q 2419 3097 1959 3097 
z
M 1959 3584 
Q 2709 3584 3137 3096 
Q 3566 2609 3566 1747 
Q 3566 888 3137 398 
Q 2709 -91 1959 -91 
Q 1206 -91 779 398 
Q 353 888 353 1747 
Q 353 2609 779 3096 
Q 1206 3584 1959 3584 
z
" transform="scale(0.015625)"/>
       <path id="DejaVuSans-63" d="M 3122 3366 
L 3122 2828 
Q 2878 2963 2633 3030 
Q 2388 3097 2138 3097 
Q 1578 3097 1268 2742 
Q 959 2388 959 1747 
Q 959 1106 1268 751 
Q 1578 397 2138 397 
Q 2388 397 2633 464 
Q 2878 531 3122 666 
L 3122 134 
Q 2881 22 2623 -34 
Q 2366 -91 2075 -91 
Q 1284 -91 818 406 
Q 353 903 353 1747 
Q 353 2603 823 3093 
Q 1294 3584 2113 3584 
Q 2378 3584 2631 3529 
Q 2884 3475 3122 3366 
z
" transform="scale(0.015625)"/>
       <path id="DejaVuSans-68" d="M 3513 2113 
L 3513 0 
L 2938 0 
L 2938 2094 
Q 2938 2591 2744 2837 
Q 2550 3084 2163 3084 
Q 1697 3084 1428 2787 
Q 1159 2491 1159 1978 
L 1159 0 
L 581 0 
L 581 4863 
L 1159 4863 
L 1159 2956 
Q 1366 3272 1645 3428 
Q 1925 3584 2291 3584 
Q 2894 3584 3203 3211 
Q 3513 2838 3513 2113 
z
" transform="scale(0.015625)"/>
       <path id="DejaVuSans-73" d="M 2834 3397 
L 2834 2853 
Q 2591 2978 2328 3040 
Q 2066 3103 1784 3103 
Q 1356 3103 1142 2972 
Q 928 2841 928 2578 
Q 928 2378 1081 2264 
Q 1234 2150 1697 2047 
L 1894 2003 
Q 2506 1872 2764 1633 
Q 3022 1394 3022 966 
Q 3022 478 2636 193 
Q 2250 -91 1575 -91 
Q 1294 -91 989 -36 
Q 684 19 347 128 
L 347 722 
Q 666 556 975 473 
Q 1284 391 1588 391 
Q 1994 391 2212 530 
Q 2431 669 2431 922 
Q 2431 1156 2273 1281 
Q 2116 1406 1581 1522 
L 1381 1569 
Q 847 1681 609 1914 
Q 372 2147 372 2553 
Q 372 3047 722 3315 
Q 1072 3584 1716 3584 
Q 2034 3584 2315 3537 
Q 2597 3491 2834 3397 
z
" transform="scale(0.015625)"/>
      </defs>
      <use xlink:href="#DejaVuSans-65"/>
      <use xlink:href="#DejaVuSans-70" transform="translate(61.523438 0)"/>
      <use xlink:href="#DejaVuSans-6f" transform="translate(125 0)"/>
      <use xlink:href="#DejaVuSans-63" transform="translate(186.181641 0)"/>
      <use xlink:href="#DejaVuSans-68" transform="translate(241.162109 0)"/>
      <use xlink:href="#DejaVuSans-73" transform="translate(304.541016 0)"/>
     </g>
    </g>
   </g>
   <g id="matplotlib.axis_2">
    <g id="ytick_1">
     <g id="line2d_8">
      <defs>
       <path id="m31d7ca3370" d="M 0 0 
L -3.5 0 
" style="stroke: #000000; stroke-width: 0.8"/>
      </defs>
      <g>
       <use xlink:href="#m31d7ca3370" x="57.6" y="305.220891" style="stroke: #000000; stroke-width: 0.8"/>
      </g>
     </g>
     <g id="text_9">
      <!-- 80000 -->
      <g transform="translate(18.7875 309.02011) scale(0.1 -0.1)">
       <defs>
        <path id="DejaVuSans-38" d="M 2034 2216 
Q 1584 2216 1326 1975 
Q 1069 1734 1069 1313 
Q 1069 891 1326 650 
Q 1584 409 2034 409 
Q 2484 409 2743 651 
Q 3003 894 3003 1313 
Q 3003 1734 2745 1975 
Q 2488 2216 2034 2216 
z
M 1403 2484 
Q 997 2584 770 2862 
Q 544 3141 544 3541 
Q 544 4100 942 4425 
Q 1341 4750 2034 4750 
Q 2731 4750 3128 4425 
Q 3525 4100 3525 3541 
Q 3525 3141 3298 2862 
Q 3072 2584 2669 2484 
Q 3125 2378 3379 2068 
Q 3634 1759 3634 1313 
Q 3634 634 3220 271 
Q 2806 -91 2034 -91 
Q 1263 -91 848 271 
Q 434 634 434 1313 
Q 434 1759 690 2068 
Q 947 2378 1403 2484 
z
M 1172 3481 
Q 1172 3119 1398 2916 
Q 1625 2713 2034 2713 
Q 2441 2713 2670 2916 
Q 2900 3119 2900 3481 
Q 2900 3844 2670 4047 
Q 2441 4250 2034 4250 
Q 1625 4250 1398 4047 
Q 1172 3844 1172 3481 
z
" transform="scale(0.015625)"/>
       </defs>
       <use xlink:href="#DejaVuSans-38"/>
       <use xlink:href="#DejaVuSans-30" transform="translate(63.623047 0)"/>
       <use xlink:href="#DejaVuSans-30" transform="translate(127.246094 0)"/>
       <use xlink:href="#DejaVuSans-30" transform="translate(190.869141 0)"/>
       <use xlink:href="#DejaVuSans-30" transform="translate(254.492188 0)"/>
      </g>
     </g>
    </g>
    <g id="ytick_2">
     <g id="line2d_9">
      <g>
       <use xlink:href="#m31d7ca3370" x="57.6" y="266.457222" style="stroke: #000000; stroke-width: 0.8"/>
      </g>
     </g>
     <g id="text_10">
      <!-- 85000 -->
      <g transform="translate(18.7875 270.256441) scale(0.1 -0.1)">
       <use xlink:href="#DejaVuSans-38"/>
       <use xlink:href="#DejaVuSans-35" transform="translate(63.623047 0)"/>
       <use xlink:href="#DejaVuSans-30" transform="translate(127.246094 0)"/>
       <use xlink:href="#DejaVuSans-30" transform="translate(190.869141 0)"/>
       <use xlink:href="#DejaVuSans-30" transform="translate(254.492188 0)"/>
      </g>
     </g>
    </g>
    <g id="ytick_3">
     <g id="line2d_10">
      <g>
       <use xlink:href="#m31d7ca3370" x="57.6" y="227.693553" style="stroke: #000000; stroke-width: 0.8"/>
      </g>
     </g>
     <g id="text_11">
      <!-- 90000 -->
      <g transform="translate(18.7875 231.492772) scale(0.1 -0.1)">
       <defs>
        <path id="DejaVuSans-39" d="M 703 97 
L 703 672 
Q 941 559 1184 500 
Q 1428 441 1663 441 
Q 2288 441 2617 861 
Q 2947 1281 2994 2138 
Q 2813 1869 2534 1725 
Q 2256 1581 1919 1581 
Q 1219 1581 811 2004 
Q 403 2428 403 3163 
Q 403 3881 828 4315 
Q 1253 4750 1959 4750 
Q 2769 4750 3195 4129 
Q 3622 3509 3622 2328 
Q 3622 1225 3098 567 
Q 2575 -91 1691 -91 
Q 1453 -91 1209 -44 
Q 966 3 703 97 
z
M 1959 2075 
Q 2384 2075 2632 2365 
Q 2881 2656 2881 3163 
Q 2881 3666 2632 3958 
Q 2384 4250 1959 4250 
Q 1534 4250 1286 3958 
Q 1038 3666 1038 3163 
Q 1038 2656 1286 2365 
Q 1534 2075 1959 2075 
z
" transform="scale(0.015625)"/>
       </defs>
       <use xlink:href="#DejaVuSans-39"/>
       <use xlink:href="#DejaVuSans-30" transform="translate(63.623047 0)"/>
       <use xlink:href="#DejaVuSans-30" transform="translate(127.246094 0)"/>
       <use xlink:href="#DejaVuSans-30" transform="translate(190.869141 0)"/>
       <use xlink:href="#DejaVuSans-30" transform="translate(254.492188 0)"/>
      </g>
     </g>
    </g>
    <g id="ytick_4">
     <g id="line2d_11">
      <g>
       <use xlink:href="#m31d7ca3370" x="57.6" y="188.929884" style="stroke: #000000; stroke-width: 0.8"/>
      </g>
     </g>
     <g id="text_12">
      <!-- 95000 -->
      <g transform="translate(18.7875 192.729103) scale(0.1 -0.1)">
       <use xlink:href="#DejaVuSans-39"/>
       <use xlink:href="#DejaVuSans-35" transform="translate(63.623047 0)"/>
       <use xlink:href="#DejaVuSans-30" transform="translate(127.246094 0)"/>
       <use xlink:href="#DejaVuSans-30" transform="translate(190.869141 0)"/>
       <use xlink:href="#DejaVuSans-30" transform="translate(254.492188 0)"/>
      </g>
     </g>
    </g>
    <g id="ytick_5">
     <g id="line2d_12">
      <g>
       <use xlink:href="#m31d7ca3370" x="57.6" y="150.166215" style="stroke: #000000; stroke-width: 0.8"/>
      </g>
     </g>
     <g id="text_13">
      <!-- 100000 -->
      <g transform="translate(12.425 153.965434) scale(0.1 -0.1)">
       <use xlink:href="#DejaVuSans-31"/>
       <use xlink:href="#DejaVuSans-30" transform="translate(63.623047 0)"/>
       <use xlink:href="#DejaVuSans-30" transform="translate(127.246094 0)"/>
       <use xlink:href="#DejaVuSans-30" transform="translate(190.869141 0)"/>
       <use xlink:href="#DejaVuSans-30" transform="translate(254.492188 0)"/>
       <use xlink:href="#DejaVuSans-30" transform="translate(318.115234 0)"/>
      </g>
     </g>
    </g>
    <g id="ytick_6">
     <g id="line2d_13">
      <g>
       <use xlink:href="#m31d7ca3370" x="57.6" y="111.402546" style="stroke: #000000; stroke-width: 0.8"/>
      </g>
     </g>
     <g id="text_14">
      <!-- 105000 -->
      <g transform="translate(12.425 115.201765) scale(0.1 -0.1)">
       <use xlink:href="#DejaVuSans-31"/>
       <use xlink:href="#DejaVuSans-30" transform="translate(63.623047 0)"/>
       <use xlink:href="#DejaVuSans-35" transform="translate(127.246094 0)"/>
       <use xlink:href="#DejaVuSans-30" transform="translate(190.869141 0)"/>
       <use xlink:href="#DejaVuSans-30" transform="translate(254.492188 0)"/>
       <use xlink:href="#DejaVuSans-30" transform="translate(318.115234 0)"/>
      </g>
     </g>
    </g>
    <g id="ytick_7">
     <g id="line2d_14">
      <g>
       <use xlink:href="#m31d7ca3370" x="57.6" y="72.638877" style="stroke: #000000; stroke-width: 0.8"/>
      </g>
     </g>
     <g id="text_15">
      <!-- 110000 -->
      <g transform="translate(12.425 76.438096) scale(0.1 -0.1)">
       <use xlink:href="#DejaVuSans-31"/>
       <use xlink:href="#DejaVuSans-31" transform="translate(63.623047 0)"/>
       <use xlink:href="#DejaVuSans-30" transform="translate(127.246094 0)"/>
       <use xlink:href="#DejaVuSans-30" transform="translate(190.869141 0)"/>
       <use xlink:href="#DejaVuSans-30" transform="translate(254.492188 0)"/>
       <use xlink:href="#DejaVuSans-30" transform="translate(318.115234 0)"/>
      </g>
     </g>
    </g>
    <g id="text_16">
     <!-- loss -->
     <g transform="translate(6.345312 184.185812) rotate(-90) scale(0.1 -0.1)">
      <defs>
       <path id="DejaVuSans-6c" d="M 603 4863 
L 1178 4863 
L 1178 0 
L 603 0 
L 603 4863 
z
" transform="scale(0.015625)"/>
      </defs>
      <use xlink:href="#DejaVuSans-6c"/>
      <use xlink:href="#DejaVuSans-6f" transform="translate(27.783203 0)"/>
      <use xlink:href="#DejaVuSans-73" transform="translate(88.964844 0)"/>
      <use xlink:href="#DejaVuSans-73" transform="translate(141.064453 0)"/>
     </g>
    </g>
   </g>
   <g id="line2d_15">
    <path d="M 73.832727 53.568 
L 74.963928 164.534756 
L 76.095128 205.203781 
L 77.226329 216.877339 
L 78.357529 220.383876 
L 79.48873 224.63837 
L 80.61993 226.039677 
L 81.751131 228.011112 
L 82.882331 229.431377 
L 84.013532 232.729862 
L 85.144732 233.946436 
L 86.275933 236.002667 
L 87.407133 236.870488 
L 88.538334 226.916887 
L 89.669534 237.660237 
L 90.800735 241.310443 
L 91.931935 241.898681 
L 93.063136 242.185896 
L 94.194336 244.215295 
L 95.325537 246.47879 
L 96.456737 245.298013 
L 97.587938 247.60857 
L 99.850339 250.857147 
L 102.11274 251.069257 
L 103.24394 253.822386 
L 104.375141 253.69919 
L 105.506341 254.239277 
L 106.637542 255.480078 
L 107.768742 256.159108 
L 108.899943 257.194825 
L 110.031143 257.530979 
L 111.162344 258.08427 
L 112.293545 259.240699 
L 113.424745 259.86437 
L 114.555946 260.796454 
L 115.687146 260.482953 
L 116.818347 260.566477 
L 117.949547 261.717394 
L 119.080748 262.260146 
L 121.343149 263.061404 
L 123.60555 264.453504 
L 124.73675 264.355504 
L 125.867951 264.825211 
L 126.999151 265.992603 
L 128.130352 243.440264 
L 129.261552 265.838578 
L 130.392753 266.984771 
L 132.655154 266.803551 
L 133.786354 267.088404 
L 134.917555 267.777186 
L 136.048755 267.564046 
L 137.179956 268.364334 
L 138.311156 267.853078 
L 139.442357 269.608042 
L 140.573557 269.294904 
L 141.704758 269.829237 
L 142.835958 269.513858 
L 143.967159 269.578666 
L 145.098359 270.282167 
L 146.22956 270.306152 
L 147.36076 270.47229 
L 148.491961 270.848964 
L 149.623161 271.399287 
L 151.885562 270.996508 
L 153.016763 271.700553 
L 155.279164 272.764132 
L 156.410364 271.406071 
L 157.541565 272.565044 
L 158.672765 273.298101 
L 159.803966 274.188151 
L 160.935166 272.456021 
L 162.066367 273.955145 
L 163.197567 273.969621 
L 164.328768 273.610997 
L 165.459968 273.794397 
L 166.591169 275.10685 
L 167.722369 273.730558 
L 168.85357 274.6538 
L 169.98477 274.300445 
L 171.115971 276.013314 
L 172.247171 275.431799 
L 173.378372 274.205777 
L 174.509572 275.962922 
L 175.640773 275.78903 
L 176.771973 276.032333 
L 177.903174 275.640275 
L 179.034374 275.778189 
L 180.165575 276.514517 
L 181.296775 276.225182 
L 182.427976 262.444092 
L 183.559176 277.762404 
L 184.690377 276.993672 
L 185.821577 276.501797 
L 186.952778 276.907483 
L 188.083978 278.079903 
L 189.215179 277.098758 
L 190.346379 276.921959 
L 191.47758 277.162233 
L 192.60878 278.282261 
L 193.739981 277.796988 
L 194.871182 278.46554 
L 196.002382 277.486818 
L 197.133583 278.595883 
L 198.264783 277.486273 
L 199.395984 277.62025 
L 200.527184 278.541917 
L 201.658385 278.18196 
L 202.789585 277.639874 
L 203.920786 278.966743 
L 205.051986 279.124826 
L 206.183187 278.858871 
L 207.314387 279.007626 
L 208.445588 278.731496 
L 209.576788 279.487327 
L 210.707989 278.890124 
L 211.839189 279.646984 
L 212.97039 278.321267 
L 214.10159 280.894993 
L 215.232791 279.636022 
L 216.363991 280.224079 
L 217.495192 279.486963 
L 218.626392 279.683992 
L 219.757593 280.295791 
L 220.888793 279.253412 
L 222.019994 280.355996 
L 223.151194 280.398152 
L 224.282395 280.812014 
L 226.544796 280.443275 
L 227.675996 279.93111 
L 228.807197 280.569741 
L 229.938397 281.467787 
L 231.069598 281.260643 
L 232.200798 281.599825 
L 233.331999 281.344167 
L 234.463199 280.597724 
L 235.5944 281.585955 
L 236.7256 263.557033 
L 237.856801 284.4346 
L 238.988001 283.42941 
L 240.119202 282.220347 
L 241.250402 282.10339 
L 242.381603 282.161172 
L 243.512803 281.597221 
L 244.644004 282.479761 
L 245.775204 282.32513 
L 246.906405 282.566676 
L 248.037605 281.689103 
L 249.168806 282.068623 
L 250.300006 282.0086 
L 251.431207 282.792535 
L 253.693608 282.082191 
L 254.824808 282.635663 
L 255.956009 281.27306 
L 257.087209 282.54893 
L 258.21841 282.128828 
L 259.34961 283.27914 
L 260.480811 282.403384 
L 261.612011 283.481378 
L 262.743212 282.582908 
L 263.874412 283.272175 
L 265.005613 282.626639 
L 266.136813 282.252811 
L 267.268014 283.241709 
L 268.399214 283.42941 
L 270.661615 283.086957 
L 271.792816 283.709962 
L 272.924016 283.327595 
L 274.055217 283.302943 
L 275.186417 282.963943 
L 276.317618 283.842728 
L 277.448818 284.091602 
L 278.580019 284.455739 
L 279.71122 282.518948 
L 280.84242 283.177991 
L 281.973621 283.565688 
L 283.104821 283.508633 
L 284.236022 284.210377 
L 285.367222 285.195761 
L 286.498423 282.550747 
L 287.629623 284.340477 
L 288.760824 284.20329 
L 289.892024 283.787065 
L 291.023225 264.014505 
L 292.154425 286.131177 
L 293.285626 285.449845 
L 295.548027 285.170202 
L 296.679227 284.609703 
L 297.810428 283.649636 
L 298.941628 285.491455 
L 300.072829 284.524423 
L 301.204029 284.366522 
L 302.33523 284.897644 
L 303.46643 284.451378 
L 304.597631 285.073656 
L 305.728831 284.978685 
L 306.860032 284.157561 
L 307.991232 284.895525 
L 309.122433 284.549014 
L 310.253633 285.058029 
L 311.384834 284.467973 
L 313.647235 285.570679 
L 314.778435 284.239571 
L 315.909636 285.305208 
L 317.040836 284.876143 
L 318.172037 285.5026 
L 319.303237 285.335068 
L 320.434438 284.124794 
L 321.565638 284.451559 
L 322.696839 286.783194 
L 323.828039 285.369653 
L 324.95924 284.46016 
L 326.09044 285.640272 
L 327.221641 285.490062 
L 328.352841 286.550006 
L 329.484042 283.735219 
L 330.615242 286.513787 
L 331.746443 285.957165 
L 332.877643 284.836652 
L 334.008844 285.412232 
L 335.140044 285.794599 
L 336.271245 285.596299 
L 337.402445 286.249285 
L 338.533646 286.188354 
L 339.664846 285.178863 
L 340.796047 286.242441 
L 341.927247 285.864677 
L 343.058448 286.202648 
L 344.189648 286.00253 
L 345.320849 274.240664 
L 346.452049 288.089227 
L 347.58325 287.27731 
L 348.71445 286.16776 
L 349.845651 285.614046 
L 350.976851 285.959951 
L 352.108052 286.065339 
L 353.239252 287.680573 
L 354.370453 287.054782 
L 355.501653 284.797404 
L 356.632854 287.138548 
L 357.764054 286.715782 
L 358.895255 285.405327 
L 360.026455 286.520025 
L 361.157656 285.810347 
L 362.288857 286.733528 
L 363.420057 286.430081 
L 364.551258 287.211957 
L 365.682458 286.180298 
L 366.813659 285.381524 
L 367.944859 287.634299 
L 369.07606 286.595978 
L 370.20726 285.780184 
L 371.338461 287.022136 
L 372.469661 287.200267 
L 373.600862 285.336522 
L 374.732062 287.791231 
L 375.863263 287.393661 
L 376.994463 285.521679 
L 378.125664 286.900273 
L 379.256864 287.597534 
L 380.388065 286.678653 
L 381.519265 286.229358 
L 382.650466 288.114787 
L 383.781666 286.031421 
L 384.912867 287.863065 
L 386.044067 287.295723 
L 387.175268 286.210885 
L 388.306468 287.061747 
L 389.437669 287.592749 
L 390.568869 287.033826 
L 391.70007 287.743503 
L 392.83127 287.809523 
L 393.962471 286.389561 
L 395.093671 285.632943 
L 396.224872 287.355443 
L 397.356072 287.823938 
L 398.487273 287.069864 
L 398.487273 287.069864 
" clip-path="url(#pbb2b18e8fd)" style="fill: none; stroke: #1f77b4; stroke-width: 1.5; stroke-linecap: square"/>
   </g>
   <g id="line2d_16">
    <path d="M 73.832727 169.906311 
L 74.963928 214.633528 
L 76.095128 226.447725 
L 77.226329 232.486681 
L 78.357529 237.154129 
L 79.48873 238.902371 
L 80.61993 242.363724 
L 81.751131 243.239056 
L 82.882331 247.070784 
L 84.013532 248.815695 
L 85.144732 249.855954 
L 86.275933 252.070571 
L 87.407133 252.437735 
L 88.538334 254.478703 
L 89.669534 255.290802 
L 90.800735 256.673696 
L 91.931935 256.619972 
L 93.063136 258.634593 
L 94.194336 259.806709 
L 95.325537 259.661587 
L 96.456737 261.038909 
L 97.587938 261.816181 
L 99.850339 262.29255 
L 100.981539 264.742657 
L 102.11274 264.326734 
L 103.24394 264.764461 
L 104.375141 266.253047 
L 105.506341 266.1777 
L 106.637542 266.988708 
L 107.768742 267.068477 
L 108.899943 268.019216 
L 110.031143 268.447979 
L 111.162344 269.081462 
L 112.293545 268.556214 
L 113.424745 269.06741 
L 114.555946 269.30514 
L 115.687146 268.90327 
L 116.818347 271.817692 
L 117.949547 271.46997 
L 119.080748 271.769238 
L 120.211948 272.315684 
L 121.343149 270.983486 
L 122.474349 272.168564 
L 123.60555 272.224408 
L 124.73675 272.613014 
L 125.867951 273.153949 
L 126.999151 274.104991 
L 128.130352 252.338222 
L 129.261552 273.09653 
L 130.392753 275.096372 
L 131.523953 275.662382 
L 132.655154 274.700013 
L 133.786354 276.0992 
L 134.917555 274.817697 
L 136.048755 276.283873 
L 137.179956 274.902554 
L 138.311156 275.568865 
L 139.442357 275.672376 
L 140.573557 277.301964 
L 141.704758 276.311855 
L 142.835958 275.733671 
L 143.967159 277.019413 
L 146.22956 277.597113 
L 147.36076 276.3955 
L 148.491961 277.083131 
L 149.623161 278.307215 
L 150.754362 277.518253 
L 151.885562 278.112064 
L 153.016763 277.553746 
L 154.147963 278.091471 
L 155.279164 278.118908 
L 156.410364 278.61581 
L 157.541565 278.093409 
L 158.672765 278.823559 
L 159.803966 279.26813 
L 160.935166 278.672381 
L 162.066367 279.160076 
L 163.197567 278.843426 
L 164.328768 279.041605 
L 165.459968 278.88443 
L 166.591169 280.071507 
L 167.722369 280.25733 
L 168.85357 279.166012 
L 171.115971 281.015463 
L 172.247171 279.102234 
L 173.378372 280.304513 
L 174.509572 280.999594 
L 175.640773 279.797254 
L 176.771973 280.302938 
L 177.903174 281.562818 
L 179.034374 280.747873 
L 180.165575 279.734384 
L 181.296775 281.651853 
L 182.427976 250.694642 
L 183.559176 272.808952 
L 184.690377 278.449369 
L 185.821577 282.324403 
L 186.952778 281.724172 
L 188.083978 282.348933 
L 189.215179 281.744038 
L 190.346379 281.406189 
L 191.47758 281.570874 
L 192.60878 281.944156 
L 193.739981 281.48202 
L 194.871182 283.520929 
L 196.002382 281.353918 
L 197.133583 282.312895 
L 198.264783 282.208294 
L 200.527184 281.706244 
L 201.658385 282.467405 
L 202.789585 282.410531 
L 203.920786 282.045668 
L 206.183187 282.968243 
L 207.314387 281.414184 
L 208.445588 282.776545 
L 209.576788 283.35697 
L 210.707989 283.442796 
L 211.839189 283.045468 
L 214.10159 281.629625 
L 215.232791 282.941775 
L 217.495192 283.408211 
L 218.626392 283.942544 
L 220.888793 283.188591 
L 222.019994 281.928105 
L 223.151194 284.79274 
L 224.282395 284.316553 
L 225.413595 282.470251 
L 227.675996 283.536797 
L 228.807197 284.277062 
L 229.938397 284.204259 
L 231.069598 284.460463 
L 232.200798 283.13305 
L 233.331999 284.192812 
L 234.463199 284.805581 
L 235.5944 284.863181 
L 236.7256 265.579952 
L 237.856801 288.288739 
L 238.988001 287.351203 
L 240.119202 285.894598 
L 241.250402 284.838833 
L 242.381603 285.309932 
L 243.512803 285.36614 
L 244.644004 285.752323 
L 245.775204 285.199214 
L 246.906405 285.099034 
L 248.037605 282.80586 
L 249.168806 285.33634 
L 250.300006 284.40686 
L 251.431207 285.691209 
L 252.562407 284.866876 
L 253.693608 283.862715 
L 254.824808 285.149608 
L 255.956009 283.950842 
L 257.087209 285.565167 
L 258.21841 284.9931 
L 259.34961 285.258813 
L 260.480811 283.696092 
L 261.612011 285.296971 
L 262.743212 284.772692 
L 265.005613 285.174623 
L 266.136813 285.825005 
L 267.268014 285.369229 
L 271.792816 284.684687 
L 272.924016 285.64227 
L 274.055217 285.881454 
L 276.317618 285.496483 
L 277.448818 286.154193 
L 279.71122 285.08153 
L 280.84242 285.131741 
L 281.973621 286.735769 
L 283.104821 285.483824 
L 284.236022 286.292652 
L 285.367222 285.279648 
L 286.498423 286.173151 
L 287.629623 286.25722 
L 288.760824 285.679883 
L 289.892024 285.779215 
L 291.023225 232.033267 
L 292.154425 280.168416 
L 293.285626 289.899854 
L 294.416826 289.904941 
L 295.548027 289.132636 
L 296.679227 288.214603 
L 297.810428 288.191527 
L 298.941628 285.283101 
L 300.072829 286.775441 
L 301.204029 287.243331 
L 302.33523 285.410536 
L 303.46643 287.990137 
L 304.597631 286.441589 
L 305.728831 287.428185 
L 306.860032 286.825895 
L 307.991232 285.574737 
L 309.122433 286.826924 
L 310.253633 286.36915 
L 311.384834 287.621822 
L 312.516034 286.687981 
L 313.647235 287.373371 
L 314.778435 285.48128 
L 315.909636 287.187063 
L 317.040836 287.601653 
L 318.172037 282.632998 
L 319.303237 286.834556 
L 320.434438 286.580593 
L 321.565638 287.963063 
L 322.696839 286.528262 
L 323.828039 286.177633 
L 324.95924 286.958236 
L 326.09044 286.694704 
L 327.221641 286.892702 
L 328.352841 287.894924 
L 329.484042 287.644898 
L 330.615242 286.248922 
L 331.746443 287.311894 
L 332.877643 287.611404 
L 334.008844 285.189402 
L 335.140044 286.540316 
L 336.271245 289.080184 
L 337.402445 286.550249 
L 338.533646 286.811661 
L 339.664846 287.343571 
L 340.796047 286.106586 
L 341.927247 288.356454 
L 343.058448 287.436968 
L 344.189648 287.519159 
L 345.320849 233.40865 
L 346.452049 272.33125 
L 347.58325 288.602543 
L 348.71445 290.822005 
L 349.845651 290.435701 
L 350.976851 288.392916 
L 353.239252 287.91903 
L 354.370453 286.702457 
L 355.501653 288.193525 
L 356.632854 288.782128 
L 357.764054 286.977315 
L 358.895255 288.822648 
L 360.026455 287.283972 
L 362.288857 287.481667 
L 363.420057 287.302203 
L 365.682458 288.511751 
L 366.813659 287.80601 
L 367.944859 288.181896 
L 369.07606 287.143151 
L 370.20726 287.94992 
L 371.338461 288.913318 
L 372.469661 287.181854 
L 373.600862 287.970089 
L 374.732062 287.493236 
L 375.863263 288.012184 
L 376.994463 288.377532 
L 378.125664 287.479426 
L 379.256864 287.959672 
L 380.388065 288.914348 
L 381.519265 288.366205 
L 382.650466 286.983917 
L 383.781666 287.176343 
L 384.912867 288.748573 
L 386.044067 288.166573 
L 387.175268 286.744915 
L 388.306468 287.273918 
L 389.437669 289.279635 
L 391.70007 287.541024 
L 392.83127 288.163181 
L 393.962471 289.396289 
L 395.093671 288.163241 
L 396.224872 288.353123 
L 397.356072 288.381166 
L 398.487273 288.09165 
L 398.487273 288.09165 
" clip-path="url(#pbb2b18e8fd)" style="fill: none; stroke: #ff7f0e; stroke-width: 1.5; stroke-linecap: square"/>
   </g>
   <g id="line2d_17">
    <path d="M 73.832727 66.603071 
L 74.963928 157.390976 
L 76.095128 211.232379 
L 77.226329 220.992829 
L 79.48873 231.112872 
L 80.61993 233.736082 
L 81.751131 237.725772 
L 82.882331 240.387625 
L 84.013532 242.565174 
L 85.144732 245.009345 
L 86.275933 246.339302 
L 87.407133 248.11916 
L 88.538334 250.657393 
L 89.669534 251.190938 
L 90.800735 254.289004 
L 91.931935 254.411291 
L 93.063136 256.203323 
L 94.194336 258.352526 
L 95.325537 259.964368 
L 96.456737 260.489131 
L 97.587938 262.158452 
L 98.719138 262.049006 
L 99.850339 264.511225 
L 100.981539 264.823515 
L 102.11274 265.788488 
L 104.375141 268.691887 
L 105.506341 267.671918 
L 106.637542 269.522217 
L 107.768742 269.283336 
L 108.899943 270.687186 
L 110.031143 271.57439 
L 111.162344 271.971899 
L 112.293545 273.015914 
L 113.424745 272.68933 
L 114.555946 273.913232 
L 115.687146 272.804107 
L 116.818347 274.683418 
L 117.949547 274.767971 
L 119.080748 275.549967 
L 120.211948 275.733913 
L 121.343149 276.038329 
L 122.474349 275.324956 
L 123.60555 276.854849 
L 124.73675 276.776232 
L 125.867951 277.92297 
L 126.999151 277.89632 
L 128.130352 230.940979 
L 129.261552 265.852388 
L 130.392753 274.167255 
L 131.523953 278.312 
L 132.655154 277.731938 
L 133.786354 279.580238 
L 134.917555 279.574363 
L 137.179956 279.107503 
L 138.311156 279.722816 
L 139.442357 280.056547 
L 140.573557 279.450077 
L 141.704758 281.15477 
L 142.835958 281.194624 
L 143.967159 278.885036 
L 145.098359 281.950939 
L 146.22956 281.101773 
L 147.36076 282.303204 
L 148.491961 281.064099 
L 149.623161 282.291817 
L 150.754362 282.437726 
L 151.885562 281.895095 
L 153.016763 281.61848 
L 154.147963 282.810645 
L 155.279164 281.515514 
L 156.410364 283.074662 
L 157.541565 284.288631 
L 158.672765 283.343282 
L 159.803966 283.940485 
L 160.935166 282.639903 
L 162.066367 284.601829 
L 163.197567 283.891303 
L 164.328768 282.989139 
L 165.459968 284.753432 
L 166.591169 284.280212 
L 167.722369 285.283767 
L 168.85357 283.691004 
L 169.98477 284.907578 
L 171.115971 284.472213 
L 172.247171 284.211164 
L 173.378372 285.761771 
L 174.509572 285.545058 
L 175.640773 285.925548 
L 176.771973 283.863684 
L 177.903174 286.211612 
L 179.034374 285.161601 
L 180.165575 286.729167 
L 181.296775 286.412335 
L 182.427976 266.713426 
L 183.559176 289.564851 
L 184.690377 287.556529 
L 185.821577 287.972815 
L 186.952778 286.852545 
L 188.083978 287.982748 
L 189.215179 287.253991 
L 190.346379 287.798923 
L 191.47758 287.652833 
L 192.60878 284.838288 
L 193.739981 287.52467 
L 194.871182 286.53438 
L 196.002382 287.694988 
L 197.133583 287.907765 
L 198.264783 286.222514 
L 199.395984 288.522229 
L 200.527184 288.068937 
L 201.658385 287.026557 
L 202.789585 287.965668 
L 203.920786 287.167742 
L 205.051986 288.536342 
L 206.183187 287.884506 
L 207.314387 287.889957 
L 208.445588 288.146343 
L 209.576788 289.181212 
L 210.707989 286.970108 
L 211.839189 288.353365 
L 212.97039 288.641185 
L 214.10159 288.809444 
L 215.232791 288.277352 
L 216.363991 289.083152 
L 217.495192 288.357968 
L 218.626392 289.875748 
L 219.757593 289.133302 
L 220.888793 285.363535 
L 222.019994 290.50487 
L 223.151194 288.603148 
L 224.282395 289.480237 
L 225.413595 289.754308 
L 226.544796 289.722147 
L 227.675996 290.253209 
L 228.807197 287.038005 
L 229.938397 289.794283 
L 231.069598 290.44836 
L 233.331999 289.024037 
L 234.463199 290.021414 
L 235.5944 288.306182 
L 236.7256 267.845567 
L 237.856801 291.020184 
L 238.988001 291.138292 
L 240.119202 290.320076 
L 241.250402 288.960986 
L 242.381603 289.654552 
L 243.512803 290.933087 
L 244.644004 289.64262 
L 245.775204 289.843949 
L 246.906405 290.169806 
L 249.168806 289.80034 
L 250.300006 290.630064 
L 251.431207 289.68623 
L 252.562407 288.139801 
L 253.693608 291.427687 
L 254.824808 290.538485 
L 255.956009 290.710196 
L 257.087209 289.841103 
L 258.21841 289.272306 
L 259.34961 291.18602 
L 260.480811 291.179297 
L 261.612011 289.329967 
L 262.743212 291.687162 
L 263.874412 290.207601 
L 265.005613 289.343716 
L 266.136813 290.652051 
L 267.268014 289.953759 
L 268.399214 291.306733 
L 269.530415 289.810273 
L 270.661615 291.273178 
L 271.792816 291.98219 
L 272.924016 290.114629 
L 274.055217 291.103223 
L 275.186417 288.400972 
L 276.317618 291.447735 
L 277.448818 291.547249 
L 278.580019 290.830545 
L 279.71122 291.74458 
L 280.84242 290.557806 
L 281.973621 291.479413 
L 283.104821 291.026181 
L 284.236022 291.691583 
L 285.367222 291.088263 
L 286.498423 291.28832 
L 287.629623 291.993758 
L 288.760824 290.158783 
L 289.892024 291.904541 
L 291.023225 263.270061 
L 292.154425 294.775051 
L 293.285626 293.244553 
L 294.416826 292.593141 
L 295.548027 291.172574 
L 296.679227 293.705295 
L 297.810428 292.475215 
L 298.941628 292.177038 
L 300.072829 291.574747 
L 301.204029 293.391673 
L 302.33523 292.756676 
L 303.46643 291.023697 
L 304.597631 291.492677 
L 305.728831 292.506226 
L 306.860032 291.083115 
L 307.991232 292.241058 
L 309.122433 291.482138 
L 310.253633 291.89594 
L 311.384834 292.632571 
L 312.516034 291.756512 
L 313.647235 292.837413 
L 314.778435 293.272293 
L 315.909636 291.085235 
L 317.040836 291.556274 
L 318.172037 293.047464 
L 319.303237 291.690796 
L 320.434438 292.427608 
L 321.565638 292.546443 
L 322.696839 292.359409 
L 323.828039 292.340148 
L 324.95924 293.138861 
L 326.09044 291.560514 
L 327.221641 293.450909 
L 328.352841 292.887866 
L 329.484042 291.842338 
L 330.615242 293.195614 
L 331.746443 292.018652 
L 332.877643 293.158727 
L 334.008844 293.208878 
L 335.140044 291.202434 
L 336.271245 292.828509 
L 337.402445 292.191513 
L 338.533646 294.092447 
L 339.664846 292.203809 
L 340.796047 292.058566 
L 341.927247 292.982777 
L 343.058448 291.94064 
L 344.189648 293.707476 
L 345.320849 274.204081 
L 346.452049 294.98807 
L 347.58325 294.762938 
L 348.71445 293.145584 
L 349.845651 294.348772 
L 350.976851 292.118044 
L 352.108052 294.55749 
L 353.239252 292.234275 
L 354.370453 293.80917 
L 355.501653 293.133228 
L 356.632854 293.552421 
L 357.764054 293.58961 
L 358.895255 294.342473 
L 360.026455 291.082994 
L 361.157656 292.414586 
L 362.288857 294.610609 
L 363.420057 293.35406 
L 364.551258 292.452199 
L 365.682458 293.449818 
L 366.813659 293.007791 
L 367.944859 294.319578 
L 369.07606 294.06071 
L 370.20726 290.613105 
L 371.338461 293.607114 
L 372.469661 294.0171 
L 373.600862 295.488 
L 374.732062 291.705393 
L 375.863263 294.491834 
L 376.994463 292.822937 
L 378.125664 292.44802 
L 379.256864 294.098444 
L 380.388065 294.664575 
L 381.519265 294.298198 
L 382.650466 292.80404 
L 383.781666 293.640003 
L 384.912867 294.08421 
L 386.044067 292.935776 
L 387.175268 293.916254 
L 388.306468 293.504633 
L 389.437669 293.590821 
L 390.568869 292.742503 
L 391.70007 293.802992 
L 392.83127 293.562233 
L 393.962471 294.298016 
L 395.093671 294.175608 
L 396.224872 294.582323 
L 397.356072 293.744362 
L 398.487273 294.663727 
L 398.487273 294.663727 
" clip-path="url(#pbb2b18e8fd)" style="fill: none; stroke: #2ca02c; stroke-width: 1.5; stroke-linecap: square"/>
   </g>
   <g id="patch_3">
    <path d="M 57.6 307.584 
L 57.6 41.472 
" style="fill: none; stroke: #000000; stroke-width: 0.8; stroke-linejoin: miter; stroke-linecap: square"/>
   </g>
   <g id="patch_4">
    <path d="M 414.72 307.584 
L 414.72 41.472 
" style="fill: none; stroke: #000000; stroke-width: 0.8; stroke-linejoin: miter; stroke-linecap: square"/>
   </g>
   <g id="patch_5">
    <path d="M 57.6 307.584 
L 414.72 307.584 
" style="fill: none; stroke: #000000; stroke-width: 0.8; stroke-linejoin: miter; stroke-linecap: square"/>
   </g>
   <g id="patch_6">
    <path d="M 57.6 41.472 
L 414.72 41.472 
" style="fill: none; stroke: #000000; stroke-width: 0.8; stroke-linejoin: miter; stroke-linecap: square"/>
   </g>
   <g id="text_17">
    <!-- Latent Space Size vs Accuracy Of Training -->
    <g transform="translate(110.320312 35.472) scale(0.12 -0.12)">
     <defs>
      <path id="DejaVuSans-4c" d="M 628 4666 
L 1259 4666 
L 1259 531 
L 3531 531 
L 3531 0 
L 628 0 
L 628 4666 
z
" transform="scale(0.015625)"/>
      <path id="DejaVuSans-61" d="M 2194 1759 
Q 1497 1759 1228 1600 
Q 959 1441 959 1056 
Q 959 750 1161 570 
Q 1363 391 1709 391 
Q 2188 391 2477 730 
Q 2766 1069 2766 1631 
L 2766 1759 
L 2194 1759 
z
M 3341 1997 
L 3341 0 
L 2766 0 
L 2766 531 
Q 2569 213 2275 61 
Q 1981 -91 1556 -91 
Q 1019 -91 701 211 
Q 384 513 384 1019 
Q 384 1609 779 1909 
Q 1175 2209 1959 2209 
L 2766 2209 
L 2766 2266 
Q 2766 2663 2505 2880 
Q 2244 3097 1772 3097 
Q 1472 3097 1187 3025 
Q 903 2953 641 2809 
L 641 3341 
Q 956 3463 1253 3523 
Q 1550 3584 1831 3584 
Q 2591 3584 2966 3190 
Q 3341 2797 3341 1997 
z
" transform="scale(0.015625)"/>
      <path id="DejaVuSans-74" d="M 1172 4494 
L 1172 3500 
L 2356 3500 
L 2356 3053 
L 1172 3053 
L 1172 1153 
Q 1172 725 1289 603 
Q 1406 481 1766 481 
L 2356 481 
L 2356 0 
L 1766 0 
Q 1100 0 847 248 
Q 594 497 594 1153 
L 594 3053 
L 172 3053 
L 172 3500 
L 594 3500 
L 594 4494 
L 1172 4494 
z
" transform="scale(0.015625)"/>
      <path id="DejaVuSans-6e" d="M 3513 2113 
L 3513 0 
L 2938 0 
L 2938 2094 
Q 2938 2591 2744 2837 
Q 2550 3084 2163 3084 
Q 1697 3084 1428 2787 
Q 1159 2491 1159 1978 
L 1159 0 
L 581 0 
L 581 3500 
L 1159 3500 
L 1159 2956 
Q 1366 3272 1645 3428 
Q 1925 3584 2291 3584 
Q 2894 3584 3203 3211 
Q 3513 2838 3513 2113 
z
" transform="scale(0.015625)"/>
      <path id="DejaVuSans-20" transform="scale(0.015625)"/>
      <path id="DejaVuSans-53" d="M 3425 4513 
L 3425 3897 
Q 3066 4069 2747 4153 
Q 2428 4238 2131 4238 
Q 1616 4238 1336 4038 
Q 1056 3838 1056 3469 
Q 1056 3159 1242 3001 
Q 1428 2844 1947 2747 
L 2328 2669 
Q 3034 2534 3370 2195 
Q 3706 1856 3706 1288 
Q 3706 609 3251 259 
Q 2797 -91 1919 -91 
Q 1588 -91 1214 -16 
Q 841 59 441 206 
L 441 856 
Q 825 641 1194 531 
Q 1563 422 1919 422 
Q 2459 422 2753 634 
Q 3047 847 3047 1241 
Q 3047 1584 2836 1778 
Q 2625 1972 2144 2069 
L 1759 2144 
Q 1053 2284 737 2584 
Q 422 2884 422 3419 
Q 422 4038 858 4394 
Q 1294 4750 2059 4750 
Q 2388 4750 2728 4690 
Q 3069 4631 3425 4513 
z
" transform="scale(0.015625)"/>
      <path id="DejaVuSans-69" d="M 603 3500 
L 1178 3500 
L 1178 0 
L 603 0 
L 603 3500 
z
M 603 4863 
L 1178 4863 
L 1178 4134 
L 603 4134 
L 603 4863 
z
" transform="scale(0.015625)"/>
      <path id="DejaVuSans-7a" d="M 353 3500 
L 3084 3500 
L 3084 2975 
L 922 459 
L 3084 459 
L 3084 0 
L 275 0 
L 275 525 
L 2438 3041 
L 353 3041 
L 353 3500 
z
" transform="scale(0.015625)"/>
      <path id="DejaVuSans-76" d="M 191 3500 
L 800 3500 
L 1894 563 
L 2988 3500 
L 3597 3500 
L 2284 0 
L 1503 0 
L 191 3500 
z
" transform="scale(0.015625)"/>
      <path id="DejaVuSans-41" d="M 2188 4044 
L 1331 1722 
L 3047 1722 
L 2188 4044 
z
M 1831 4666 
L 2547 4666 
L 4325 0 
L 3669 0 
L 3244 1197 
L 1141 1197 
L 716 0 
L 50 0 
L 1831 4666 
z
" transform="scale(0.015625)"/>
      <path id="DejaVuSans-75" d="M 544 1381 
L 544 3500 
L 1119 3500 
L 1119 1403 
Q 1119 906 1312 657 
Q 1506 409 1894 409 
Q 2359 409 2629 706 
Q 2900 1003 2900 1516 
L 2900 3500 
L 3475 3500 
L 3475 0 
L 2900 0 
L 2900 538 
Q 2691 219 2414 64 
Q 2138 -91 1772 -91 
Q 1169 -91 856 284 
Q 544 659 544 1381 
z
M 1991 3584 
L 1991 3584 
z
" transform="scale(0.015625)"/>
      <path id="DejaVuSans-72" d="M 2631 2963 
Q 2534 3019 2420 3045 
Q 2306 3072 2169 3072 
Q 1681 3072 1420 2755 
Q 1159 2438 1159 1844 
L 1159 0 
L 581 0 
L 581 3500 
L 1159 3500 
L 1159 2956 
Q 1341 3275 1631 3429 
Q 1922 3584 2338 3584 
Q 2397 3584 2469 3576 
Q 2541 3569 2628 3553 
L 2631 2963 
z
" transform="scale(0.015625)"/>
      <path id="DejaVuSans-79" d="M 2059 -325 
Q 1816 -950 1584 -1140 
Q 1353 -1331 966 -1331 
L 506 -1331 
L 506 -850 
L 844 -850 
Q 1081 -850 1212 -737 
Q 1344 -625 1503 -206 
L 1606 56 
L 191 3500 
L 800 3500 
L 1894 763 
L 2988 3500 
L 3597 3500 
L 2059 -325 
z
" transform="scale(0.015625)"/>
      <path id="DejaVuSans-4f" d="M 2522 4238 
Q 1834 4238 1429 3725 
Q 1025 3213 1025 2328 
Q 1025 1447 1429 934 
Q 1834 422 2522 422 
Q 3209 422 3611 934 
Q 4013 1447 4013 2328 
Q 4013 3213 3611 3725 
Q 3209 4238 2522 4238 
z
M 2522 4750 
Q 3503 4750 4090 4092 
Q 4678 3434 4678 2328 
Q 4678 1225 4090 567 
Q 3503 -91 2522 -91 
Q 1538 -91 948 565 
Q 359 1222 359 2328 
Q 359 3434 948 4092 
Q 1538 4750 2522 4750 
z
" transform="scale(0.015625)"/>
      <path id="DejaVuSans-66" d="M 2375 4863 
L 2375 4384 
L 1825 4384 
Q 1516 4384 1395 4259 
Q 1275 4134 1275 3809 
L 1275 3500 
L 2222 3500 
L 2222 3053 
L 1275 3053 
L 1275 0 
L 697 0 
L 697 3053 
L 147 3053 
L 147 3500 
L 697 3500 
L 697 3744 
Q 697 4328 969 4595 
Q 1241 4863 1831 4863 
L 2375 4863 
z
" transform="scale(0.015625)"/>
      <path id="DejaVuSans-54" d="M -19 4666 
L 3928 4666 
L 3928 4134 
L 2272 4134 
L 2272 0 
L 1638 0 
L 1638 4134 
L -19 4134 
L -19 4666 
z
" transform="scale(0.015625)"/>
      <path id="DejaVuSans-67" d="M 2906 1791 
Q 2906 2416 2648 2759 
Q 2391 3103 1925 3103 
Q 1463 3103 1205 2759 
Q 947 2416 947 1791 
Q 947 1169 1205 825 
Q 1463 481 1925 481 
Q 2391 481 2648 825 
Q 2906 1169 2906 1791 
z
M 3481 434 
Q 3481 -459 3084 -895 
Q 2688 -1331 1869 -1331 
Q 1566 -1331 1297 -1286 
Q 1028 -1241 775 -1147 
L 775 -588 
Q 1028 -725 1275 -790 
Q 1522 -856 1778 -856 
Q 2344 -856 2625 -561 
Q 2906 -266 2906 331 
L 2906 616 
Q 2728 306 2450 153 
Q 2172 0 1784 0 
Q 1141 0 747 490 
Q 353 981 353 1791 
Q 353 2603 747 3093 
Q 1141 3584 1784 3584 
Q 2172 3584 2450 3431 
Q 2728 3278 2906 2969 
L 2906 3500 
L 3481 3500 
L 3481 434 
z
" transform="scale(0.015625)"/>
     </defs>
     <use xlink:href="#DejaVuSans-4c"/>
     <use xlink:href="#DejaVuSans-61" transform="translate(55.712891 0)"/>
     <use xlink:href="#DejaVuSans-74" transform="translate(116.992188 0)"/>
     <use xlink:href="#DejaVuSans-65" transform="translate(156.201172 0)"/>
     <use xlink:href="#DejaVuSans-6e" transform="translate(217.724609 0)"/>
     <use xlink:href="#DejaVuSans-74" transform="translate(281.103516 0)"/>
     <use xlink:href="#DejaVuSans-20" transform="translate(320.3125 0)"/>
     <use xlink:href="#DejaVuSans-53" transform="translate(352.099609 0)"/>
     <use xlink:href="#DejaVuSans-70" transform="translate(415.576172 0)"/>
     <use xlink:href="#DejaVuSans-61" transform="translate(479.052734 0)"/>
     <use xlink:href="#DejaVuSans-63" transform="translate(540.332031 0)"/>
     <use xlink:href="#DejaVuSans-65" transform="translate(595.3125 0)"/>
     <use xlink:href="#DejaVuSans-20" transform="translate(656.835938 0)"/>
     <use xlink:href="#DejaVuSans-53" transform="translate(688.623047 0)"/>
     <use xlink:href="#DejaVuSans-69" transform="translate(752.099609 0)"/>
     <use xlink:href="#DejaVuSans-7a" transform="translate(779.882812 0)"/>
     <use xlink:href="#DejaVuSans-65" transform="translate(832.373047 0)"/>
     <use xlink:href="#DejaVuSans-20" transform="translate(893.896484 0)"/>
     <use xlink:href="#DejaVuSans-76" transform="translate(925.683594 0)"/>
     <use xlink:href="#DejaVuSans-73" transform="translate(984.863281 0)"/>
     <use xlink:href="#DejaVuSans-20" transform="translate(1036.962891 0)"/>
     <use xlink:href="#DejaVuSans-41" transform="translate(1068.75 0)"/>
     <use xlink:href="#DejaVuSans-63" transform="translate(1135.408203 0)"/>
     <use xlink:href="#DejaVuSans-63" transform="translate(1190.388672 0)"/>
     <use xlink:href="#DejaVuSans-75" transform="translate(1245.369141 0)"/>
     <use xlink:href="#DejaVuSans-72" transform="translate(1308.748047 0)"/>
     <use xlink:href="#DejaVuSans-61" transform="translate(1349.861328 0)"/>
     <use xlink:href="#DejaVuSans-63" transform="translate(1411.140625 0)"/>
     <use xlink:href="#DejaVuSans-79" transform="translate(1466.121094 0)"/>
     <use xlink:href="#DejaVuSans-20" transform="translate(1525.300781 0)"/>
     <use xlink:href="#DejaVuSans-4f" transform="translate(1557.087891 0)"/>
     <use xlink:href="#DejaVuSans-66" transform="translate(1635.798828 0)"/>
     <use xlink:href="#DejaVuSans-20" transform="translate(1671.003906 0)"/>
     <use xlink:href="#DejaVuSans-54" transform="translate(1702.791016 0)"/>
     <use xlink:href="#DejaVuSans-72" transform="translate(1749.125 0)"/>
     <use xlink:href="#DejaVuSans-61" transform="translate(1790.238281 0)"/>
     <use xlink:href="#DejaVuSans-69" transform="translate(1851.517578 0)"/>
     <use xlink:href="#DejaVuSans-6e" transform="translate(1879.300781 0)"/>
     <use xlink:href="#DejaVuSans-69" transform="translate(1942.679688 0)"/>
     <use xlink:href="#DejaVuSans-6e" transform="translate(1970.462891 0)"/>
     <use xlink:href="#DejaVuSans-67" transform="translate(2033.841797 0)"/>
    </g>
   </g>
   <g id="legend_1">
    <g id="patch_7">
     <path d="M 319.137188 94.34075 
L 407.72 94.34075 
Q 409.72 94.34075 409.72 92.34075 
L 409.72 48.472 
Q 409.72 46.472 407.72 46.472 
L 319.137188 46.472 
Q 317.137188 46.472 317.137188 48.472 
L 317.137188 92.34075 
Q 317.137188 94.34075 319.137188 94.34075 
z
" style="fill: #ffffff; opacity: 0.8; stroke: #cccccc; stroke-linejoin: miter"/>
    </g>
    <g id="line2d_18">
     <path d="M 321.137188 54.570438 
L 331.137188 54.570438 
L 341.137188 54.570438 
" style="fill: none; stroke: #1f77b4; stroke-width: 1.5; stroke-linecap: square"/>
    </g>
    <g id="text_18">
     <!-- z_dim=10 -->
     <g transform="translate(349.137188 58.070438) scale(0.1 -0.1)">
      <defs>
       <path id="DejaVuSans-5f" d="M 3263 -1063 
L 3263 -1509 
L -63 -1509 
L -63 -1063 
L 3263 -1063 
z
" transform="scale(0.015625)"/>
       <path id="DejaVuSans-64" d="M 2906 2969 
L 2906 4863 
L 3481 4863 
L 3481 0 
L 2906 0 
L 2906 525 
Q 2725 213 2448 61 
Q 2172 -91 1784 -91 
Q 1150 -91 751 415 
Q 353 922 353 1747 
Q 353 2572 751 3078 
Q 1150 3584 1784 3584 
Q 2172 3584 2448 3432 
Q 2725 3281 2906 2969 
z
M 947 1747 
Q 947 1113 1208 752 
Q 1469 391 1925 391 
Q 2381 391 2643 752 
Q 2906 1113 2906 1747 
Q 2906 2381 2643 2742 
Q 2381 3103 1925 3103 
Q 1469 3103 1208 2742 
Q 947 2381 947 1747 
z
" transform="scale(0.015625)"/>
       <path id="DejaVuSans-6d" d="M 3328 2828 
Q 3544 3216 3844 3400 
Q 4144 3584 4550 3584 
Q 5097 3584 5394 3201 
Q 5691 2819 5691 2113 
L 5691 0 
L 5113 0 
L 5113 2094 
Q 5113 2597 4934 2840 
Q 4756 3084 4391 3084 
Q 3944 3084 3684 2787 
Q 3425 2491 3425 1978 
L 3425 0 
L 2847 0 
L 2847 2094 
Q 2847 2600 2669 2842 
Q 2491 3084 2119 3084 
Q 1678 3084 1418 2786 
Q 1159 2488 1159 1978 
L 1159 0 
L 581 0 
L 581 3500 
L 1159 3500 
L 1159 2956 
Q 1356 3278 1631 3431 
Q 1906 3584 2284 3584 
Q 2666 3584 2933 3390 
Q 3200 3197 3328 2828 
z
" transform="scale(0.015625)"/>
       <path id="DejaVuSans-3d" d="M 678 2906 
L 4684 2906 
L 4684 2381 
L 678 2381 
L 678 2906 
z
M 678 1631 
L 4684 1631 
L 4684 1100 
L 678 1100 
L 678 1631 
z
" transform="scale(0.015625)"/>
      </defs>
      <use xlink:href="#DejaVuSans-7a"/>
      <use xlink:href="#DejaVuSans-5f" transform="translate(52.490234 0)"/>
      <use xlink:href="#DejaVuSans-64" transform="translate(102.490234 0)"/>
      <use xlink:href="#DejaVuSans-69" transform="translate(165.966797 0)"/>
      <use xlink:href="#DejaVuSans-6d" transform="translate(193.75 0)"/>
      <use xlink:href="#DejaVuSans-3d" transform="translate(291.162109 0)"/>
      <use xlink:href="#DejaVuSans-31" transform="translate(374.951172 0)"/>
      <use xlink:href="#DejaVuSans-30" transform="translate(438.574219 0)"/>
     </g>
    </g>
    <g id="line2d_19">
     <path d="M 321.137188 69.526688 
L 331.137188 69.526688 
L 341.137188 69.526688 
" style="fill: none; stroke: #ff7f0e; stroke-width: 1.5; stroke-linecap: square"/>
    </g>
    <g id="text_19">
     <!-- z_dim=50 -->
     <g transform="translate(349.137188 73.026688) scale(0.1 -0.1)">
      <use xlink:href="#DejaVuSans-7a"/>
      <use xlink:href="#DejaVuSans-5f" transform="translate(52.490234 0)"/>
      <use xlink:href="#DejaVuSans-64" transform="translate(102.490234 0)"/>
      <use xlink:href="#DejaVuSans-69" transform="translate(165.966797 0)"/>
      <use xlink:href="#DejaVuSans-6d" transform="translate(193.75 0)"/>
      <use xlink:href="#DejaVuSans-3d" transform="translate(291.162109 0)"/>
      <use xlink:href="#DejaVuSans-35" transform="translate(374.951172 0)"/>
      <use xlink:href="#DejaVuSans-30" transform="translate(438.574219 0)"/>
     </g>
    </g>
    <g id="line2d_20">
     <path d="M 321.137188 84.482938 
L 331.137188 84.482938 
L 341.137188 84.482938 
" style="fill: none; stroke: #2ca02c; stroke-width: 1.5; stroke-linecap: square"/>
    </g>
    <g id="text_20">
     <!-- z_dim=150 -->
     <g transform="translate(349.137188 87.982938) scale(0.1 -0.1)">
      <use xlink:href="#DejaVuSans-7a"/>
      <use xlink:href="#DejaVuSans-5f" transform="translate(52.490234 0)"/>
      <use xlink:href="#DejaVuSans-64" transform="translate(102.490234 0)"/>
      <use xlink:href="#DejaVuSans-69" transform="translate(165.966797 0)"/>
      <use xlink:href="#DejaVuSans-6d" transform="translate(193.75 0)"/>
      <use xlink:href="#DejaVuSans-3d" transform="translate(291.162109 0)"/>
      <use xlink:href="#DejaVuSans-31" transform="translate(374.951172 0)"/>
      <use xlink:href="#DejaVuSans-35" transform="translate(438.574219 0)"/>
      <use xlink:href="#DejaVuSans-30" transform="translate(502.197266 0)"/>
     </g>
    </g>
   </g>
  </g>
 </g>
 <defs>
  <clipPath id="pbb2b18e8fd">
   <rect x="57.6" y="41.472" width="357.12" height="266.112"/>
  </clipPath>
 </defs>
</svg>
