<?xml version="1.0" encoding="utf-8" standalone="no"?>
<!DOCTYPE svg PUBLIC "-//W3C//DTD SVG 1.1//EN"
  "http://www.w3.org/Graphics/SVG/1.1/DTD/svg11.dtd">
<svg xmlns:xlink="http://www.w3.org/1999/xlink" width="460.8pt" height="345.6pt" viewBox="0 0 460.8 345.6" xmlns="http://www.w3.org/2000/svg" version="1.1">
 <metadata>
  <rdf:RDF xmlns:dc="http://purl.org/dc/elements/1.1/" xmlns:cc="http://creativecommons.org/ns#" xmlns:rdf="http://www.w3.org/1999/02/22-rdf-syntax-ns#">
   <cc:Work>
    <dc:type rdf:resource="http://purl.org/dc/dcmitype/StillImage"/>
    <dc:date>2026-01-12T21:14:10.728283</dc:date>
    <dc:format>image/svg+xml</dc:format>
    <dc:creator>
     <cc:Agent>
      <dc:title>Matplotlib v3.10.3, https://matplotlib.org/</dc:title>
     </cc:Agent>
    </dc:creator>
   </cc:Work>
  </rdf:RDF>
 </metadata>
 <defs>
  <style type="text/css">*{stroke-linejoin: round; stroke-linecap: butt}</style>
 </defs>
 <g id="figure_1">
  <g id="patch_1">
   <path d="M 0 345.6 
L 460.8 345.6 
L 460.8 0 
L 0 0 
z
" style="fill: #ffffff"/>
  </g>
  <g id="axes_1">
   <g id="patch_2">
    <path d="M 57.6 307.584 
L 414.72 307.584 
L 414.72 41.472 
L 57.6 41.472 
z
" style="fill: #ffffff"/>
   </g>
   <g id="matplotlib.axis_1">
    <g id="xtick_1">
     <g id="line2d_1">
      <defs>
       <path id="m6d05e1ae0e" d="M 0 0 
L 0 3.5 
" style="stroke: #000000; stroke-width: 0.8"/>
      </defs>
      <g>
       <use xlink:href="#m6d05e1ae0e" x="73.832727" y="307.584" style="stroke: #000000; stroke-width: 0.8"/>
      </g>
     </g>
     <g id="text_1">
      <!-- 0 -->
      <g transform="translate(70.651477 322.182437) scale(0.1 -0.1)">
       <defs>
        <path id="DejaVuSans-30" d="M 2034 4250 
Q 1547 4250 1301 3770 
Q 1056 3291 1056 2328 
Q 1056 1369 1301 889 
Q 1547 409 2034 409 
Q 2525 409 2770 889 
Q 3016 1369 3016 2328 
Q 3016 3291 2770 3770 
Q 2525 4250 2034 4250 
z
M 2034 4750 
Q 2819 4750 3233 4129 
Q 3647 3509 3647 2328 
Q 3647 1150 3233 529 
Q 2819 -91 2034 -91 
Q 1250 -91 836 529 
Q 422 1150 422 2328 
Q 422 3509 836 4129 
Q 1250 4750 2034 4750 
z
" transform="scale(0.015625)"/>
       </defs>
       <use xlink:href="#DejaVuSans-30"/>
      </g>
     </g>
    </g>
    <g id="xtick_2">
     <g id="line2d_2">
      <g>
       <use xlink:href="#m6d05e1ae0e" x="130.196364" y="307.584" style="stroke: #000000; stroke-width: 0.8"/>
      </g>
     </g>
     <g id="text_2">
      <!-- 50 -->
      <g transform="translate(123.833864 322.182437) scale(0.1 -0.1)">
       <defs>
        <path id="DejaVuSans-35" d="M 691 4666 
L 3169 4666 
L 3169 4134 
L 1269 4134 
L 1269 2991 
Q 1406 3038 1543 3061 
Q 1681 3084 1819 3084 
Q 2600 3084 3056 2656 
Q 3513 2228 3513 1497 
Q 3513 744 3044 326 
Q 2575 -91 1722 -91 
Q 1428 -91 1123 -41 
Q 819 9 494 109 
L 494 744 
Q 775 591 1075 516 
Q 1375 441 1709 441 
Q 2250 441 2565 725 
Q 2881 1009 2881 1497 
Q 2881 1984 2565 2268 
Q 2250 2553 1709 2553 
Q 1456 2553 1204 2497 
Q 953 2441 691 2322 
L 691 4666 
z
" transform="scale(0.015625)"/>
       </defs>
       <use xlink:href="#DejaVuSans-35"/>
       <use xlink:href="#DejaVuSans-30" transform="translate(63.623047 0)"/>
      </g>
     </g>
    </g>
    <g id="xtick_3">
     <g id="line2d_3">
      <g>
       <use xlink:href="#m6d05e1ae0e" x="186.56" y="307.584" style="stroke: #000000; stroke-width: 0.8"/>
      </g>
     </g>
     <g id="text_3">
      <!-- 100 -->
      <g transform="translate(177.01625 322.182437) scale(0.1 -0.1)">
       <defs>
        <path id="DejaVuSans-31" d="M 794 531 
L 1825 531 
L 1825 4091 
L 703 3866 
L 703 4441 
L 1819 4666 
L 2450 4666 
L 2450 531 
L 3481 531 
L 3481 0 
L 794 0 
L 794 531 
z
" transform="scale(0.015625)"/>
       </defs>
       <use xlink:href="#DejaVuSans-31"/>
       <use xlink:href="#DejaVuSans-30" transform="translate(63.623047 0)"/>
       <use xlink:href="#DejaVuSans-30" transform="translate(127.246094 0)"/>
      </g>
     </g>
    </g>
    <g id="xtick_4">
     <g id="line2d_4">
      <g>
       <use xlink:href="#m6d05e1ae0e" x="242.923636" y="307.584" style="stroke: #000000; stroke-width: 0.8"/>
      </g>
     </g>
     <g id="text_4">
      <!-- 150 -->
      <g transform="translate(233.379886 322.182437) scale(0.1 -0.1)">
       <use xlink:href="#DejaVuSans-31"/>
       <use xlink:href="#DejaVuSans-35" transform="translate(63.623047 0)"/>
       <use xlink:href="#DejaVuSans-30" transform="translate(127.246094 0)"/>
      </g>
     </g>
    </g>
    <g id="xtick_5">
     <g id="line2d_5">
      <g>
       <use xlink:href="#m6d05e1ae0e" x="299.287273" y="307.584" style="stroke: #000000; stroke-width: 0.8"/>
      </g>
     </g>
     <g id="text_5">
      <!-- 200 -->
      <g transform="translate(289.743523 322.182437) scale(0.1 -0.1)">
       <defs>
        <path id="DejaVuSans-32" d="M 1228 531 
L 3431 531 
L 3431 0 
L 469 0 
L 469 531 
Q 828 903 1448 1529 
Q 2069 2156 2228 2338 
Q 2531 2678 2651 2914 
Q 2772 3150 2772 3378 
Q 2772 3750 2511 3984 
Q 2250 4219 1831 4219 
Q 1534 4219 1204 4116 
Q 875 4013 500 3803 
L 500 4441 
Q 881 4594 1212 4672 
Q 1544 4750 1819 4750 
Q 2544 4750 2975 4387 
Q 3406 4025 3406 3419 
Q 3406 3131 3298 2873 
Q 3191 2616 2906 2266 
Q 2828 2175 2409 1742 
Q 1991 1309 1228 531 
z
" transform="scale(0.015625)"/>
       </defs>
       <use xlink:href="#DejaVuSans-32"/>
       <use xlink:href="#DejaVuSans-30" transform="translate(63.623047 0)"/>
       <use xlink:href="#DejaVuSans-30" transform="translate(127.246094 0)"/>
      </g>
     </g>
    </g>
    <g id="xtick_6">
     <g id="line2d_6">
      <g>
       <use xlink:href="#m6d05e1ae0e" x="355.650909" y="307.584" style="stroke: #000000; stroke-width: 0.8"/>
      </g>
     </g>
     <g id="text_6">
      <!-- 250 -->
      <g transform="translate(346.107159 322.182437) scale(0.1 -0.1)">
       <use xlink:href="#DejaVuSans-32"/>
       <use xlink:href="#DejaVuSans-35" transform="translate(63.623047 0)"/>
       <use xlink:href="#DejaVuSans-30" transform="translate(127.246094 0)"/>
      </g>
     </g>
    </g>
    <g id="xtick_7">
     <g id="line2d_7">
      <g>
       <use xlink:href="#m6d05e1ae0e" x="412.014545" y="307.584" style="stroke: #000000; stroke-width: 0.8"/>
      </g>
     </g>
     <g id="text_7">
      <!-- 300 -->
      <g transform="translate(402.470795 322.182437) scale(0.1 -0.1)">
       <defs>
        <path id="DejaVuSans-33" d="M 2597 2516 
Q 3050 2419 3304 2112 
Q 3559 1806 3559 1356 
Q 3559 666 3084 287 
Q 2609 -91 1734 -91 
Q 1441 -91 1130 -33 
Q 819 25 488 141 
L 488 750 
Q 750 597 1062 519 
Q 1375 441 1716 441 
Q 2309 441 2620 675 
Q 2931 909 2931 1356 
Q 2931 1769 2642 2001 
Q 2353 2234 1838 2234 
L 1294 2234 
L 1294 2753 
L 1863 2753 
Q 2328 2753 2575 2939 
Q 2822 3125 2822 3475 
Q 2822 3834 2567 4026 
Q 2313 4219 1838 4219 
Q 1578 4219 1281 4162 
Q 984 4106 628 3988 
L 628 4550 
Q 988 4650 1302 4700 
Q 1616 4750 1894 4750 
Q 2613 4750 3031 4423 
Q 3450 4097 3450 3541 
Q 3450 3153 3228 2886 
Q 3006 2619 2597 2516 
z
" transform="scale(0.015625)"/>
       </defs>
       <use xlink:href="#DejaVuSans-33"/>
       <use xlink:href="#DejaVuSans-30" transform="translate(63.623047 0)"/>
       <use xlink:href="#DejaVuSans-30" transform="translate(127.246094 0)"/>
      </g>
     </g>
    </g>
    <g id="text_8">
     <!-- epochs -->
     <g transform="translate(218.327188 335.860562) scale(0.1 -0.1)">
      <defs>
       <path id="DejaVuSans-65" d="M 3597 1894 
L 3597 1613 
L 953 1613 
Q 991 1019 1311 708 
Q 1631 397 2203 397 
Q 2534 397 2845 478 
Q 3156 559 3463 722 
L 3463 178 
Q 3153 47 2828 -22 
Q 2503 -91 2169 -91 
Q 1331 -91 842 396 
Q 353 884 353 1716 
Q 353 2575 817 3079 
Q 1281 3584 2069 3584 
Q 2775 3584 3186 3129 
Q 3597 2675 3597 1894 
z
M 3022 2063 
Q 3016 2534 2758 2815 
Q 2500 3097 2075 3097 
Q 1594 3097 1305 2825 
Q 1016 2553 972 2059 
L 3022 2063 
z
" transform="scale(0.015625)"/>
       <path id="DejaVuSans-70" d="M 1159 525 
L 1159 -1331 
L 581 -1331 
L 581 3500 
L 1159 3500 
L 1159 2969 
Q 1341 3281 1617 3432 
Q 1894 3584 2278 3584 
Q 2916 3584 3314 3078 
Q 3713 2572 3713 1747 
Q 3713 922 3314 415 
Q 2916 -91 2278 -91 
Q 1894 -91 1617 61 
Q 1341 213 1159 525 
z
M 3116 1747 
Q 3116 2381 2855 2742 
Q 2594 3103 2138 3103 
Q 1681 3103 1420 2742 
Q 1159 2381 1159 1747 
Q 1159 1113 1420 752 
Q 1681 391 2138 391 
Q 2594 391 2855 752 
Q 3116 1113 3116 1747 
z
" transform="scale(0.015625)"/>
       <path id="DejaVuSans-6f" d="M 1959 3097 
Q 1497 3097 1228 2736 
Q 959 2375 959 1747 
Q 959 1119 1226 758 
Q 1494 397 1959 397 
Q 2419 397 2687 759 
Q 2956 1122 2956 1747 
Q 2956 2369 2687 2733 
Q 2419 3097 1959 3097 
z
M 1959 3584 
Q 2709 3584 3137 3096 
Q 3566 2609 3566 1747 
Q 3566 888 3137 398 
Q 2709 -91 1959 -91 
Q 1206 -91 779 398 
Q 353 888 353 1747 
Q 353 2609 779 3096 
Q 1206 3584 1959 3584 
z
" transform="scale(0.015625)"/>
       <path id="DejaVuSans-63" d="M 3122 3366 
L 3122 2828 
Q 2878 2963 2633 3030 
Q 2388 3097 2138 3097 
Q 1578 3097 1268 2742 
Q 959 2388 959 1747 
Q 959 1106 1268 751 
Q 1578 397 2138 397 
Q 2388 397 2633 464 
Q 2878 531 3122 666 
L 3122 134 
Q 2881 22 2623 -34 
Q 2366 -91 2075 -91 
Q 1284 -91 818 406 
Q 353 903 353 1747 
Q 353 2603 823 3093 
Q 1294 3584 2113 3584 
Q 2378 3584 2631 3529 
Q 2884 3475 3122 3366 
z
" transform="scale(0.015625)"/>
       <path id="DejaVuSans-68" d="M 3513 2113 
L 3513 0 
L 2938 0 
L 2938 2094 
Q 2938 2591 2744 2837 
Q 2550 3084 2163 3084 
Q 1697 3084 1428 2787 
Q 1159 2491 1159 1978 
L 1159 0 
L 581 0 
L 581 4863 
L 1159 4863 
L 1159 2956 
Q 1366 3272 1645 3428 
Q 1925 3584 2291 3584 
Q 2894 3584 3203 3211 
Q 3513 2838 3513 2113 
z
" transform="scale(0.015625)"/>
       <path id="DejaVuSans-73" d="M 2834 3397 
L 2834 2853 
Q 2591 2978 2328 3040 
Q 2066 3103 1784 3103 
Q 1356 3103 1142 2972 
Q 928 2841 928 2578 
Q 928 2378 1081 2264 
Q 1234 2150 1697 2047 
L 1894 2003 
Q 2506 1872 2764 1633 
Q 3022 1394 3022 966 
Q 3022 478 2636 193 
Q 2250 -91 1575 -91 
Q 1294 -91 989 -36 
Q 684 19 347 128 
L 347 722 
Q 666 556 975 473 
Q 1284 391 1588 391 
Q 1994 391 2212 530 
Q 2431 669 2431 922 
Q 2431 1156 2273 1281 
Q 2116 1406 1581 1522 
L 1381 1569 
Q 847 1681 609 1914 
Q 372 2147 372 2553 
Q 372 3047 722 3315 
Q 1072 3584 1716 3584 
Q 2034 3584 2315 3537 
Q 2597 3491 2834 3397 
z
" transform="scale(0.015625)"/>
      </defs>
      <use xlink:href="#DejaVuSans-65"/>
      <use xlink:href="#DejaVuSans-70" transform="translate(61.523438 0)"/>
      <use xlink:href="#DejaVuSans-6f" transform="translate(125 0)"/>
      <use xlink:href="#DejaVuSans-63" transform="translate(186.181641 0)"/>
      <use xlink:href="#DejaVuSans-68" transform="translate(241.162109 0)"/>
      <use xlink:href="#DejaVuSans-73" transform="translate(304.541016 0)"/>
     </g>
    </g>
   </g>
   <g id="matplotlib.axis_2">
    <g id="ytick_1">
     <g id="line2d_8">
      <defs>
       <path id="ma3e874fda2" d="M 0 0 
L -3.5 0 
" style="stroke: #000000; stroke-width: 0.8"/>
      </defs>
      <g>
       <use xlink:href="#ma3e874fda2" x="57.6" y="305.220891" style="stroke: #000000; stroke-width: 0.8"/>
      </g>
     </g>
     <g id="text_9">
      <!-- 80000 -->
      <g transform="translate(18.7875 309.02011) scale(0.1 -0.1)">
       <defs>
        <path id="DejaVuSans-38" d="M 2034 2216 
Q 1584 2216 1326 1975 
Q 1069 1734 1069 1313 
Q 1069 891 1326 650 
Q 1584 409 2034 409 
Q 2484 409 2743 651 
Q 3003 894 3003 1313 
Q 3003 1734 2745 1975 
Q 2488 2216 2034 2216 
z
M 1403 2484 
Q 997 2584 770 2862 
Q 544 3141 544 3541 
Q 544 4100 942 4425 
Q 1341 4750 2034 4750 
Q 2731 4750 3128 4425 
Q 3525 4100 3525 3541 
Q 3525 3141 3298 2862 
Q 3072 2584 2669 2484 
Q 3125 2378 3379 2068 
Q 3634 1759 3634 1313 
Q 3634 634 3220 271 
Q 2806 -91 2034 -91 
Q 1263 -91 848 271 
Q 434 634 434 1313 
Q 434 1759 690 2068 
Q 947 2378 1403 2484 
z
M 1172 3481 
Q 1172 3119 1398 2916 
Q 1625 2713 2034 2713 
Q 2441 2713 2670 2916 
Q 2900 3119 2900 3481 
Q 2900 3844 2670 4047 
Q 2441 4250 2034 4250 
Q 1625 4250 1398 4047 
Q 1172 3844 1172 3481 
z
" transform="scale(0.015625)"/>
       </defs>
       <use xlink:href="#DejaVuSans-38"/>
       <use xlink:href="#DejaVuSans-30" transform="translate(63.623047 0)"/>
       <use xlink:href="#DejaVuSans-30" transform="translate(127.246094 0)"/>
       <use xlink:href="#DejaVuSans-30" transform="translate(190.869141 0)"/>
       <use xlink:href="#DejaVuSans-30" transform="translate(254.492188 0)"/>
      </g>
     </g>
    </g>
    <g id="ytick_2">
     <g id="line2d_9">
      <g>
       <use xlink:href="#ma3e874fda2" x="57.6" y="266.457222" style="stroke: #000000; stroke-width: 0.8"/>
      </g>
     </g>
     <g id="text_10">
      <!-- 85000 -->
      <g transform="translate(18.7875 270.256441) scale(0.1 -0.1)">
       <use xlink:href="#DejaVuSans-38"/>
       <use xlink:href="#DejaVuSans-35" transform="translate(63.623047 0)"/>
       <use xlink:href="#DejaVuSans-30" transform="translate(127.246094 0)"/>
       <use xlink:href="#DejaVuSans-30" transform="translate(190.869141 0)"/>
       <use xlink:href="#DejaVuSans-30" transform="translate(254.492188 0)"/>
      </g>
     </g>
    </g>
    <g id="ytick_3">
     <g id="line2d_10">
      <g>
       <use xlink:href="#ma3e874fda2" x="57.6" y="227.693553" style="stroke: #000000; stroke-width: 0.8"/>
      </g>
     </g>
     <g id="text_11">
      <!-- 90000 -->
      <g transform="translate(18.7875 231.492772) scale(0.1 -0.1)">
       <defs>
        <path id="DejaVuSans-39" d="M 703 97 
L 703 672 
Q 941 559 1184 500 
Q 1428 441 1663 441 
Q 2288 441 2617 861 
Q 2947 1281 2994 2138 
Q 2813 1869 2534 1725 
Q 2256 1581 1919 1581 
Q 1219 1581 811 2004 
Q 403 2428 403 3163 
Q 403 3881 828 4315 
Q 1253 4750 1959 4750 
Q 2769 4750 3195 4129 
Q 3622 3509 3622 2328 
Q 3622 1225 3098 567 
Q 2575 -91 1691 -91 
Q 1453 -91 1209 -44 
Q 966 3 703 97 
z
M 1959 2075 
Q 2384 2075 2632 2365 
Q 2881 2656 2881 3163 
Q 2881 3666 2632 3958 
Q 2384 4250 1959 4250 
Q 1534 4250 1286 3958 
Q 1038 3666 1038 3163 
Q 1038 2656 1286 2365 
Q 1534 2075 1959 2075 
z
" transform="scale(0.015625)"/>
       </defs>
       <use xlink:href="#DejaVuSans-39"/>
       <use xlink:href="#DejaVuSans-30" transform="translate(63.623047 0)"/>
       <use xlink:href="#DejaVuSans-30" transform="translate(127.246094 0)"/>
       <use xlink:href="#DejaVuSans-30" transform="translate(190.869141 0)"/>
       <use xlink:href="#DejaVuSans-30" transform="translate(254.492188 0)"/>
      </g>
     </g>
    </g>
    <g id="ytick_4">
     <g id="line2d_11">
      <g>
       <use xlink:href="#ma3e874fda2" x="57.6" y="188.929884" style="stroke: #000000; stroke-width: 0.8"/>
      </g>
     </g>
     <g id="text_12">
      <!-- 95000 -->
      <g transform="translate(18.7875 192.729103) scale(0.1 -0.1)">
       <use xlink:href="#DejaVuSans-39"/>
       <use xlink:href="#DejaVuSans-35" transform="translate(63.623047 0)"/>
       <use xlink:href="#DejaVuSans-30" transform="translate(127.246094 0)"/>
       <use xlink:href="#DejaVuSans-30" transform="translate(190.869141 0)"/>
       <use xlink:href="#DejaVuSans-30" transform="translate(254.492188 0)"/>
      </g>
     </g>
    </g>
    <g id="ytick_5">
     <g id="line2d_12">
      <g>
       <use xlink:href="#ma3e874fda2" x="57.6" y="150.166215" style="stroke: #000000; stroke-width: 0.8"/>
      </g>
     </g>
     <g id="text_13">
      <!-- 100000 -->
      <g transform="translate(12.425 153.965434) scale(0.1 -0.1)">
       <use xlink:href="#DejaVuSans-31"/>
       <use xlink:href="#DejaVuSans-30" transform="translate(63.623047 0)"/>
       <use xlink:href="#DejaVuSans-30" transform="translate(127.246094 0)"/>
       <use xlink:href="#DejaVuSans-30" transform="translate(190.869141 0)"/>
       <use xlink:href="#DejaVuSans-30" transform="translate(254.492188 0)"/>
       <use xlink:href="#DejaVuSans-30" transform="translate(318.115234 0)"/>
      </g>
     </g>
    </g>
    <g id="ytick_6">
     <g id="line2d_13">
      <g>
       <use xlink:href="#ma3e874fda2" x="57.6" y="111.402546" style="stroke: #000000; stroke-width: 0.8"/>
      </g>
     </g>
     <g id="text_14">
      <!-- 105000 -->
      <g transform="translate(12.425 115.201765) scale(0.1 -0.1)">
       <use xlink:href="#DejaVuSans-31"/>
       <use xlink:href="#DejaVuSans-30" transform="translate(63.623047 0)"/>
       <use xlink:href="#DejaVuSans-35" transform="translate(127.246094 0)"/>
       <use xlink:href="#DejaVuSans-30" transform="translate(190.869141 0)"/>
       <use xlink:href="#DejaVuSans-30" transform="translate(254.492188 0)"/>
       <use xlink:href="#DejaVuSans-30" transform="translate(318.115234 0)"/>
      </g>
     </g>
    </g>
    <g id="ytick_7">
     <g id="line2d_14">
      <g>
       <use xlink:href="#ma3e874fda2" x="57.6" y="72.638877" style="stroke: #000000; stroke-width: 0.8"/>
      </g>
     </g>
     <g id="text_15">
      <!-- 110000 -->
      <g transform="translate(12.425 76.438096) scale(0.1 -0.1)">
       <use xlink:href="#DejaVuSans-31"/>
       <use xlink:href="#DejaVuSans-31" transform="translate(63.623047 0)"/>
       <use xlink:href="#DejaVuSans-30" transform="translate(127.246094 0)"/>
       <use xlink:href="#DejaVuSans-30" transform="translate(190.869141 0)"/>
       <use xlink:href="#DejaVuSans-30" transform="translate(254.492188 0)"/>
       <use xlink:href="#DejaVuSans-30" transform="translate(318.115234 0)"/>
      </g>
     </g>
    </g>
    <g id="text_16">
     <!-- loss -->
     <g transform="translate(6.345312 184.185812) rotate(-90) scale(0.1 -0.1)">
      <defs>
       <path id="DejaVuSans-6c" d="M 603 4863 
L 1178 4863 
L 1178 0 
L 603 0 
L 603 4863 
z
" transform="scale(0.015625)"/>
      </defs>
      <use xlink:href="#DejaVuSans-6c"/>
      <use xlink:href="#DejaVuSans-6f" transform="translate(27.783203 0)"/>
      <use xlink:href="#DejaVuSans-73" transform="translate(88.964844 0)"/>
      <use xlink:href="#DejaVuSans-73" transform="translate(141.064453 0)"/>
     </g>
    </g>
   </g>
   <g id="line2d_15">
    <path d="M 73.832727 53.568 
L 74.96 164.534756 
L 76.087273 205.203781 
L 77.214545 216.877339 
L 78.341818 220.383876 
L 79.469091 224.63837 
L 80.596364 226.039677 
L 81.723636 228.011112 
L 82.850909 229.431377 
L 83.978182 232.729862 
L 85.105455 233.946436 
L 86.232727 236.002667 
L 87.36 236.870488 
L 88.487273 226.916887 
L 89.614545 237.660237 
L 90.741818 241.310443 
L 91.869091 241.898681 
L 92.996364 242.185896 
L 94.123636 244.215295 
L 95.250909 246.47879 
L 96.378182 245.298013 
L 97.505455 247.60857 
L 99.76 250.857147 
L 102.014545 251.069257 
L 103.141818 253.822386 
L 104.269091 253.69919 
L 105.396364 254.239277 
L 106.523636 255.480078 
L 107.650909 256.159108 
L 108.778182 257.194825 
L 109.905455 257.530979 
L 111.032727 258.08427 
L 112.16 259.240699 
L 113.287273 259.86437 
L 114.414545 260.796454 
L 115.541818 260.482953 
L 116.669091 260.566477 
L 117.796364 261.717394 
L 118.923636 262.260146 
L 121.178182 263.061404 
L 123.432727 264.453504 
L 124.56 264.355504 
L 125.687273 264.825211 
L 126.814545 265.992603 
L 127.941818 243.440264 
L 129.069091 265.838578 
L 130.196364 266.984771 
L 132.450909 266.803551 
L 133.578182 267.088404 
L 134.705455 267.777186 
L 135.832727 267.564046 
L 136.96 268.364334 
L 138.087273 267.853078 
L 139.214545 269.608042 
L 140.341818 269.294904 
L 141.469091 269.829237 
L 142.596364 269.513858 
L 143.723636 269.578666 
L 144.850909 270.282167 
L 145.978182 270.306152 
L 147.105455 270.47229 
L 148.232727 270.848964 
L 149.36 271.399287 
L 151.614545 270.996508 
L 152.741818 271.700553 
L 154.996364 272.764132 
L 156.123636 271.406071 
L 157.250909 272.565044 
L 158.378182 273.298101 
L 159.505455 274.188151 
L 160.632727 272.456021 
L 161.76 273.955145 
L 162.887273 273.969621 
L 164.014545 273.610997 
L 165.141818 273.794397 
L 166.269091 275.10685 
L 167.396364 273.730558 
L 168.523636 274.6538 
L 169.650909 274.300445 
L 170.778182 276.013314 
L 171.905455 275.431799 
L 173.032727 274.205777 
L 174.16 275.962922 
L 175.287273 275.78903 
L 176.414545 276.032333 
L 177.541818 275.640275 
L 178.669091 275.778189 
L 179.796364 276.514517 
L 180.923636 276.225182 
L 182.050909 262.444092 
L 183.178182 277.762404 
L 184.305455 276.993672 
L 185.432727 276.501797 
L 186.56 276.907483 
L 187.687273 278.079903 
L 188.814545 277.098758 
L 189.941818 276.921959 
L 191.069091 277.162233 
L 192.196364 278.282261 
L 193.323636 277.796988 
L 194.450909 278.46554 
L 195.578182 277.486818 
L 196.705455 278.595883 
L 197.832727 277.486273 
L 198.96 277.62025 
L 200.087273 278.541917 
L 201.214545 278.18196 
L 202.341818 277.639874 
L 203.469091 278.966743 
L 204.596364 279.124826 
L 205.723636 278.858871 
L 206.850909 279.007626 
L 207.978182 278.731496 
L 209.105455 279.487327 
L 210.232727 278.890124 
L 211.36 279.646984 
L 212.487273 278.321267 
L 213.614545 280.894993 
L 214.741818 279.636022 
L 215.869091 280.224079 
L 216.996364 279.486963 
L 218.123636 279.683992 
L 219.250909 280.295791 
L 220.378182 279.253412 
L 221.505455 280.355996 
L 222.632727 280.398152 
L 223.76 280.812014 
L 226.014545 280.443275 
L 227.141818 279.93111 
L 228.269091 280.569741 
L 229.396364 281.467787 
L 230.523636 281.260643 
L 231.650909 281.599825 
L 232.778182 281.344167 
L 233.905455 280.597724 
L 235.032727 281.585955 
L 236.16 263.557033 
L 237.287273 284.4346 
L 238.414545 283.42941 
L 239.541818 282.220347 
L 240.669091 282.10339 
L 241.796364 282.161172 
L 242.923636 281.597221 
L 244.050909 282.479761 
L 245.178182 282.32513 
L 246.305455 282.566676 
L 247.432727 281.689103 
L 248.56 282.068623 
L 249.687273 282.0086 
L 250.814545 282.792535 
L 253.069091 282.082191 
L 254.196364 282.635663 
L 255.323636 281.27306 
L 256.450909 282.54893 
L 257.578182 282.128828 
L 258.705455 283.27914 
L 259.832727 282.403384 
L 260.96 283.481378 
L 262.087273 282.582908 
L 263.214545 283.272175 
L 264.341818 282.626639 
L 265.469091 282.252811 
L 266.596364 283.241709 
L 267.723636 283.42941 
L 269.978182 283.086957 
L 271.105455 283.709962 
L 272.232727 283.327595 
L 273.36 283.302943 
L 274.487273 282.963943 
L 275.614545 283.842728 
L 276.741818 284.091602 
L 277.869091 284.455739 
L 278.996364 282.518948 
L 280.123636 283.177991 
L 281.250909 283.565688 
L 282.378182 283.508633 
L 283.505455 284.210377 
L 284.632727 285.195761 
L 285.76 282.550747 
L 286.887273 284.340477 
L 288.014545 284.20329 
L 289.141818 283.787065 
L 290.269091 264.014505 
L 291.396364 286.131177 
L 292.523636 285.449845 
L 294.778182 285.170202 
L 295.905455 284.609703 
L 297.032727 283.649636 
L 298.16 285.491455 
L 299.287273 284.524423 
L 300.414545 284.366522 
L 301.541818 284.897644 
L 302.669091 284.451378 
L 303.796364 285.073656 
L 304.923636 284.978685 
L 306.050909 284.157561 
L 307.178182 284.895525 
L 308.305455 284.549014 
L 309.432727 285.058029 
L 310.56 284.467973 
L 312.814545 285.570679 
L 313.941818 284.239571 
L 315.069091 285.305208 
L 316.196364 284.876143 
L 317.323636 285.5026 
L 318.450909 285.335068 
L 319.578182 284.124794 
L 320.705455 284.451559 
L 321.832727 286.783194 
L 322.96 285.369653 
L 324.087273 284.46016 
L 325.214545 285.640272 
L 326.341818 285.490062 
L 327.469091 286.550006 
L 328.596364 283.735219 
L 329.723636 286.513787 
L 330.850909 285.957165 
L 331.978182 284.836652 
L 333.105455 285.412232 
L 334.232727 285.794599 
L 335.36 285.596299 
L 336.487273 286.249285 
L 337.614545 286.188354 
L 338.741818 285.178863 
L 339.869091 286.242441 
L 340.996364 285.864677 
L 342.123636 286.202648 
L 343.250909 286.00253 
L 343.250909 286.00253 
" clip-path="url(#p69b19fc855)" style="fill: none; stroke: #1f77b4; stroke-width: 1.5; stroke-linecap: square"/>
   </g>
   <g id="line2d_16">
    <path d="M 73.832727 71.558522 
L 74.96 169.906311 
L 76.087273 214.633528 
L 77.214545 226.447725 
L 78.341818 232.486681 
L 79.469091 237.154129 
L 80.596364 238.902371 
L 81.723636 242.363724 
L 82.850909 243.239056 
L 83.978182 247.070784 
L 85.105455 248.815695 
L 86.232727 249.855954 
L 87.36 252.070571 
L 88.487273 252.437735 
L 89.614545 254.478703 
L 90.741818 255.290802 
L 91.869091 256.673696 
L 92.996364 256.619972 
L 94.123636 258.634593 
L 95.250909 259.806709 
L 96.378182 259.661587 
L 97.505455 261.038909 
L 98.632727 261.816181 
L 100.887273 262.29255 
L 102.014545 264.742657 
L 103.141818 264.326734 
L 104.269091 264.764461 
L 105.396364 266.253047 
L 106.523636 266.1777 
L 107.650909 266.988708 
L 108.778182 267.068477 
L 109.905455 268.019216 
L 111.032727 268.447979 
L 112.16 269.081462 
L 113.287273 268.556214 
L 114.414545 269.06741 
L 115.541818 269.30514 
L 116.669091 268.90327 
L 117.796364 271.817692 
L 118.923636 271.46997 
L 120.050909 271.769238 
L 121.178182 272.315684 
L 122.305455 270.983486 
L 123.432727 272.168564 
L 124.56 272.224408 
L 125.687273 272.613014 
L 126.814545 273.153949 
L 127.941818 274.104991 
L 129.069091 252.338222 
L 130.196364 273.09653 
L 131.323636 275.096372 
L 132.450909 275.662382 
L 133.578182 274.700013 
L 134.705455 276.0992 
L 135.832727 274.817697 
L 136.96 276.283873 
L 138.087273 274.902554 
L 139.214545 275.568865 
L 140.341818 275.672376 
L 141.469091 277.301964 
L 142.596364 276.311855 
L 143.723636 275.733671 
L 144.850909 277.019413 
L 147.105455 277.597113 
L 148.232727 276.3955 
L 149.36 277.083131 
L 150.487273 278.307215 
L 151.614545 277.518253 
L 152.741818 278.112064 
L 153.869091 277.553746 
L 154.996364 278.091471 
L 156.123636 278.118908 
L 157.250909 278.61581 
L 158.378182 278.093409 
L 159.505455 278.823559 
L 160.632727 279.26813 
L 161.76 278.672381 
L 162.887273 279.160076 
L 164.014545 278.843426 
L 165.141818 279.041605 
L 166.269091 278.88443 
L 167.396364 280.071507 
L 168.523636 280.25733 
L 169.650909 279.166012 
L 171.905455 281.015463 
L 173.032727 279.102234 
L 174.16 280.304513 
L 175.287273 280.999594 
L 176.414545 279.797254 
L 177.541818 280.302938 
L 178.669091 281.562818 
L 179.796364 280.747873 
L 180.923636 279.734384 
L 182.050909 281.651853 
L 183.178182 250.694642 
L 184.305455 272.808952 
L 185.432727 278.449369 
L 186.56 282.324403 
L 187.687273 281.724172 
L 188.814545 282.348933 
L 189.941818 281.744038 
L 191.069091 281.406189 
L 192.196364 281.570874 
L 193.323636 281.944156 
L 194.450909 281.48202 
L 195.578182 283.520929 
L 196.705455 281.353918 
L 197.832727 282.312895 
L 198.96 282.208294 
L 201.214545 281.706244 
L 202.341818 282.467405 
L 203.469091 282.410531 
L 204.596364 282.045668 
L 206.850909 282.968243 
L 207.978182 281.414184 
L 209.105455 282.776545 
L 210.232727 283.35697 
L 211.36 283.442796 
L 212.487273 283.045468 
L 214.741818 281.629625 
L 215.869091 282.941775 
L 218.123636 283.408211 
L 219.250909 283.942544 
L 221.505455 283.188591 
L 222.632727 281.928105 
L 223.76 284.79274 
L 224.887273 284.316553 
L 226.014545 282.470251 
L 228.269091 283.536797 
L 229.396364 284.277062 
L 230.523636 284.204259 
L 231.650909 284.460463 
L 232.778182 283.13305 
L 233.905455 284.192812 
L 235.032727 284.805581 
L 236.16 284.863181 
L 237.287273 265.579952 
L 238.414545 288.288739 
L 239.541818 287.351203 
L 240.669091 285.894598 
L 241.796364 284.838833 
L 242.923636 285.309932 
L 244.050909 285.36614 
L 245.178182 285.752323 
L 246.305455 285.199214 
L 247.432727 285.099034 
L 248.56 282.80586 
L 249.687273 285.33634 
L 250.814545 284.40686 
L 251.941818 285.691209 
L 253.069091 284.866876 
L 254.196364 283.862715 
L 255.323636 285.149608 
L 256.450909 283.950842 
L 257.578182 285.565167 
L 258.705455 284.9931 
L 259.832727 285.258813 
L 260.96 283.696092 
L 262.087273 285.296971 
L 263.214545 284.772692 
L 265.469091 285.174623 
L 266.596364 285.825005 
L 267.723636 285.369229 
L 272.232727 284.684687 
L 273.36 285.64227 
L 274.487273 285.881454 
L 276.741818 285.496483 
L 277.869091 286.154193 
L 280.123636 285.08153 
L 281.250909 285.131741 
L 282.378182 286.735769 
L 283.505455 285.483824 
L 284.632727 286.292652 
L 285.76 285.279648 
L 286.887273 286.173151 
L 288.014545 286.25722 
L 289.141818 285.679883 
L 290.269091 285.779215 
L 291.396364 77.599234 
L 292.523636 167.201697 
L 293.650909 212.187056 
L 294.778182 221.956712 
L 298.16 235.858575 
L 299.287273 235.005895 
L 300.414545 242.269662 
L 301.541818 243.820027 
L 302.669091 246.455653 
L 303.796364 248.748343 
L 304.923636 250.092412 
L 306.050909 251.973056 
L 307.178182 253.392109 
L 308.305455 255.503881 
L 309.432727 256.82972 
L 310.56 259.772548 
L 311.687273 260.481681 
L 312.814545 261.685112 
L 313.941818 263.195926 
L 315.069091 264.98608 
L 316.196364 264.328006 
L 317.323636 267.427889 
L 318.450909 267.271501 
L 319.578182 269.295147 
L 320.705455 269.356623 
L 321.832727 271.366762 
L 322.96 271.440958 
L 324.087273 271.236722 
L 325.214545 273.173331 
L 326.341818 272.928998 
L 327.469091 274.975781 
L 328.596364 275.681522 
L 329.723636 273.940003 
L 330.850909 276.015616 
L 331.978182 275.937968 
L 334.232727 277.665979 
L 336.487273 278.968015 
L 337.614545 279.189997 
L 338.741818 278.70315 
L 339.869091 278.766262 
L 340.996364 279.90343 
L 342.123636 281.559729 
L 343.250909 280.295488 
L 344.378182 280.13147 
L 345.505455 232.033267 
L 346.632727 280.168416 
L 347.76 289.899854 
L 348.887273 289.904941 
L 350.014545 289.132636 
L 351.141818 288.214603 
L 352.269091 288.191527 
L 353.396364 285.283101 
L 354.523636 286.775441 
L 355.650909 287.243331 
L 356.778182 285.410536 
L 357.905455 287.990137 
L 359.032727 286.441589 
L 360.16 287.428185 
L 361.287273 286.825895 
L 362.414545 285.574737 
L 363.541818 286.826924 
L 364.669091 286.36915 
L 365.796364 287.621822 
L 366.923636 286.687981 
L 368.050909 287.373371 
L 369.178182 285.48128 
L 370.305455 287.187063 
L 371.432727 287.601653 
L 372.56 282.632998 
L 373.687273 286.834556 
L 374.814545 286.580593 
L 375.941818 287.963063 
L 377.069091 286.528262 
L 378.196364 286.177633 
L 379.323636 286.958236 
L 380.450909 286.694704 
L 381.578182 286.892702 
L 382.705455 287.894924 
L 383.832727 287.644898 
L 384.96 286.248922 
L 386.087273 287.311894 
L 387.214545 287.611404 
L 388.341818 285.189402 
L 389.469091 286.540316 
L 390.596364 289.080184 
L 391.723636 286.550249 
L 392.850909 286.811661 
L 393.978182 287.343571 
L 395.105455 286.106586 
L 396.232727 288.356454 
L 397.36 287.436968 
L 398.487273 287.519159 
L 398.487273 287.519159 
" clip-path="url(#p69b19fc855)" style="fill: none; stroke: #ff7f0e; stroke-width: 1.5; stroke-linecap: square"/>
   </g>
   <g id="line2d_17">
    <path d="M 73.832727 66.603071 
L 74.96 157.390976 
L 76.087273 211.232379 
L 77.214545 220.992829 
L 79.469091 231.112872 
L 80.596364 233.736082 
L 81.723636 237.725772 
L 82.850909 240.387625 
L 83.978182 242.565174 
L 85.105455 245.009345 
L 86.232727 246.339302 
L 87.36 248.11916 
L 88.487273 250.657393 
L 89.614545 251.190938 
L 90.741818 254.289004 
L 91.869091 254.411291 
L 92.996364 256.203323 
L 94.123636 258.352526 
L 95.250909 259.964368 
L 96.378182 260.489131 
L 97.505455 262.158452 
L 98.632727 262.049006 
L 99.76 264.511225 
L 100.887273 264.823515 
L 102.014545 265.788488 
L 104.269091 268.691887 
L 105.396364 267.671918 
L 106.523636 269.522217 
L 107.650909 269.283336 
L 108.778182 270.687186 
L 109.905455 271.57439 
L 111.032727 271.971899 
L 112.16 273.015914 
L 113.287273 272.68933 
L 114.414545 273.913232 
L 115.541818 272.804107 
L 116.669091 274.683418 
L 117.796364 274.767971 
L 118.923636 275.549967 
L 120.050909 275.733913 
L 121.178182 276.038329 
L 122.305455 275.324956 
L 123.432727 276.854849 
L 124.56 276.776232 
L 125.687273 277.92297 
L 126.814545 277.89632 
L 127.941818 230.940979 
L 129.069091 265.852388 
L 130.196364 274.167255 
L 131.323636 278.312 
L 132.450909 277.731938 
L 133.578182 279.580238 
L 134.705455 279.574363 
L 136.96 279.107503 
L 138.087273 279.722816 
L 139.214545 280.056547 
L 140.341818 279.450077 
L 141.469091 281.15477 
L 142.596364 281.194624 
L 143.723636 278.885036 
L 144.850909 281.950939 
L 145.978182 281.101773 
L 147.105455 282.303204 
L 148.232727 281.064099 
L 149.36 282.291817 
L 150.487273 282.437726 
L 151.614545 281.895095 
L 152.741818 281.61848 
L 153.869091 282.810645 
L 154.996364 281.515514 
L 156.123636 283.074662 
L 157.250909 284.288631 
L 158.378182 283.343282 
L 159.505455 283.940485 
L 160.632727 282.639903 
L 161.76 284.601829 
L 162.887273 283.891303 
L 164.014545 282.989139 
L 165.141818 284.753432 
L 166.269091 284.280212 
L 167.396364 285.283767 
L 168.523636 283.691004 
L 169.650909 284.907578 
L 170.778182 284.472213 
L 171.905455 284.211164 
L 173.032727 285.761771 
L 174.16 285.545058 
L 175.287273 285.925548 
L 176.414545 283.863684 
L 177.541818 286.211612 
L 178.669091 285.161601 
L 179.796364 286.729167 
L 180.923636 286.412335 
L 182.050909 266.713426 
L 183.178182 289.564851 
L 184.305455 287.556529 
L 185.432727 287.972815 
L 186.56 286.852545 
L 187.687273 287.982748 
L 188.814545 287.253991 
L 189.941818 287.798923 
L 191.069091 287.652833 
L 192.196364 284.838288 
L 193.323636 287.52467 
L 194.450909 286.53438 
L 195.578182 287.694988 
L 196.705455 287.907765 
L 197.832727 286.222514 
L 198.96 288.522229 
L 200.087273 288.068937 
L 201.214545 287.026557 
L 202.341818 287.965668 
L 203.469091 287.167742 
L 204.596364 288.536342 
L 205.723636 287.884506 
L 206.850909 287.889957 
L 207.978182 288.146343 
L 209.105455 289.181212 
L 210.232727 286.970108 
L 211.36 288.353365 
L 212.487273 288.641185 
L 213.614545 288.809444 
L 214.741818 288.277352 
L 215.869091 289.083152 
L 216.996364 288.357968 
L 218.123636 289.875748 
L 219.250909 289.133302 
L 220.378182 285.363535 
L 221.505455 290.50487 
L 222.632727 288.603148 
L 223.76 289.480237 
L 224.887273 289.754308 
L 226.014545 289.722147 
L 227.141818 290.253209 
L 228.269091 287.038005 
L 229.396364 289.794283 
L 230.523636 290.44836 
L 232.778182 289.024037 
L 233.905455 290.021414 
L 235.032727 288.306182 
L 236.16 267.845567 
L 237.287273 291.020184 
L 238.414545 291.138292 
L 239.541818 290.320076 
L 240.669091 288.960986 
L 241.796364 289.654552 
L 242.923636 290.933087 
L 244.050909 289.64262 
L 245.178182 289.843949 
L 246.305455 290.169806 
L 248.56 289.80034 
L 249.687273 290.630064 
L 250.814545 289.68623 
L 251.941818 288.139801 
L 253.069091 291.427687 
L 254.196364 290.538485 
L 255.323636 290.710196 
L 256.450909 289.841103 
L 257.578182 289.272306 
L 258.705455 291.18602 
L 259.832727 291.179297 
L 260.96 289.329967 
L 262.087273 291.687162 
L 263.214545 290.207601 
L 264.341818 289.343716 
L 265.469091 290.652051 
L 266.596364 289.953759 
L 267.723636 291.306733 
L 268.850909 289.810273 
L 269.978182 291.273178 
L 271.105455 291.98219 
L 272.232727 290.114629 
L 273.36 291.103223 
L 274.487273 288.400972 
L 275.614545 291.447735 
L 276.741818 291.547249 
L 277.869091 290.830545 
L 278.996364 291.74458 
L 280.123636 290.557806 
L 281.250909 291.479413 
L 282.378182 291.026181 
L 283.505455 291.691583 
L 284.632727 291.088263 
L 285.76 291.28832 
L 286.887273 291.993758 
L 288.014545 290.158783 
L 289.141818 291.904541 
L 290.269091 263.270061 
L 291.396364 294.775051 
L 292.523636 293.244553 
L 293.650909 292.593141 
L 294.778182 291.172574 
L 295.905455 293.705295 
L 297.032727 292.475215 
L 298.16 292.177038 
L 299.287273 291.574747 
L 300.414545 293.391673 
L 301.541818 292.756676 
L 302.669091 291.023697 
L 303.796364 291.492677 
L 304.923636 292.506226 
L 306.050909 291.083115 
L 307.178182 292.241058 
L 308.305455 291.482138 
L 309.432727 291.89594 
L 310.56 292.632571 
L 311.687273 291.756512 
L 312.814545 292.837413 
L 313.941818 293.272293 
L 315.069091 291.085235 
L 316.196364 291.556274 
L 317.323636 293.047464 
L 318.450909 291.690796 
L 319.578182 292.427608 
L 320.705455 292.546443 
L 321.832727 292.359409 
L 322.96 292.340148 
L 324.087273 293.138861 
L 325.214545 291.560514 
L 326.341818 293.450909 
L 327.469091 292.887866 
L 328.596364 291.842338 
L 329.723636 293.195614 
L 330.850909 292.018652 
L 331.978182 293.158727 
L 333.105455 293.208878 
L 334.232727 291.202434 
L 335.36 292.828509 
L 336.487273 292.191513 
L 337.614545 294.092447 
L 338.741818 292.203809 
L 339.869091 292.058566 
L 340.996364 292.982777 
L 342.123636 291.94064 
L 343.250909 293.707476 
L 344.378182 274.204081 
L 345.505455 294.98807 
L 346.632727 294.762938 
L 347.76 293.145584 
L 348.887273 294.348772 
L 350.014545 292.118044 
L 351.141818 294.55749 
L 352.269091 292.234275 
L 353.396364 293.80917 
L 354.523636 293.133228 
L 355.650909 293.552421 
L 356.778182 293.58961 
L 357.905455 294.342473 
L 359.032727 291.082994 
L 360.16 292.414586 
L 361.287273 294.610609 
L 362.414545 293.35406 
L 363.541818 292.452199 
L 364.669091 293.449818 
L 365.796364 293.007791 
L 366.923636 294.319578 
L 368.050909 294.06071 
L 369.178182 290.613105 
L 370.305455 293.607114 
L 371.432727 294.0171 
L 372.56 295.488 
L 373.687273 291.705393 
L 374.814545 294.491834 
L 375.941818 292.822937 
L 377.069091 292.44802 
L 378.196364 294.098444 
L 379.323636 294.664575 
L 380.450909 294.298198 
L 381.578182 292.80404 
L 382.705455 293.640003 
L 383.832727 294.08421 
L 384.96 292.935776 
L 386.087273 293.916254 
L 387.214545 293.504633 
L 388.341818 293.590821 
L 389.469091 292.742503 
L 390.596364 293.802992 
L 391.723636 293.562233 
L 392.850909 294.298016 
L 393.978182 294.175608 
L 395.105455 294.582323 
L 396.232727 293.744362 
L 397.36 294.663727 
L 397.36 294.663727 
" clip-path="url(#p69b19fc855)" style="fill: none; stroke: #2ca02c; stroke-width: 1.5; stroke-linecap: square"/>
   </g>
   <g id="patch_3">
    <path d="M 57.6 307.584 
L 57.6 41.472 
" style="fill: none; stroke: #000000; stroke-width: 0.8; stroke-linejoin: miter; stroke-linecap: square"/>
   </g>
   <g id="patch_4">
    <path d="M 414.72 307.584 
L 414.72 41.472 
" style="fill: none; stroke: #000000; stroke-width: 0.8; stroke-linejoin: miter; stroke-linecap: square"/>
   </g>
   <g id="patch_5">
    <path d="M 57.6 307.584 
L 414.72 307.584 
" style="fill: none; stroke: #000000; stroke-width: 0.8; stroke-linejoin: miter; stroke-linecap: square"/>
   </g>
   <g id="patch_6">
    <path d="M 57.6 41.472 
L 414.72 41.472 
" style="fill: none; stroke: #000000; stroke-width: 0.8; stroke-linejoin: miter; stroke-linecap: square"/>
   </g>
   <g id="text_17">
    <!-- Latent Space Size vs Accuracy Of Training -->
    <g transform="translate(110.320312 35.472) scale(0.12 -0.12)">
     <defs>
      <path id="DejaVuSans-4c" d="M 628 4666 
L 1259 4666 
L 1259 531 
L 3531 531 
L 3531 0 
L 628 0 
L 628 4666 
z
" transform="scale(0.015625)"/>
      <path id="DejaVuSans-61" d="M 2194 1759 
Q 1497 1759 1228 1600 
Q 959 1441 959 1056 
Q 959 750 1161 570 
Q 1363 391 1709 391 
Q 2188 391 2477 730 
Q 2766 1069 2766 1631 
L 2766 1759 
L 2194 1759 
z
M 3341 1997 
L 3341 0 
L 2766 0 
L 2766 531 
Q 2569 213 2275 61 
Q 1981 -91 1556 -91 
Q 1019 -91 701 211 
Q 384 513 384 1019 
Q 384 1609 779 1909 
Q 1175 2209 1959 2209 
L 2766 2209 
L 2766 2266 
Q 2766 2663 2505 2880 
Q 2244 3097 1772 3097 
Q 1472 3097 1187 3025 
Q 903 2953 641 2809 
L 641 3341 
Q 956 3463 1253 3523 
Q 1550 3584 1831 3584 
Q 2591 3584 2966 3190 
Q 3341 2797 3341 1997 
z
" transform="scale(0.015625)"/>
      <path id="DejaVuSans-74" d="M 1172 4494 
L 1172 3500 
L 2356 3500 
L 2356 3053 
L 1172 3053 
L 1172 1153 
Q 1172 725 1289 603 
Q 1406 481 1766 481 
L 2356 481 
L 2356 0 
L 1766 0 
Q 1100 0 847 248 
Q 594 497 594 1153 
L 594 3053 
L 172 3053 
L 172 3500 
L 594 3500 
L 594 4494 
L 1172 4494 
z
" transform="scale(0.015625)"/>
      <path id="DejaVuSans-6e" d="M 3513 2113 
L 3513 0 
L 2938 0 
L 2938 2094 
Q 2938 2591 2744 2837 
Q 2550 3084 2163 3084 
Q 1697 3084 1428 2787 
Q 1159 2491 1159 1978 
L 1159 0 
L 581 0 
L 581 3500 
L 1159 3500 
L 1159 2956 
Q 1366 3272 1645 3428 
Q 1925 3584 2291 3584 
Q 2894 3584 3203 3211 
Q 3513 2838 3513 2113 
z
" transform="scale(0.015625)"/>
      <path id="DejaVuSans-20" transform="scale(0.015625)"/>
      <path id="DejaVuSans-53" d="M 3425 4513 
L 3425 3897 
Q 3066 4069 2747 4153 
Q 2428 4238 2131 4238 
Q 1616 4238 1336 4038 
Q 1056 3838 1056 3469 
Q 1056 3159 1242 3001 
Q 1428 2844 1947 2747 
L 2328 2669 
Q 3034 2534 3370 2195 
Q 3706 1856 3706 1288 
Q 3706 609 3251 259 
Q 2797 -91 1919 -91 
Q 1588 -91 1214 -16 
Q 841 59 441 206 
L 441 856 
Q 825 641 1194 531 
Q 1563 422 1919 422 
Q 2459 422 2753 634 
Q 3047 847 3047 1241 
Q 3047 1584 2836 1778 
Q 2625 1972 2144 2069 
L 1759 2144 
Q 1053 2284 737 2584 
Q 422 2884 422 3419 
Q 422 4038 858 4394 
Q 1294 4750 2059 4750 
Q 2388 4750 2728 4690 
Q 3069 4631 3425 4513 
z
" transform="scale(0.015625)"/>
      <path id="DejaVuSans-69" d="M 603 3500 
L 1178 3500 
L 1178 0 
L 603 0 
L 603 3500 
z
M 603 4863 
L 1178 4863 
L 1178 4134 
L 603 4134 
L 603 4863 
z
" transform="scale(0.015625)"/>
      <path id="DejaVuSans-7a" d="M 353 3500 
L 3084 3500 
L 3084 2975 
L 922 459 
L 3084 459 
L 3084 0 
L 275 0 
L 275 525 
L 2438 3041 
L 353 3041 
L 353 3500 
z
" transform="scale(0.015625)"/>
      <path id="DejaVuSans-76" d="M 191 3500 
L 800 3500 
L 1894 563 
L 2988 3500 
L 3597 3500 
L 2284 0 
L 1503 0 
L 191 3500 
z
" transform="scale(0.015625)"/>
      <path id="DejaVuSans-41" d="M 2188 4044 
L 1331 1722 
L 3047 1722 
L 2188 4044 
z
M 1831 4666 
L 2547 4666 
L 4325 0 
L 3669 0 
L 3244 1197 
L 1141 1197 
L 716 0 
L 50 0 
L 1831 4666 
z
" transform="scale(0.015625)"/>
      <path id="DejaVuSans-75" d="M 544 1381 
L 544 3500 
L 1119 3500 
L 1119 1403 
Q 1119 906 1312 657 
Q 1506 409 1894 409 
Q 2359 409 2629 706 
Q 2900 1003 2900 1516 
L 2900 3500 
L 3475 3500 
L 3475 0 
L 2900 0 
L 2900 538 
Q 2691 219 2414 64 
Q 2138 -91 1772 -91 
Q 1169 -91 856 284 
Q 544 659 544 1381 
z
M 1991 3584 
L 1991 3584 
z
" transform="scale(0.015625)"/>
      <path id="DejaVuSans-72" d="M 2631 2963 
Q 2534 3019 2420 3045 
Q 2306 3072 2169 3072 
Q 1681 3072 1420 2755 
Q 1159 2438 1159 1844 
L 1159 0 
L 581 0 
L 581 3500 
L 1159 3500 
L 1159 2956 
Q 1341 3275 1631 3429 
Q 1922 3584 2338 3584 
Q 2397 3584 2469 3576 
Q 2541 3569 2628 3553 
L 2631 2963 
z
" transform="scale(0.015625)"/>
      <path id="DejaVuSans-79" d="M 2059 -325 
Q 1816 -950 1584 -1140 
Q 1353 -1331 966 -1331 
L 506 -1331 
L 506 -850 
L 844 -850 
Q 1081 -850 1212 -737 
Q 1344 -625 1503 -206 
L 1606 56 
L 191 3500 
L 800 3500 
L 1894 763 
L 2988 3500 
L 3597 3500 
L 2059 -325 
z
" transform="scale(0.015625)"/>
      <path id="DejaVuSans-4f" d="M 2522 4238 
Q 1834 4238 1429 3725 
Q 1025 3213 1025 2328 
Q 1025 1447 1429 934 
Q 1834 422 2522 422 
Q 3209 422 3611 934 
Q 4013 1447 4013 2328 
Q 4013 3213 3611 3725 
Q 3209 4238 2522 4238 
z
M 2522 4750 
Q 3503 4750 4090 4092 
Q 4678 3434 4678 2328 
Q 4678 1225 4090 567 
Q 3503 -91 2522 -91 
Q 1538 -91 948 565 
Q 359 1222 359 2328 
Q 359 3434 948 4092 
Q 1538 4750 2522 4750 
z
" transform="scale(0.015625)"/>
      <path id="DejaVuSans-66" d="M 2375 4863 
L 2375 4384 
L 1825 4384 
Q 1516 4384 1395 4259 
Q 1275 4134 1275 3809 
L 1275 3500 
L 2222 3500 
L 2222 3053 
L 1275 3053 
L 1275 0 
L 697 0 
L 697 3053 
L 147 3053 
L 147 3500 
L 697 3500 
L 697 3744 
Q 697 4328 969 4595 
Q 1241 4863 1831 4863 
L 2375 4863 
z
" transform="scale(0.015625)"/>
      <path id="DejaVuSans-54" d="M -19 4666 
L 3928 4666 
L 3928 4134 
L 2272 4134 
L 2272 0 
L 1638 0 
L 1638 4134 
L -19 4134 
L -19 4666 
z
" transform="scale(0.015625)"/>
      <path id="DejaVuSans-67" d="M 2906 1791 
Q 2906 2416 2648 2759 
Q 2391 3103 1925 3103 
Q 1463 3103 1205 2759 
Q 947 2416 947 1791 
Q 947 1169 1205 825 
Q 1463 481 1925 481 
Q 2391 481 2648 825 
Q 2906 1169 2906 1791 
z
M 3481 434 
Q 3481 -459 3084 -895 
Q 2688 -1331 1869 -1331 
Q 1566 -1331 1297 -1286 
Q 1028 -1241 775 -1147 
L 775 -588 
Q 1028 -725 1275 -790 
Q 1522 -856 1778 -856 
Q 2344 -856 2625 -561 
Q 2906 -266 2906 331 
L 2906 616 
Q 2728 306 2450 153 
Q 2172 0 1784 0 
Q 1141 0 747 490 
Q 353 981 353 1791 
Q 353 2603 747 3093 
Q 1141 3584 1784 3584 
Q 2172 3584 2450 3431 
Q 2728 3278 2906 2969 
L 2906 3500 
L 3481 3500 
L 3481 434 
z
" transform="scale(0.015625)"/>
     </defs>
     <use xlink:href="#DejaVuSans-4c"/>
     <use xlink:href="#DejaVuSans-61" transform="translate(55.712891 0)"/>
     <use xlink:href="#DejaVuSans-74" transform="translate(116.992188 0)"/>
     <use xlink:href="#DejaVuSans-65" transform="translate(156.201172 0)"/>
     <use xlink:href="#DejaVuSans-6e" transform="translate(217.724609 0)"/>
     <use xlink:href="#DejaVuSans-74" transform="translate(281.103516 0)"/>
     <use xlink:href="#DejaVuSans-20" transform="translate(320.3125 0)"/>
     <use xlink:href="#DejaVuSans-53" transform="translate(352.099609 0)"/>
     <use xlink:href="#DejaVuSans-70" transform="translate(415.576172 0)"/>
     <use xlink:href="#DejaVuSans-61" transform="translate(479.052734 0)"/>
     <use xlink:href="#DejaVuSans-63" transform="translate(540.332031 0)"/>
     <use xlink:href="#DejaVuSans-65" transform="translate(595.3125 0)"/>
     <use xlink:href="#DejaVuSans-20" transform="translate(656.835938 0)"/>
     <use xlink:href="#DejaVuSans-53" transform="translate(688.623047 0)"/>
     <use xlink:href="#DejaVuSans-69" transform="translate(752.099609 0)"/>
     <use xlink:href="#DejaVuSans-7a" transform="translate(779.882812 0)"/>
     <use xlink:href="#DejaVuSans-65" transform="translate(832.373047 0)"/>
     <use xlink:href="#DejaVuSans-20" transform="translate(893.896484 0)"/>
     <use xlink:href="#DejaVuSans-76" transform="translate(925.683594 0)"/>
     <use xlink:href="#DejaVuSans-73" transform="translate(984.863281 0)"/>
     <use xlink:href="#DejaVuSans-20" transform="translate(1036.962891 0)"/>
     <use xlink:href="#DejaVuSans-41" transform="translate(1068.75 0)"/>
     <use xlink:href="#DejaVuSans-63" transform="translate(1135.408203 0)"/>
     <use xlink:href="#DejaVuSans-63" transform="translate(1190.388672 0)"/>
     <use xlink:href="#DejaVuSans-75" transform="translate(1245.369141 0)"/>
     <use xlink:href="#DejaVuSans-72" transform="translate(1308.748047 0)"/>
     <use xlink:href="#DejaVuSans-61" transform="translate(1349.861328 0)"/>
     <use xlink:href="#DejaVuSans-63" transform="translate(1411.140625 0)"/>
     <use xlink:href="#DejaVuSans-79" transform="translate(1466.121094 0)"/>
     <use xlink:href="#DejaVuSans-20" transform="translate(1525.300781 0)"/>
     <use xlink:href="#DejaVuSans-4f" transform="translate(1557.087891 0)"/>
     <use xlink:href="#DejaVuSans-66" transform="translate(1635.798828 0)"/>
     <use xlink:href="#DejaVuSans-20" transform="translate(1671.003906 0)"/>
     <use xlink:href="#DejaVuSans-54" transform="translate(1702.791016 0)"/>
     <use xlink:href="#DejaVuSans-72" transform="translate(1749.125 0)"/>
     <use xlink:href="#DejaVuSans-61" transform="translate(1790.238281 0)"/>
     <use xlink:href="#DejaVuSans-69" transform="translate(1851.517578 0)"/>
     <use xlink:href="#DejaVuSans-6e" transform="translate(1879.300781 0)"/>
     <use xlink:href="#DejaVuSans-69" transform="translate(1942.679688 0)"/>
     <use xlink:href="#DejaVuSans-6e" transform="translate(1970.462891 0)"/>
     <use xlink:href="#DejaVuSans-67" transform="translate(2033.841797 0)"/>
    </g>
   </g>
   <g id="legend_1">
    <g id="patch_7">
     <path d="M 319.137188 94.34075 
L 407.72 94.34075 
Q 409.72 94.34075 409.72 92.34075 
L 409.72 48.472 
Q 409.72 46.472 407.72 46.472 
L 319.137188 46.472 
Q 317.137188 46.472 317.137188 48.472 
L 317.137188 92.34075 
Q 317.137188 94.34075 319.137188 94.34075 
z
" style="fill: #ffffff; opacity: 0.8; stroke: #cccccc; stroke-linejoin: miter"/>
    </g>
    <g id="line2d_18">
     <path d="M 321.137188 54.570438 
L 331.137188 54.570438 
L 341.137188 54.570438 
" style="fill: none; stroke: #1f77b4; stroke-width: 1.5; stroke-linecap: square"/>
    </g>
    <g id="text_18">
     <!-- z_dim=10 -->
     <g transform="translate(349.137188 58.070438) scale(0.1 -0.1)">
      <defs>
       <path id="DejaVuSans-5f" d="M 3263 -1063 
L 3263 -1509 
L -63 -1509 
L -63 -1063 
L 3263 -1063 
z
" transform="scale(0.015625)"/>
       <path id="DejaVuSans-64" d="M 2906 2969 
L 2906 4863 
L 3481 4863 
L 3481 0 
L 2906 0 
L 2906 525 
Q 2725 213 2448 61 
Q 2172 -91 1784 -91 
Q 1150 -91 751 415 
Q 353 922 353 1747 
Q 353 2572 751 3078 
Q 1150 3584 1784 3584 
Q 2172 3584 2448 3432 
Q 2725 3281 2906 2969 
z
M 947 1747 
Q 947 1113 1208 752 
Q 1469 391 1925 391 
Q 2381 391 2643 752 
Q 2906 1113 2906 1747 
Q 2906 2381 2643 2742 
Q 2381 3103 1925 3103 
Q 1469 3103 1208 2742 
Q 947 2381 947 1747 
z
" transform="scale(0.015625)"/>
       <path id="DejaVuSans-6d" d="M 3328 2828 
Q 3544 3216 3844 3400 
Q 4144 3584 4550 3584 
Q 5097 3584 5394 3201 
Q 5691 2819 5691 2113 
L 5691 0 
L 5113 0 
L 5113 2094 
Q 5113 2597 4934 2840 
Q 4756 3084 4391 3084 
Q 3944 3084 3684 2787 
Q 3425 2491 3425 1978 
L 3425 0 
L 2847 0 
L 2847 2094 
Q 2847 2600 2669 2842 
Q 2491 3084 2119 3084 
Q 1678 3084 1418 2786 
Q 1159 2488 1159 1978 
L 1159 0 
L 581 0 
L 581 3500 
L 1159 3500 
L 1159 2956 
Q 1356 3278 1631 3431 
Q 1906 3584 2284 3584 
Q 2666 3584 2933 3390 
Q 3200 3197 3328 2828 
z
" transform="scale(0.015625)"/>
       <path id="DejaVuSans-3d" d="M 678 2906 
L 4684 2906 
L 4684 2381 
L 678 2381 
L 678 2906 
z
M 678 1631 
L 4684 1631 
L 4684 1100 
L 678 1100 
L 678 1631 
z
" transform="scale(0.015625)"/>
      </defs>
      <use xlink:href="#DejaVuSans-7a"/>
      <use xlink:href="#DejaVuSans-5f" transform="translate(52.490234 0)"/>
      <use xlink:href="#DejaVuSans-64" transform="translate(102.490234 0)"/>
      <use xlink:href="#DejaVuSans-69" transform="translate(165.966797 0)"/>
      <use xlink:href="#DejaVuSans-6d" transform="translate(193.75 0)"/>
      <use xlink:href="#DejaVuSans-3d" transform="translate(291.162109 0)"/>
      <use xlink:href="#DejaVuSans-31" transform="translate(374.951172 0)"/>
      <use xlink:href="#DejaVuSans-30" transform="translate(438.574219 0)"/>
     </g>
    </g>
    <g id="line2d_19">
     <path d="M 321.137188 69.526688 
L 331.137188 69.526688 
L 341.137188 69.526688 
" style="fill: none; stroke: #ff7f0e; stroke-width: 1.5; stroke-linecap: square"/>
    </g>
    <g id="text_19">
     <!-- z_dim=50 -->
     <g transform="translate(349.137188 73.026688) scale(0.1 -0.1)">
      <use xlink:href="#DejaVuSans-7a"/>
      <use xlink:href="#DejaVuSans-5f" transform="translate(52.490234 0)"/>
      <use xlink:href="#DejaVuSans-64" transform="translate(102.490234 0)"/>
      <use xlink:href="#DejaVuSans-69" transform="translate(165.966797 0)"/>
      <use xlink:href="#DejaVuSans-6d" transform="translate(193.75 0)"/>
      <use xlink:href="#DejaVuSans-3d" transform="translate(291.162109 0)"/>
      <use xlink:href="#DejaVuSans-35" transform="translate(374.951172 0)"/>
      <use xlink:href="#DejaVuSans-30" transform="translate(438.574219 0)"/>
     </g>
    </g>
    <g id="line2d_20">
     <path d="M 321.137188 84.482938 
L 331.137188 84.482938 
L 341.137188 84.482938 
" style="fill: none; stroke: #2ca02c; stroke-width: 1.5; stroke-linecap: square"/>
    </g>
    <g id="text_20">
     <!-- z_dim=150 -->
     <g transform="translate(349.137188 87.982938) scale(0.1 -0.1)">
      <use xlink:href="#DejaVuSans-7a"/>
      <use xlink:href="#DejaVuSans-5f" transform="translate(52.490234 0)"/>
      <use xlink:href="#DejaVuSans-64" transform="translate(102.490234 0)"/>
      <use xlink:href="#DejaVuSans-69" transform="translate(165.966797 0)"/>
      <use xlink:href="#DejaVuSans-6d" transform="translate(193.75 0)"/>
      <use xlink:href="#DejaVuSans-3d" transform="translate(291.162109 0)"/>
      <use xlink:href="#DejaVuSans-31" transform="translate(374.951172 0)"/>
      <use xlink:href="#DejaVuSans-35" transform="translate(438.574219 0)"/>
      <use xlink:href="#DejaVuSans-30" transform="translate(502.197266 0)"/>
     </g>
    </g>
   </g>
  </g>
 </g>
 <defs>
  <clipPath id="p69b19fc855">
   <rect x="57.6" y="41.472" width="357.12" height="266.112"/>
  </clipPath>
 </defs>
</svg>
