<?xml version="1.0" encoding="utf-8" standalone="no"?>
<!DOCTYPE svg PUBLIC "-//W3C//DTD SVG 1.1//EN"
  "http://www.w3.org/Graphics/SVG/1.1/DTD/svg11.dtd">
<svg xmlns:xlink="http://www.w3.org/1999/xlink" width="460.8pt" height="345.6pt" viewBox="0 0 460.8 345.6" xmlns="http://www.w3.org/2000/svg" version="1.1">
 <metadata>
  <rdf:RDF xmlns:dc="http://purl.org/dc/elements/1.1/" xmlns:cc="http://creativecommons.org/ns#" xmlns:rdf="http://www.w3.org/1999/02/22-rdf-syntax-ns#">
   <cc:Work>
    <dc:type rdf:resource="http://purl.org/dc/dcmitype/StillImage"/>
    <dc:date>2026-01-15T07:08:24.650820</dc:date>
    <dc:format>image/svg+xml</dc:format>
    <dc:creator>
     <cc:Agent>
      <dc:title>Matplotlib v3.10.6, https://matplotlib.org/</dc:title>
     </cc:Agent>
    </dc:creator>
   </cc:Work>
  </rdf:RDF>
 </metadata>
 <defs>
  <style type="text/css">*{stroke-linejoin: round; stroke-linecap: butt}</style>
 </defs>
 <g id="figure_1">
  <g id="patch_1">
   <path d="M 0 345.6 
L 460.8 345.6 
L 460.8 0 
L 0 0 
z
" style="fill: #ffffff"/>
  </g>
  <g id="axes_1">
   <g id="patch_2">
    <path d="M 57.6 307.584 
L 414.72 307.584 
L 414.72 41.472 
L 57.6 41.472 
z
" style="fill: #ffffff"/>
   </g>
   <g id="matplotlib.axis_1">
    <g id="xtick_1">
     <g id="line2d_1">
      <defs>
       <path id="mac1c3ac8c9" d="M 0 0 
L 0 3.5 
" style="stroke: #000000; stroke-width: 0.8"/>
      </defs>
      <g>
       <use xlink:href="#mac1c3ac8c9" x="73.832727" y="307.584" style="stroke: #000000; stroke-width: 0.8"/>
      </g>
     </g>
     <g id="text_1">
      <!-- 0 -->
      <g transform="translate(70.651477 322.182437) scale(0.1 -0.1)">
       <defs>
        <path id="DejaVuSans-30" d="M 2034 4250 
Q 1547 4250 1301 3770 
Q 1056 3291 1056 2328 
Q 1056 1369 1301 889 
Q 1547 409 2034 409 
Q 2525 409 2770 889 
Q 3016 1369 3016 2328 
Q 3016 3291 2770 3770 
Q 2525 4250 2034 4250 
z
M 2034 4750 
Q 2819 4750 3233 4129 
Q 3647 3509 3647 2328 
Q 3647 1150 3233 529 
Q 2819 -91 2034 -91 
Q 1250 -91 836 529 
Q 422 1150 422 2328 
Q 422 3509 836 4129 
Q 1250 4750 2034 4750 
z
" transform="scale(0.015625)"/>
       </defs>
       <use xlink:href="#DejaVuSans-30"/>
      </g>
     </g>
    </g>
    <g id="xtick_2">
     <g id="line2d_2">
      <g>
       <use xlink:href="#mac1c3ac8c9" x="130.392753" y="307.584" style="stroke: #000000; stroke-width: 0.8"/>
      </g>
     </g>
     <g id="text_2">
      <!-- 50 -->
      <g transform="translate(124.030253 322.182437) scale(0.1 -0.1)">
       <defs>
        <path id="DejaVuSans-35" d="M 691 4666 
L 3169 4666 
L 3169 4134 
L 1269 4134 
L 1269 2991 
Q 1406 3038 1543 3061 
Q 1681 3084 1819 3084 
Q 2600 3084 3056 2656 
Q 3513 2228 3513 1497 
Q 3513 744 3044 326 
Q 2575 -91 1722 -91 
Q 1428 -91 1123 -41 
Q 819 9 494 109 
L 494 744 
Q 775 591 1075 516 
Q 1375 441 1709 441 
Q 2250 441 2565 725 
Q 2881 1009 2881 1497 
Q 2881 1984 2565 2268 
Q 2250 2553 1709 2553 
Q 1456 2553 1204 2497 
Q 953 2441 691 2322 
L 691 4666 
z
" transform="scale(0.015625)"/>
       </defs>
       <use xlink:href="#DejaVuSans-35"/>
       <use xlink:href="#DejaVuSans-30" transform="translate(63.623047 0)"/>
      </g>
     </g>
    </g>
    <g id="xtick_3">
     <g id="line2d_3">
      <g>
       <use xlink:href="#mac1c3ac8c9" x="186.952778" y="307.584" style="stroke: #000000; stroke-width: 0.8"/>
      </g>
     </g>
     <g id="text_3">
      <!-- 100 -->
      <g transform="translate(177.409028 322.182437) scale(0.1 -0.1)">
       <defs>
        <path id="DejaVuSans-31" d="M 794 531 
L 1825 531 
L 1825 4091 
L 703 3866 
L 703 4441 
L 1819 4666 
L 2450 4666 
L 2450 531 
L 3481 531 
L 3481 0 
L 794 0 
L 794 531 
z
" transform="scale(0.015625)"/>
       </defs>
       <use xlink:href="#DejaVuSans-31"/>
       <use xlink:href="#DejaVuSans-30" transform="translate(63.623047 0)"/>
       <use xlink:href="#DejaVuSans-30" transform="translate(127.246094 0)"/>
      </g>
     </g>
    </g>
    <g id="xtick_4">
     <g id="line2d_4">
      <g>
       <use xlink:href="#mac1c3ac8c9" x="243.512803" y="307.584" style="stroke: #000000; stroke-width: 0.8"/>
      </g>
     </g>
     <g id="text_4">
      <!-- 150 -->
      <g transform="translate(233.969053 322.182437) scale(0.1 -0.1)">
       <use xlink:href="#DejaVuSans-31"/>
       <use xlink:href="#DejaVuSans-35" transform="translate(63.623047 0)"/>
       <use xlink:href="#DejaVuSans-30" transform="translate(127.246094 0)"/>
      </g>
     </g>
    </g>
    <g id="xtick_5">
     <g id="line2d_5">
      <g>
       <use xlink:href="#mac1c3ac8c9" x="300.072829" y="307.584" style="stroke: #000000; stroke-width: 0.8"/>
      </g>
     </g>
     <g id="text_5">
      <!-- 200 -->
      <g transform="translate(290.529079 322.182437) scale(0.1 -0.1)">
       <defs>
        <path id="DejaVuSans-32" d="M 1228 531 
L 3431 531 
L 3431 0 
L 469 0 
L 469 531 
Q 828 903 1448 1529 
Q 2069 2156 2228 2338 
Q 2531 2678 2651 2914 
Q 2772 3150 2772 3378 
Q 2772 3750 2511 3984 
Q 2250 4219 1831 4219 
Q 1534 4219 1204 4116 
Q 875 4013 500 3803 
L 500 4441 
Q 881 4594 1212 4672 
Q 1544 4750 1819 4750 
Q 2544 4750 2975 4387 
Q 3406 4025 3406 3419 
Q 3406 3131 3298 2873 
Q 3191 2616 2906 2266 
Q 2828 2175 2409 1742 
Q 1991 1309 1228 531 
z
" transform="scale(0.015625)"/>
       </defs>
       <use xlink:href="#DejaVuSans-32"/>
       <use xlink:href="#DejaVuSans-30" transform="translate(63.623047 0)"/>
       <use xlink:href="#DejaVuSans-30" transform="translate(127.246094 0)"/>
      </g>
     </g>
    </g>
    <g id="xtick_6">
     <g id="line2d_6">
      <g>
       <use xlink:href="#mac1c3ac8c9" x="356.632854" y="307.584" style="stroke: #000000; stroke-width: 0.8"/>
      </g>
     </g>
     <g id="text_6">
      <!-- 250 -->
      <g transform="translate(347.089104 322.182437) scale(0.1 -0.1)">
       <use xlink:href="#DejaVuSans-32"/>
       <use xlink:href="#DejaVuSans-35" transform="translate(63.623047 0)"/>
       <use xlink:href="#DejaVuSans-30" transform="translate(127.246094 0)"/>
      </g>
     </g>
    </g>
    <g id="xtick_7">
     <g id="line2d_7">
      <g>
       <use xlink:href="#mac1c3ac8c9" x="413.192879" y="307.584" style="stroke: #000000; stroke-width: 0.8"/>
      </g>
     </g>
     <g id="text_7">
      <!-- 300 -->
      <g transform="translate(403.649129 322.182437) scale(0.1 -0.1)">
       <defs>
        <path id="DejaVuSans-33" d="M 2597 2516 
Q 3050 2419 3304 2112 
Q 3559 1806 3559 1356 
Q 3559 666 3084 287 
Q 2609 -91 1734 -91 
Q 1441 -91 1130 -33 
Q 819 25 488 141 
L 488 750 
Q 750 597 1062 519 
Q 1375 441 1716 441 
Q 2309 441 2620 675 
Q 2931 909 2931 1356 
Q 2931 1769 2642 2001 
Q 2353 2234 1838 2234 
L 1294 2234 
L 1294 2753 
L 1863 2753 
Q 2328 2753 2575 2939 
Q 2822 3125 2822 3475 
Q 2822 3834 2567 4026 
Q 2313 4219 1838 4219 
Q 1578 4219 1281 4162 
Q 984 4106 628 3988 
L 628 4550 
Q 988 4650 1302 4700 
Q 1616 4750 1894 4750 
Q 2613 4750 3031 4423 
Q 3450 4097 3450 3541 
Q 3450 3153 3228 2886 
Q 3006 2619 2597 2516 
z
" transform="scale(0.015625)"/>
       </defs>
       <use xlink:href="#DejaVuSans-33"/>
       <use xlink:href="#DejaVuSans-30" transform="translate(63.623047 0)"/>
       <use xlink:href="#DejaVuSans-30" transform="translate(127.246094 0)"/>
      </g>
     </g>
    </g>
    <g id="text_8">
     <!-- epochs -->
     <g transform="translate(218.327188 335.860562) scale(0.1 -0.1)">
      <defs>
       <path id="DejaVuSans-65" d="M 3597 1894 
L 3597 1613 
L 953 1613 
Q 991 1019 1311 708 
Q 1631 397 2203 397 
Q 2534 397 2845 478 
Q 3156 559 3463 722 
L 3463 178 
Q 3153 47 2828 -22 
Q 2503 -91 2169 -91 
Q 1331 -91 842 396 
Q 353 884 353 1716 
Q 353 2575 817 3079 
Q 1281 3584 2069 3584 
Q 2775 3584 3186 3129 
Q 3597 2675 3597 1894 
z
M 3022 2063 
Q 3016 2534 2758 2815 
Q 2500 3097 2075 3097 
Q 1594 3097 1305 2825 
Q 1016 2553 972 2059 
L 3022 2063 
z
" transform="scale(0.015625)"/>
       <path id="DejaVuSans-70" d="M 1159 525 
L 1159 -1331 
L 581 -1331 
L 581 3500 
L 1159 3500 
L 1159 2969 
Q 1341 3281 1617 3432 
Q 1894 3584 2278 3584 
Q 2916 3584 3314 3078 
Q 3713 2572 3713 1747 
Q 3713 922 3314 415 
Q 2916 -91 2278 -91 
Q 1894 -91 1617 61 
Q 1341 213 1159 525 
z
M 3116 1747 
Q 3116 2381 2855 2742 
Q 2594 3103 2138 3103 
Q 1681 3103 1420 2742 
Q 1159 2381 1159 1747 
Q 1159 1113 1420 752 
Q 1681 391 2138 391 
Q 2594 391 2855 752 
Q 3116 1113 3116 1747 
z
" transform="scale(0.015625)"/>
       <path id="DejaVuSans-6f" d="M 1959 3097 
Q 1497 3097 1228 2736 
Q 959 2375 959 1747 
Q 959 1119 1226 758 
Q 1494 397 1959 397 
Q 2419 397 2687 759 
Q 2956 1122 2956 1747 
Q 2956 2369 2687 2733 
Q 2419 3097 1959 3097 
z
M 1959 3584 
Q 2709 3584 3137 3096 
Q 3566 2609 3566 1747 
Q 3566 888 3137 398 
Q 2709 -91 1959 -91 
Q 1206 -91 779 398 
Q 353 888 353 1747 
Q 353 2609 779 3096 
Q 1206 3584 1959 3584 
z
" transform="scale(0.015625)"/>
       <path id="DejaVuSans-63" d="M 3122 3366 
L 3122 2828 
Q 2878 2963 2633 3030 
Q 2388 3097 2138 3097 
Q 1578 3097 1268 2742 
Q 959 2388 959 1747 
Q 959 1106 1268 751 
Q 1578 397 2138 397 
Q 2388 397 2633 464 
Q 2878 531 3122 666 
L 3122 134 
Q 2881 22 2623 -34 
Q 2366 -91 2075 -91 
Q 1284 -91 818 406 
Q 353 903 353 1747 
Q 353 2603 823 3093 
Q 1294 3584 2113 3584 
Q 2378 3584 2631 3529 
Q 2884 3475 3122 3366 
z
" transform="scale(0.015625)"/>
       <path id="DejaVuSans-68" d="M 3513 2113 
L 3513 0 
L 2938 0 
L 2938 2094 
Q 2938 2591 2744 2837 
Q 2550 3084 2163 3084 
Q 1697 3084 1428 2787 
Q 1159 2491 1159 1978 
L 1159 0 
L 581 0 
L 581 4863 
L 1159 4863 
L 1159 2956 
Q 1366 3272 1645 3428 
Q 1925 3584 2291 3584 
Q 2894 3584 3203 3211 
Q 3513 2838 3513 2113 
z
" transform="scale(0.015625)"/>
       <path id="DejaVuSans-73" d="M 2834 3397 
L 2834 2853 
Q 2591 2978 2328 3040 
Q 2066 3103 1784 3103 
Q 1356 3103 1142 2972 
Q 928 2841 928 2578 
Q 928 2378 1081 2264 
Q 1234 2150 1697 2047 
L 1894 2003 
Q 2506 1872 2764 1633 
Q 3022 1394 3022 966 
Q 3022 478 2636 193 
Q 2250 -91 1575 -91 
Q 1294 -91 989 -36 
Q 684 19 347 128 
L 347 722 
Q 666 556 975 473 
Q 1284 391 1588 391 
Q 1994 391 2212 530 
Q 2431 669 2431 922 
Q 2431 1156 2273 1281 
Q 2116 1406 1581 1522 
L 1381 1569 
Q 847 1681 609 1914 
Q 372 2147 372 2553 
Q 372 3047 722 3315 
Q 1072 3584 1716 3584 
Q 2034 3584 2315 3537 
Q 2597 3491 2834 3397 
z
" transform="scale(0.015625)"/>
      </defs>
      <use xlink:href="#DejaVuSans-65"/>
      <use xlink:href="#DejaVuSans-70" transform="translate(61.523438 0)"/>
      <use xlink:href="#DejaVuSans-6f" transform="translate(125 0)"/>
      <use xlink:href="#DejaVuSans-63" transform="translate(186.181641 0)"/>
      <use xlink:href="#DejaVuSans-68" transform="translate(241.162109 0)"/>
      <use xlink:href="#DejaVuSans-73" transform="translate(304.541016 0)"/>
     </g>
    </g>
   </g>
   <g id="matplotlib.axis_2">
    <g id="ytick_1">
     <g id="line2d_8">
      <defs>
       <path id="mae5b3991c1" d="M 0 0 
L -3.5 0 
" style="stroke: #000000; stroke-width: 0.8"/>
      </defs>
      <g>
       <use xlink:href="#mae5b3991c1" x="57.6" y="304.532089" style="stroke: #000000; stroke-width: 0.8"/>
      </g>
     </g>
     <g id="text_9">
      <!-- 80000 -->
      <g transform="translate(18.7875 308.331308) scale(0.1 -0.1)">
       <defs>
        <path id="DejaVuSans-38" d="M 2034 2216 
Q 1584 2216 1326 1975 
Q 1069 1734 1069 1313 
Q 1069 891 1326 650 
Q 1584 409 2034 409 
Q 2484 409 2743 651 
Q 3003 894 3003 1313 
Q 3003 1734 2745 1975 
Q 2488 2216 2034 2216 
z
M 1403 2484 
Q 997 2584 770 2862 
Q 544 3141 544 3541 
Q 544 4100 942 4425 
Q 1341 4750 2034 4750 
Q 2731 4750 3128 4425 
Q 3525 4100 3525 3541 
Q 3525 3141 3298 2862 
Q 3072 2584 2669 2484 
Q 3125 2378 3379 2068 
Q 3634 1759 3634 1313 
Q 3634 634 3220 271 
Q 2806 -91 2034 -91 
Q 1263 -91 848 271 
Q 434 634 434 1313 
Q 434 1759 690 2068 
Q 947 2378 1403 2484 
z
M 1172 3481 
Q 1172 3119 1398 2916 
Q 1625 2713 2034 2713 
Q 2441 2713 2670 2916 
Q 2900 3119 2900 3481 
Q 2900 3844 2670 4047 
Q 2441 4250 2034 4250 
Q 1625 4250 1398 4047 
Q 1172 3844 1172 3481 
z
" transform="scale(0.015625)"/>
       </defs>
       <use xlink:href="#DejaVuSans-38"/>
       <use xlink:href="#DejaVuSans-30" transform="translate(63.623047 0)"/>
       <use xlink:href="#DejaVuSans-30" transform="translate(127.246094 0)"/>
       <use xlink:href="#DejaVuSans-30" transform="translate(190.869141 0)"/>
       <use xlink:href="#DejaVuSans-30" transform="translate(254.492188 0)"/>
      </g>
     </g>
    </g>
    <g id="ytick_2">
     <g id="line2d_9">
      <g>
       <use xlink:href="#mae5b3991c1" x="57.6" y="268.511746" style="stroke: #000000; stroke-width: 0.8"/>
      </g>
     </g>
     <g id="text_10">
      <!-- 85000 -->
      <g transform="translate(18.7875 272.310964) scale(0.1 -0.1)">
       <use xlink:href="#DejaVuSans-38"/>
       <use xlink:href="#DejaVuSans-35" transform="translate(63.623047 0)"/>
       <use xlink:href="#DejaVuSans-30" transform="translate(127.246094 0)"/>
       <use xlink:href="#DejaVuSans-30" transform="translate(190.869141 0)"/>
       <use xlink:href="#DejaVuSans-30" transform="translate(254.492188 0)"/>
      </g>
     </g>
    </g>
    <g id="ytick_3">
     <g id="line2d_10">
      <g>
       <use xlink:href="#mae5b3991c1" x="57.6" y="232.491402" style="stroke: #000000; stroke-width: 0.8"/>
      </g>
     </g>
     <g id="text_11">
      <!-- 90000 -->
      <g transform="translate(18.7875 236.290621) scale(0.1 -0.1)">
       <defs>
        <path id="DejaVuSans-39" d="M 703 97 
L 703 672 
Q 941 559 1184 500 
Q 1428 441 1663 441 
Q 2288 441 2617 861 
Q 2947 1281 2994 2138 
Q 2813 1869 2534 1725 
Q 2256 1581 1919 1581 
Q 1219 1581 811 2004 
Q 403 2428 403 3163 
Q 403 3881 828 4315 
Q 1253 4750 1959 4750 
Q 2769 4750 3195 4129 
Q 3622 3509 3622 2328 
Q 3622 1225 3098 567 
Q 2575 -91 1691 -91 
Q 1453 -91 1209 -44 
Q 966 3 703 97 
z
M 1959 2075 
Q 2384 2075 2632 2365 
Q 2881 2656 2881 3163 
Q 2881 3666 2632 3958 
Q 2384 4250 1959 4250 
Q 1534 4250 1286 3958 
Q 1038 3666 1038 3163 
Q 1038 2656 1286 2365 
Q 1534 2075 1959 2075 
z
" transform="scale(0.015625)"/>
       </defs>
       <use xlink:href="#DejaVuSans-39"/>
       <use xlink:href="#DejaVuSans-30" transform="translate(63.623047 0)"/>
       <use xlink:href="#DejaVuSans-30" transform="translate(127.246094 0)"/>
       <use xlink:href="#DejaVuSans-30" transform="translate(190.869141 0)"/>
       <use xlink:href="#DejaVuSans-30" transform="translate(254.492188 0)"/>
      </g>
     </g>
    </g>
    <g id="ytick_4">
     <g id="line2d_11">
      <g>
       <use xlink:href="#mae5b3991c1" x="57.6" y="196.471059" style="stroke: #000000; stroke-width: 0.8"/>
      </g>
     </g>
     <g id="text_12">
      <!-- 95000 -->
      <g transform="translate(18.7875 200.270277) scale(0.1 -0.1)">
       <use xlink:href="#DejaVuSans-39"/>
       <use xlink:href="#DejaVuSans-35" transform="translate(63.623047 0)"/>
       <use xlink:href="#DejaVuSans-30" transform="translate(127.246094 0)"/>
       <use xlink:href="#DejaVuSans-30" transform="translate(190.869141 0)"/>
       <use xlink:href="#DejaVuSans-30" transform="translate(254.492188 0)"/>
      </g>
     </g>
    </g>
    <g id="ytick_5">
     <g id="line2d_12">
      <g>
       <use xlink:href="#mae5b3991c1" x="57.6" y="160.450715" style="stroke: #000000; stroke-width: 0.8"/>
      </g>
     </g>
     <g id="text_13">
      <!-- 100000 -->
      <g transform="translate(12.425 164.249934) scale(0.1 -0.1)">
       <use xlink:href="#DejaVuSans-31"/>
       <use xlink:href="#DejaVuSans-30" transform="translate(63.623047 0)"/>
       <use xlink:href="#DejaVuSans-30" transform="translate(127.246094 0)"/>
       <use xlink:href="#DejaVuSans-30" transform="translate(190.869141 0)"/>
       <use xlink:href="#DejaVuSans-30" transform="translate(254.492188 0)"/>
       <use xlink:href="#DejaVuSans-30" transform="translate(318.115234 0)"/>
      </g>
     </g>
    </g>
    <g id="ytick_6">
     <g id="line2d_13">
      <g>
       <use xlink:href="#mae5b3991c1" x="57.6" y="124.430372" style="stroke: #000000; stroke-width: 0.8"/>
      </g>
     </g>
     <g id="text_14">
      <!-- 105000 -->
      <g transform="translate(12.425 128.22959) scale(0.1 -0.1)">
       <use xlink:href="#DejaVuSans-31"/>
       <use xlink:href="#DejaVuSans-30" transform="translate(63.623047 0)"/>
       <use xlink:href="#DejaVuSans-35" transform="translate(127.246094 0)"/>
       <use xlink:href="#DejaVuSans-30" transform="translate(190.869141 0)"/>
       <use xlink:href="#DejaVuSans-30" transform="translate(254.492188 0)"/>
       <use xlink:href="#DejaVuSans-30" transform="translate(318.115234 0)"/>
      </g>
     </g>
    </g>
    <g id="ytick_7">
     <g id="line2d_14">
      <g>
       <use xlink:href="#mae5b3991c1" x="57.6" y="88.410028" style="stroke: #000000; stroke-width: 0.8"/>
      </g>
     </g>
     <g id="text_15">
      <!-- 110000 -->
      <g transform="translate(12.425 92.209247) scale(0.1 -0.1)">
       <use xlink:href="#DejaVuSans-31"/>
       <use xlink:href="#DejaVuSans-31" transform="translate(63.623047 0)"/>
       <use xlink:href="#DejaVuSans-30" transform="translate(127.246094 0)"/>
       <use xlink:href="#DejaVuSans-30" transform="translate(190.869141 0)"/>
       <use xlink:href="#DejaVuSans-30" transform="translate(254.492188 0)"/>
       <use xlink:href="#DejaVuSans-30" transform="translate(318.115234 0)"/>
      </g>
     </g>
    </g>
    <g id="ytick_8">
     <g id="line2d_15">
      <g>
       <use xlink:href="#mae5b3991c1" x="57.6" y="52.389685" style="stroke: #000000; stroke-width: 0.8"/>
      </g>
     </g>
     <g id="text_16">
      <!-- 115000 -->
      <g transform="translate(12.425 56.188903) scale(0.1 -0.1)">
       <use xlink:href="#DejaVuSans-31"/>
       <use xlink:href="#DejaVuSans-31" transform="translate(63.623047 0)"/>
       <use xlink:href="#DejaVuSans-35" transform="translate(127.246094 0)"/>
       <use xlink:href="#DejaVuSans-30" transform="translate(190.869141 0)"/>
       <use xlink:href="#DejaVuSans-30" transform="translate(254.492188 0)"/>
       <use xlink:href="#DejaVuSans-30" transform="translate(318.115234 0)"/>
      </g>
     </g>
    </g>
    <g id="text_17">
     <!-- loss -->
     <g transform="translate(6.345312 184.185812) rotate(-90) scale(0.1 -0.1)">
      <defs>
       <path id="DejaVuSans-6c" d="M 603 4863 
L 1178 4863 
L 1178 0 
L 603 0 
L 603 4863 
z
" transform="scale(0.015625)"/>
      </defs>
      <use xlink:href="#DejaVuSans-6c"/>
      <use xlink:href="#DejaVuSans-6f" transform="translate(27.783203 0)"/>
      <use xlink:href="#DejaVuSans-73" transform="translate(88.964844 0)"/>
      <use xlink:href="#DejaVuSans-73" transform="translate(141.064453 0)"/>
     </g>
    </g>
   </g>
   <g id="line2d_16">
    <path d="M 73.832727 53.568 
L 74.963928 156.075482 
L 76.095128 169.65774 
L 77.226329 145.814805 
L 78.357529 171.766619 
L 79.48873 174.042879 
L 80.61993 175.633571 
L 81.751131 177.52751 
L 82.882331 177.930712 
L 84.013532 179.472833 
L 85.144732 179.121691 
L 86.275933 180.341036 
L 87.407133 179.308941 
L 88.538334 181.429976 
L 89.669534 180.766358 
L 90.800735 181.458455 
L 91.931935 180.709119 
L 93.063136 180.996438 
L 94.194336 179.670608 
L 95.325537 182.396672 
L 96.456737 181.577547 
L 97.587938 179.456455 
L 98.719138 180.229767 
L 99.850339 181.702999 
L 100.981539 182.328459 
L 103.24394 175.307475 
L 104.375141 179.273146 
L 105.506341 180.491083 
L 106.637542 177.562911 
L 107.768742 175.300946 
L 108.899943 176.961934 
L 110.031143 176.972628 
L 111.162344 177.411175 
L 112.293545 176.398497 
L 113.424745 179.682314 
L 114.555946 182.049808 
L 115.687146 181.482037 
L 116.818347 181.565221 
L 117.949547 182.908442 
L 119.080748 182.707404 
L 120.211948 181.331821 
L 121.343149 183.356389 
L 122.474349 182.745 
L 123.60555 181.411572 
L 124.73675 182.105301 
L 125.867951 182.086503 
L 126.999151 183.093666 
L 128.130352 175.416661 
L 129.261552 178.697664 
L 130.392753 177.246438 
L 131.523953 183.097606 
L 132.655154 182.245274 
L 134.917555 184.088334 
L 136.048755 181.413542 
L 137.179956 179.297347 
L 138.311156 181.370993 
L 139.442357 182.153366 
L 140.573557 181.95486 
L 141.704758 182.150271 
L 143.967159 183.717381 
L 145.098359 182.875799 
L 146.22956 182.599906 
L 148.491961 183.875983 
L 149.623161 183.084492 
L 150.754362 184.495139 
L 151.885562 184.409759 
L 153.016763 184.689367 
L 154.147963 185.141197 
L 155.279164 184.714356 
L 156.410364 185.227421 
L 157.541565 184.962953 
L 159.803966 185.696867 
L 160.935166 185.618354 
L 164.328768 186.490103 
L 165.459968 185.94023 
L 166.591169 187.273489 
L 167.722369 186.343714 
L 168.85357 186.705549 
L 169.98477 187.389823 
L 171.115971 187.290768 
L 172.247171 186.76397 
L 173.378372 187.967725 
L 175.640773 187.332754 
L 176.771973 187.593845 
L 179.034374 188.459684 
L 180.165575 187.85775 
L 181.296775 188.301532 
L 182.427976 186.736673 
L 183.559176 188.028847 
L 184.690377 188.986707 
L 185.821577 188.397718 
L 186.952778 189.527518 
L 188.083978 189.781856 
L 189.215179 188.508368 
L 190.346379 188.670178 
L 191.47758 189.045915 
L 192.60878 189.878435 
L 193.739981 189.547949 
L 194.871182 189.097751 
L 196.002382 190.578018 
L 197.133583 189.225341 
L 198.264783 189.954191 
L 199.395984 190.254735 
L 200.527184 189.781237 
L 201.658385 190.045029 
L 202.789585 190.094276 
L 203.920786 189.585489 
L 205.051986 190.355086 
L 206.183187 190.253047 
L 207.314387 191.054781 
L 208.445588 190.79217 
L 209.576788 190.260363 
L 210.707989 190.554154 
L 211.839189 191.304503 
L 212.97039 190.021166 
L 214.10159 191.293866 
L 215.232791 190.820817 
L 216.363991 190.991633 
L 217.495192 191.810814 
L 218.626392 191.573755 
L 219.757593 191.059452 
L 220.888793 191.50526 
L 222.019994 192.102635 
L 223.151194 191.397424 
L 224.282395 192.143946 
L 225.413595 191.252105 
L 226.544796 191.336865 
L 227.675996 191.117141 
L 228.807197 192.455916 
L 229.938397 191.797306 
L 232.200798 192.01613 
L 233.331999 192.73845 
L 234.463199 191.97859 
L 235.5944 192.66838 
L 236.7256 183.947348 
L 237.856801 192.277784 
L 238.988001 191.361404 
L 240.119202 191.131493 
L 241.250402 192.551651 
L 242.381603 193.459533 
L 243.512803 193.042147 
L 244.644004 192.868687 
L 245.775204 192.975003 
L 246.906405 192.963127 
L 248.037605 192.834186 
L 249.168806 193.076929 
L 250.300006 189.82221 
L 251.431207 193.20891 
L 252.562407 193.746007 
L 253.693608 193.119028 
L 254.824808 192.703387 
L 255.956009 192.949507 
L 257.087209 193.877369 
L 258.21841 192.171355 
L 259.34961 193.286241 
L 260.480811 193.659502 
L 261.612011 192.947087 
L 262.743212 193.332842 
L 263.874412 194.409682 
L 265.005613 193.721862 
L 266.136813 194.202734 
L 267.268014 192.340144 
L 268.399214 193.738015 
L 269.530415 194.30376 
L 270.661615 193.066855 
L 271.792816 190.879351 
L 272.924016 193.23525 
L 274.055217 194.39381 
L 275.186417 193.677906 
L 276.317618 194.889315 
L 277.448818 194.337247 
L 278.580019 194.050041 
L 279.71122 194.392291 
L 280.84242 194.121575 
L 281.973621 193.385522 
L 283.104821 195.002667 
L 284.236022 194.859936 
L 285.367222 193.866338 
L 286.498423 194.290421 
L 287.629623 195.059117 
L 288.760824 194.625072 
L 289.892024 193.584816 
L 291.023225 190.564285 
L 292.154425 194.91256 
L 293.285626 194.590515 
L 294.416826 195.342215 
L 296.679227 194.638355 
L 297.810428 195.254753 
L 298.941628 195.034747 
L 300.072829 195.495639 
L 301.204029 194.100413 
L 302.33523 195.371763 
L 303.46643 195.204324 
L 304.597631 195.891919 
L 305.728831 194.623046 
L 306.860032 195.288578 
L 307.991232 195.572632 
L 309.122433 196.094365 
L 310.253633 194.90271 
L 311.384834 194.315916 
L 312.516034 195.681481 
L 313.647235 195.739452 
L 314.778435 195.310753 
L 318.172037 196.05598 
L 319.303237 195.133015 
L 320.434438 195.970601 
L 321.565638 196.65071 
L 322.696839 195.681031 
L 323.828039 196.319548 
L 324.95924 195.413242 
L 326.09044 196.239065 
L 327.221641 196.524189 
L 328.352841 196.426202 
L 329.484042 195.080392 
L 330.615242 195.860064 
L 331.746443 196.190832 
L 332.877643 196.921482 
L 334.008844 196.27638 
L 335.140044 195.190929 
L 336.271245 195.978424 
L 337.402445 195.89856 
L 338.533646 196.414045 
L 339.664846 195.579105 
L 340.796047 196.659659 
L 341.927247 196.305084 
L 343.058448 197.019187 
L 344.189648 196.921257 
L 344.189648 196.921257 
" clip-path="url(#pe6f70028ee)" style="fill: none; stroke: #1f77b4; stroke-width: 1.5; stroke-linecap: square"/>
   </g>
   <g id="line2d_17">
    <path d="M 73.832727 72.20819 
L 74.963928 173.464584 
L 76.095128 197.155501 
L 77.226329 204.147163 
L 78.357529 207.170677 
L 79.48873 208.158366 
L 80.61993 209.49427 
L 81.751131 182.942662 
L 82.882331 203.508702 
L 84.013532 210.252611 
L 85.144732 211.888554 
L 86.275933 213.892016 
L 87.407133 214.859725 
L 88.538334 216.153306 
L 89.669534 218.177424 
L 90.800735 218.294434 
L 91.931935 219.853383 
L 93.063136 220.536532 
L 94.194336 220.999731 
L 95.325537 220.690856 
L 96.456737 223.777349 
L 97.587938 222.931209 
L 98.719138 223.83622 
L 99.850339 224.241055 
L 100.981539 225.228294 
L 102.11274 225.849926 
L 103.24394 225.580674 
L 105.506341 228.119602 
L 106.637542 228.201773 
L 107.768742 227.948787 
L 108.899943 229.562779 
L 110.031143 229.489951 
L 111.162344 230.559924 
L 112.293545 229.357238 
L 113.424745 231.096289 
L 114.555946 230.709014 
L 115.687146 232.059721 
L 116.818347 231.895716 
L 117.949547 232.822789 
L 119.080748 232.879071 
L 120.211948 233.551413 
L 121.343149 233.927601 
L 122.474349 233.620021 
L 123.60555 234.948946 
L 125.867951 234.334968 
L 126.999151 235.497975 
L 128.130352 202.501483 
L 129.261552 231.019296 
L 130.392753 234.387142 
L 131.523953 234.075003 
L 132.655154 234.476911 
L 133.786354 235.723834 
L 134.917555 236.57262 
L 136.048755 235.714885 
L 137.179956 236.701111 
L 138.311156 237.285991 
L 139.442357 236.53311 
L 140.573557 237.264717 
L 141.704758 237.277999 
L 142.835958 238.076863 
L 143.967159 238.680147 
L 145.098359 238.014728 
L 146.22956 239.544354 
L 147.36076 239.008158 
L 148.491961 239.521842 
L 149.623161 238.582386 
L 150.754362 239.362058 
L 151.885562 239.851428 
L 153.016763 240.830506 
L 154.147963 239.844618 
L 155.279164 241.370811 
L 157.541565 240.309505 
L 158.672765 241.067171 
L 160.935166 241.998859 
L 162.066367 241.709515 
L 163.197567 241.817407 
L 164.328768 242.831436 
L 165.459968 242.070112 
L 166.591169 242.406958 
L 167.722369 242.998367 
L 168.85357 242.915464 
L 171.115971 243.867809 
L 172.247171 243.332738 
L 173.378372 242.2474 
L 175.640773 244.549437 
L 176.771973 243.079807 
L 177.903174 244.566828 
L 179.034374 244.571781 
L 180.165575 243.853569 
L 181.296775 243.808994 
L 182.427976 231.754167 
L 183.559176 245.787524 
L 184.690377 245.611869 
L 185.821577 244.258911 
L 186.952778 245.757751 
L 188.083978 245.643837 
L 190.346379 245.586373 
L 191.47758 245.498236 
L 192.60878 246.524365 
L 193.739981 245.015225 
L 194.871182 245.687399 
L 196.002382 246.620888 
L 197.133583 246.61042 
L 198.264783 246.274924 
L 199.395984 246.897851 
L 200.527184 246.922896 
L 201.658385 246.131518 
L 202.789585 246.285955 
L 203.920786 247.227268 
L 205.051986 247.3279 
L 206.183187 246.965558 
L 207.314387 247.728795 
L 208.445588 246.679928 
L 209.576788 246.992967 
L 210.707989 247.073394 
L 211.839189 247.490949 
L 212.97039 248.852405 
L 214.10159 247.567323 
L 215.232791 246.886313 
L 216.363991 248.598011 
L 217.495192 248.245406 
L 218.626392 248.997781 
L 219.757593 248.524451 
L 220.888793 248.414533 
L 222.019994 247.282368 
L 223.151194 249.098469 
L 224.282395 248.480833 
L 225.413595 249.056426 
L 226.544796 248.215689 
L 227.675996 249.183342 
L 228.807197 248.839967 
L 229.938397 248.778226 
L 231.069598 249.448823 
L 232.200798 249.430869 
L 233.331999 249.791298 
L 234.463199 249.014665 
L 235.5944 250.083175 
L 235.5944 250.083175 
" clip-path="url(#pe6f70028ee)" style="fill: none; stroke: #ff7f0e; stroke-width: 1.5; stroke-linecap: square"/>
   </g>
   <g id="line2d_18">
    <path d="M 73.832727 70.688807 
L 74.963928 173.802387 
L 76.095128 211.593243 
L 77.226329 222.440657 
L 78.357529 225.699035 
L 79.48873 229.652436 
L 80.61993 230.954572 
L 81.751131 232.786488 
L 82.882331 234.106239 
L 84.013532 237.171289 
L 85.144732 238.301765 
L 86.275933 240.212475 
L 87.407133 241.018881 
L 88.538334 231.769701 
L 89.669534 241.752739 
L 90.800735 245.144617 
L 91.931935 245.691226 
L 93.063136 245.958114 
L 94.194336 247.843892 
L 95.325537 249.947198 
L 96.456737 248.849985 
L 97.587938 250.997022 
L 99.850339 254.015696 
L 102.11274 254.212795 
L 103.24394 256.771084 
L 104.375141 256.656606 
L 105.506341 257.158471 
L 106.637542 258.31146 
L 107.768742 258.942435 
L 108.899943 259.904853 
L 110.031143 260.217217 
L 111.162344 260.731351 
L 112.293545 261.80594 
L 113.424745 262.385473 
L 114.555946 263.251594 
L 115.687146 262.960279 
L 116.818347 263.037892 
L 117.949547 264.107358 
L 119.080748 264.611699 
L 121.343149 265.356251 
L 123.60555 266.649832 
L 124.73675 266.558768 
L 125.867951 266.995233 
L 126.999151 268.080008 
L 128.130352 247.12371 
L 129.261552 267.936883 
L 130.392753 269.00196 
L 132.655154 268.833565 
L 133.786354 269.098258 
L 134.917555 269.738295 
L 136.048755 269.540239 
L 137.179956 270.28389 
L 138.311156 269.808816 
L 139.442357 271.43958 
L 140.573557 271.148604 
L 141.704758 271.645122 
L 142.835958 271.352062 
L 143.967159 271.412284 
L 145.098359 272.065997 
L 146.22956 272.088284 
L 147.36076 272.242665 
L 148.491961 272.592682 
L 149.623161 273.104058 
L 151.885562 272.729784 
L 153.016763 273.384004 
L 155.279164 274.372312 
L 156.410364 273.110362 
L 157.541565 274.187314 
L 158.672765 274.868492 
L 159.803966 275.695553 
L 160.935166 274.086006 
L 162.066367 275.479037 
L 163.197567 275.492488 
L 164.328768 275.159244 
L 165.459968 275.329665 
L 166.591169 276.549235 
L 167.722369 275.270344 
L 168.85357 276.128247 
L 169.98477 275.799899 
L 171.115971 277.391548 
L 172.247171 276.851187 
L 173.378372 275.711931 
L 174.509572 277.344722 
L 175.640773 277.183137 
L 176.771973 277.409221 
L 177.903174 277.044909 
L 179.034374 277.173062 
L 180.165575 277.85728 
L 181.296775 277.588422 
L 182.427976 264.782627 
L 183.559176 279.016854 
L 184.690377 278.302525 
L 185.821577 277.845461 
L 186.952778 278.222436 
L 188.083978 279.311883 
L 189.215179 278.400174 
L 190.346379 278.235888 
L 191.47758 278.459157 
L 192.60878 279.49992 
L 193.739981 279.048991 
L 194.871182 279.670229 
L 196.002382 278.760772 
L 197.133583 279.791347 
L 198.264783 278.760265 
L 199.395984 278.88476 
L 200.527184 279.7412 
L 201.658385 279.406718 
L 202.789585 278.902996 
L 203.920786 280.135961 
L 205.051986 280.282856 
L 206.183187 280.035723 
L 207.314387 280.173951 
L 208.445588 279.917362 
L 209.576788 280.619703 
L 210.707989 280.064764 
L 211.839189 280.768061 
L 212.97039 279.536166 
L 214.10159 281.927748 
L 215.232791 280.757874 
L 216.363991 281.304314 
L 217.495192 280.619365 
L 218.626392 280.80245 
L 219.757593 281.370952 
L 220.888793 280.402342 
L 222.019994 281.426896 
L 223.151194 281.466068 
L 224.282395 281.850642 
L 226.544796 281.507998 
L 227.675996 281.032079 
L 228.807197 281.625515 
L 229.938397 282.460005 
L 231.069598 282.267521 
L 232.200798 282.582699 
L 233.331999 282.345133 
L 234.463199 281.651517 
L 235.5944 282.56981 
L 236.7256 265.816805 
L 237.856801 285.216855 
L 238.988001 284.282803 
L 240.119202 283.159306 
L 241.250402 283.050626 
L 242.381603 283.104318 
L 243.512803 282.580279 
L 244.644004 283.400361 
L 245.775204 283.256673 
L 246.906405 283.481125 
L 248.037605 282.665658 
L 249.168806 283.01832 
L 250.300006 282.962545 
L 251.431207 283.691 
L 253.693608 283.030927 
L 254.824808 283.54523 
L 255.956009 282.279059 
L 257.087209 283.464634 
L 258.21841 283.074264 
L 259.34961 284.143168 
L 260.480811 283.329389 
L 261.612011 284.331093 
L 262.743212 283.496209 
L 263.874412 284.136695 
L 265.005613 283.536844 
L 266.136813 283.189473 
L 267.268014 284.108386 
L 268.399214 284.282803 
L 270.661615 283.964586 
L 271.792816 284.5435 
L 272.924016 284.188193 
L 274.055217 284.165286 
L 275.186417 283.850277 
L 276.317618 284.66687 
L 278.580019 285.236498 
L 279.71122 283.436775 
L 280.84242 284.049177 
L 281.973621 284.409437 
L 283.104821 284.356419 
L 284.236022 285.0085 
L 285.367222 285.924149 
L 286.498423 283.466323 
L 287.629623 285.129393 
L 288.760824 285.001915 
L 289.892024 284.615147 
L 291.023225 266.241901 
L 292.154425 286.793364 
L 293.285626 286.160251 
L 295.548027 285.900398 
L 296.679227 285.379566 
L 297.810428 284.487443 
L 298.941628 286.198916 
L 300.072829 285.300321 
L 301.204029 285.153595 
L 302.33523 285.64713 
L 303.46643 285.232445 
L 304.597631 285.810684 
L 305.728831 285.722435 
L 306.860032 284.959422 
L 307.991232 285.64516 
L 309.122433 285.323172 
L 310.253633 285.796164 
L 311.384834 285.247867 
L 313.647235 286.272533 
L 314.778435 285.035628 
L 315.909636 286.02585 
L 317.040836 285.62715 
L 318.172037 286.209272 
L 319.303237 286.053597 
L 320.434438 284.928974 
L 321.565638 285.232614 
L 322.696839 287.399238 
L 323.828039 286.085734 
L 324.95924 285.240606 
L 326.09044 286.337201 
L 327.221641 286.197622 
L 328.352841 287.182553 
L 329.484042 284.56697 
L 330.615242 287.148897 
L 331.746443 286.631667 
L 332.877643 285.590454 
L 334.008844 286.1253 
L 335.140044 286.480607 
L 336.271245 286.29634 
L 337.402445 286.903114 
L 338.533646 286.846494 
L 339.664846 285.908446 
L 340.796047 286.896754 
L 341.927247 286.545725 
L 343.058448 286.859777 
L 344.189648 286.673822 
L 345.320849 275.744349 
L 346.452049 288.612842 
L 347.58325 287.858385 
L 348.71445 286.827359 
L 349.845651 286.312831 
L 350.976851 286.634256 
L 352.108052 286.732186 
L 353.239252 288.233109 
L 354.370453 287.651605 
L 355.501653 285.553983 
L 356.632854 287.729443 
L 357.764054 287.336596 
L 358.895255 286.118884 
L 360.026455 287.154694 
L 361.157656 286.49524 
L 362.288857 287.353087 
L 363.420057 287.071115 
L 364.551258 287.797657 
L 365.682458 286.839009 
L 366.813659 286.096765 
L 367.944859 288.19011 
L 369.07606 287.225271 
L 370.20726 286.467212 
L 371.338461 287.62127 
L 372.469661 287.786794 
L 373.600862 286.054947 
L 374.732062 288.335936 
L 375.863263 287.966502 
L 376.994463 286.227001 
L 378.125664 287.508031 
L 379.256864 288.155947 
L 380.388065 287.302096 
L 381.519265 286.884597 
L 382.650466 288.636593 
L 383.781666 286.700668 
L 384.912867 288.402686 
L 386.044067 287.875494 
L 387.175268 286.867431 
L 388.306468 287.658078 
L 389.437669 288.1515 
L 390.568869 287.632132 
L 391.70007 288.291586 
L 392.83127 288.352933 
L 393.962471 287.033463 
L 395.093671 286.33039 
L 396.224872 287.930988 
L 397.356072 288.366328 
L 398.487273 287.66562 
L 398.487273 287.66562 
" clip-path="url(#pe6f70028ee)" style="fill: none; stroke: #2ca02c; stroke-width: 1.5; stroke-linecap: square"/>
   </g>
   <g id="line2d_19">
    <path d="M 73.832727 178.793794 
L 74.963928 220.355642 
L 76.095128 231.333742 
L 77.226329 236.945318 
L 78.357529 241.282448 
L 79.48873 242.906966 
L 80.61993 246.123357 
L 81.751131 246.936742 
L 82.882331 250.497296 
L 84.013532 252.118718 
L 85.144732 253.085358 
L 86.275933 255.143245 
L 87.407133 255.484426 
L 88.538334 257.380953 
L 89.669534 258.135579 
L 90.800735 259.420605 
L 91.931935 259.370683 
L 93.063136 261.242728 
L 94.194336 262.331893 
L 95.325537 262.197042 
L 96.456737 263.47689 
L 97.587938 264.199154 
L 99.850339 264.64181 
L 100.981539 266.918521 
L 102.11274 266.532034 
L 103.24394 266.938782 
L 104.375141 268.32202 
L 105.506341 268.252005 
L 106.637542 269.005618 
L 107.768742 269.079741 
L 108.899943 269.963197 
L 110.031143 270.361615 
L 111.162344 270.950267 
L 112.293545 270.462191 
L 113.424745 270.937209 
L 114.555946 271.158115 
L 115.687146 270.784686 
L 116.818347 273.492853 
L 117.949547 273.169739 
L 119.080748 273.447827 
L 120.211948 273.955601 
L 121.343149 272.717684 
L 122.474349 273.818893 
L 123.60555 273.870785 
L 124.73675 274.231889 
L 125.867951 274.734541 
L 126.999151 275.618278 
L 128.130352 255.391955 
L 129.261552 274.681186 
L 130.392753 276.539498 
L 131.523953 277.065452 
L 132.655154 276.17119 
L 133.786354 277.471356 
L 134.917555 276.280546 
L 136.048755 277.642959 
L 137.179956 276.359397 
L 138.311156 276.978553 
L 139.442357 277.074738 
L 140.573557 278.589 
L 141.704758 277.668961 
L 142.835958 277.131695 
L 143.967159 278.326445 
L 146.22956 278.863261 
L 147.36076 277.746686 
L 148.491961 278.385653 
L 149.623161 279.523108 
L 150.754362 278.789982 
L 151.885562 279.341768 
L 153.016763 278.822963 
L 154.147963 279.322633 
L 155.279164 279.348128 
L 156.410364 279.809864 
L 157.541565 279.324434 
L 158.672765 280.002911 
L 159.803966 280.416019 
L 160.935166 279.862431 
L 162.066367 280.315612 
L 163.197567 280.021371 
L 164.328768 280.205525 
L 165.459968 280.059474 
L 166.591169 281.162541 
L 167.722369 281.335213 
L 168.85357 280.321128 
L 171.115971 282.039692 
L 172.247171 280.261863 
L 173.378372 281.379057 
L 174.509572 282.024946 
L 175.640773 280.907697 
L 176.771973 281.377593 
L 177.903174 282.548311 
L 179.034374 281.791039 
L 180.165575 280.849276 
L 181.296775 282.631045 
L 182.427976 253.864692 
L 183.559176 274.41396 
L 184.690377 279.655202 
L 185.821577 283.255998 
L 186.952778 282.698245 
L 188.083978 283.278792 
L 189.215179 282.716706 
L 190.346379 282.402766 
L 191.47758 282.555796 
L 192.60878 282.902661 
L 193.739981 282.473231 
L 194.871182 284.367845 
L 196.002382 282.354195 
L 197.133583 283.245304 
L 198.264783 283.148106 
L 200.527184 282.681586 
L 201.658385 283.388879 
L 202.789585 283.336031 
L 203.920786 282.996989 
L 206.183187 283.854273 
L 207.314387 282.410195 
L 208.445588 283.676141 
L 209.576788 284.21549 
L 210.707989 284.295241 
L 211.839189 283.926033 
L 214.10159 282.61039 
L 215.232791 283.829678 
L 217.495192 284.263104 
L 218.626392 284.759622 
L 220.888793 284.059026 
L 222.019994 282.887746 
L 223.151194 285.54965 
L 224.282395 285.107162 
L 225.413595 283.391524 
L 227.675996 284.38259 
L 228.807197 285.070466 
L 229.938397 285.002816 
L 231.069598 285.240888 
L 232.200798 284.007416 
L 233.331999 284.992178 
L 234.463199 285.561581 
L 235.5944 285.615105 
L 236.7256 267.69656 
L 237.856801 288.798234 
L 238.988001 287.927048 
L 240.119202 286.573528 
L 241.250402 285.59248 
L 242.381603 286.03024 
L 243.512803 286.082469 
L 244.644004 286.441322 
L 245.775204 285.927357 
L 246.906405 285.834267 
L 248.037605 283.703382 
L 249.168806 286.054779 
L 250.300006 285.191078 
L 251.431207 286.384534 
L 252.562407 285.618538 
L 253.693608 284.685443 
L 254.824808 285.881262 
L 255.956009 284.767333 
L 257.087209 286.267411 
L 258.21841 285.73583 
L 259.34961 285.982738 
L 260.480811 284.530612 
L 261.612011 286.018195 
L 262.743212 285.53102 
L 265.005613 285.904506 
L 266.136813 286.50886 
L 267.268014 286.08534 
L 271.792816 285.449243 
L 272.924016 286.339058 
L 274.055217 286.561315 
L 276.317618 286.203588 
L 277.448818 286.814752 
L 279.71122 285.818001 
L 280.84242 285.864659 
L 281.973621 287.355169 
L 283.104821 286.191825 
L 284.236022 286.943412 
L 285.367222 286.002099 
L 286.498423 286.832368 
L 287.629623 286.910487 
L 288.760824 286.374009 
L 289.892024 286.466311 
L 291.023225 236.523992 
L 292.154425 281.252591 
L 293.285626 290.29533 
L 294.416826 290.300057 
L 295.548027 289.582408 
L 296.679227 288.729345 
L 297.810428 288.707902 
L 298.941628 286.005307 
L 300.072829 287.392034 
L 301.204029 287.826811 
L 302.33523 286.123724 
L 303.46643 288.520765 
L 304.597631 287.081809 
L 305.728831 287.998583 
L 306.860032 287.438917 
L 307.991232 286.276304 
L 309.122433 287.439873 
L 310.253633 287.014496 
L 311.384834 288.178516 
L 312.516034 287.310763 
L 313.647235 287.947648 
L 314.778435 286.189461 
L 315.909636 287.774525 
L 317.040836 288.159774 
L 318.172037 283.542754 
L 319.303237 287.446965 
L 320.434438 287.210975 
L 321.565638 288.495607 
L 322.696839 287.162348 
L 323.828039 286.836533 
L 324.95924 287.561892 
L 326.09044 287.31701 
L 327.221641 287.500995 
L 328.352841 288.43229 
L 329.484042 288.199959 
L 330.615242 286.902776 
L 331.746443 287.890522 
L 332.877643 288.168835 
L 334.008844 285.918239 
L 335.140044 287.173548 
L 336.271245 289.533668 
L 337.402445 287.182778 
L 338.533646 287.42569 
L 339.664846 287.919957 
L 340.796047 286.770514 
L 341.927247 288.861157 
L 343.058448 288.006743 
L 344.189648 288.083118 
L 345.320849 237.802039 
L 346.452049 273.970066 
L 347.58325 289.08983 
L 348.71445 291.15222 
L 349.845651 290.793255 
L 350.976851 288.895039 
L 353.239252 288.45469 
L 354.370453 287.324214 
L 355.501653 288.709759 
L 356.632854 289.256706 
L 357.764054 287.579621 
L 358.895255 289.294358 
L 360.026455 287.864576 
L 362.288857 288.048279 
L 363.420057 287.881517 
L 365.682458 289.005464 
L 366.813659 288.349668 
L 367.944859 288.698953 
L 369.07606 287.733721 
L 370.20726 288.483394 
L 371.338461 289.378612 
L 372.469661 287.769685 
L 373.600862 288.502136 
L 374.732062 288.059029 
L 375.863263 288.541252 
L 376.994463 288.880743 
L 378.125664 288.046197 
L 379.256864 288.492455 
L 380.388065 289.379569 
L 381.519265 288.870219 
L 382.650466 287.585756 
L 383.781666 287.764563 
L 384.912867 289.225526 
L 386.044067 288.684714 
L 387.175268 287.363668 
L 388.306468 287.855233 
L 389.437669 289.719004 
L 391.70007 288.103436 
L 392.83127 288.681562 
L 393.962471 289.827403 
L 395.093671 288.681618 
L 396.224872 288.858062 
L 397.356072 288.88412 
L 398.487273 288.615093 
L 398.487273 288.615093 
" clip-path="url(#pe6f70028ee)" style="fill: none; stroke: #d62728; stroke-width: 1.5; stroke-linecap: square"/>
   </g>
   <g id="line2d_20">
    <path d="M 73.832727 82.801379 
L 74.963928 167.164175 
L 76.095128 217.195194 
L 77.226329 226.264892 
L 79.48873 235.668734 
L 80.61993 238.106298 
L 81.751131 241.813636 
L 82.882331 244.287108 
L 84.013532 246.310551 
L 85.144732 248.581746 
L 86.275933 249.817581 
L 87.407133 251.471478 
L 88.538334 253.830079 
L 89.669534 254.325865 
L 90.800735 257.204678 
L 91.931935 257.318311 
L 93.063136 258.983521 
L 94.194336 260.980623 
L 95.325537 262.478394 
L 96.456737 262.96602 
L 97.587938 264.517202 
L 98.719138 264.415501 
L 99.850339 266.703468 
L 100.981539 266.993657 
L 102.11274 267.890338 
L 104.375141 270.588262 
L 105.506341 269.640477 
L 106.637542 271.359829 
L 107.768742 271.137854 
L 108.899943 272.442353 
L 110.031143 273.266769 
L 111.162344 273.636146 
L 112.293545 274.606275 
L 113.424745 274.302804 
L 114.555946 275.44009 
L 115.687146 274.409458 
L 116.818347 276.155769 
L 117.949547 276.234338 
L 119.080748 276.960993 
L 121.343149 277.414793 
L 122.474349 276.751906 
L 123.60555 278.173527 
L 124.73675 278.100474 
L 125.867951 279.166057 
L 126.999151 279.141293 
L 128.130352 235.509006 
L 129.261552 267.949716 
L 130.392753 275.676136 
L 131.523953 279.527555 
L 132.655154 278.988544 
L 133.786354 280.706039 
L 134.917555 280.70058 
L 137.179956 280.26676 
L 138.311156 280.838526 
L 139.442357 281.148639 
L 140.573557 280.585089 
L 141.704758 282.16914 
L 142.835958 282.206174 
L 143.967159 280.060037 
L 145.098359 282.908964 
L 146.22956 282.119894 
L 147.36076 283.236299 
L 148.491961 282.084886 
L 149.623161 283.225718 
L 150.754362 283.361301 
L 151.885562 282.857073 
L 153.016763 282.600034 
L 154.147963 283.707828 
L 155.279164 282.504355 
L 156.410364 283.95316 
L 157.541565 285.081216 
L 158.672765 284.20277 
L 159.803966 284.757709 
L 160.935166 283.54917 
L 162.066367 285.372249 
L 163.197567 284.712008 
L 164.328768 283.87369 
L 165.459968 285.513123 
L 166.591169 285.073393 
L 167.722369 286.005926 
L 168.85357 284.525884 
L 169.98477 285.65636 
L 171.115971 285.251806 
L 172.247171 285.009232 
L 173.378372 286.450102 
L 174.509572 286.248726 
L 175.640773 286.602288 
L 176.771973 284.686343 
L 177.903174 286.868107 
L 179.034374 285.892406 
L 180.165575 287.349035 
L 181.296775 287.054625 
L 182.427976 268.749818 
L 183.559176 289.984035 
L 184.690377 288.117844 
L 185.821577 288.504668 
L 186.952778 287.463681 
L 188.083978 288.513899 
L 189.215179 287.836716 
L 190.346379 288.343083 
L 191.47758 288.207332 
L 192.60878 285.591973 
L 193.739981 288.08824 
L 194.871182 287.168032 
L 196.002382 288.246504 
L 197.133583 288.444222 
L 198.264783 286.878237 
L 199.395984 289.015201 
L 200.527184 288.593988 
L 201.658385 287.625378 
L 202.789585 288.498027 
L 203.920786 287.756571 
L 205.051986 289.028314 
L 206.183187 288.42261 
L 207.314387 288.427675 
L 208.445588 288.665916 
L 209.576788 289.627546 
L 210.707989 287.572923 
L 211.839189 288.858287 
L 214.10159 289.282089 
L 215.232791 288.787653 
L 216.363991 289.536426 
L 217.495192 288.862564 
L 218.626392 290.27293 
L 219.757593 289.583027 
L 220.888793 286.080049 
L 222.019994 290.857529 
L 223.151194 289.090393 
L 224.282395 289.90541 
L 225.413595 290.160085 
L 226.544796 290.130199 
L 227.675996 290.623678 
L 228.807197 287.636015 
L 229.938397 290.197231 
L 231.069598 290.805018 
L 233.331999 289.481495 
L 234.463199 290.408287 
L 235.5944 288.814443 
L 236.7256 269.801837 
L 237.856801 291.336374 
L 238.988001 291.446123 
L 240.119202 290.685813 
L 241.250402 289.422906 
L 242.381603 290.067389 
L 243.512803 291.255441 
L 244.644004 290.056301 
L 245.775204 290.243382 
L 246.906405 290.546178 
L 249.168806 290.202859 
L 250.300006 290.973863 
L 251.431207 290.096824 
L 252.562407 288.659837 
L 253.693608 291.715038 
L 254.824808 290.888765 
L 255.956009 291.048324 
L 257.087209 290.240736 
L 258.21841 289.712194 
L 259.34961 291.490474 
L 260.480811 291.484226 
L 261.612011 289.765774 
L 262.743212 291.956149 
L 263.874412 290.581298 
L 265.005613 289.77855 
L 266.136813 290.994293 
L 267.268014 290.345421 
L 268.399214 291.602643 
L 269.530415 290.212089 
L 270.661615 291.571463 
L 271.792816 292.230298 
L 272.924016 290.494905 
L 274.055217 291.413536 
L 275.186417 288.902524 
L 276.317618 291.733667 
L 277.448818 291.826138 
L 278.580019 291.160156 
L 279.71122 292.009504 
L 280.84242 290.906719 
L 281.973621 291.763103 
L 283.104821 291.341946 
L 284.236022 291.960258 
L 285.367222 291.399635 
L 286.498423 291.585533 
L 287.629623 292.241047 
L 288.760824 290.535934 
L 289.892024 292.158144 
L 291.023225 265.550142 
L 292.154425 294.825507 
L 293.285626 293.403323 
L 294.416826 292.798012 
L 295.548027 291.477979 
L 296.679227 293.831458 
L 297.810428 292.688431 
L 298.941628 292.411356 
L 300.072829 291.85169 
L 301.204029 293.540031 
L 302.33523 292.949973 
L 303.46643 291.339638 
L 304.597631 291.775428 
L 305.728831 292.717248 
L 306.860032 291.394851 
L 307.991232 292.470846 
L 309.122433 291.765635 
L 310.253633 292.150152 
L 311.384834 292.834651 
L 312.516034 292.020592 
L 313.647235 293.024996 
L 314.778435 293.4291 
L 315.909636 291.396821 
L 317.040836 291.834524 
L 318.172037 293.220182 
L 319.303237 291.959526 
L 320.434438 292.644194 
L 321.565638 292.754619 
L 322.696839 292.580821 
L 323.828039 292.562923 
L 324.95924 293.305111 
L 326.09044 291.838464 
L 327.221641 293.595075 
L 328.352841 293.071879 
L 329.484042 292.100343 
L 330.615242 293.357847 
L 331.746443 292.264179 
L 332.877643 293.323571 
L 334.008844 293.370173 
L 335.140044 291.505726 
L 336.271245 293.016723 
L 337.402445 292.424807 
L 338.533646 294.191211 
L 339.664846 292.436233 
L 340.796047 292.301269 
L 341.927247 293.160073 
L 343.058448 292.191688 
L 344.189648 293.833484 
L 345.320849 275.710355 
L 346.452049 295.02345 
L 347.58325 294.814251 
L 348.71445 293.311358 
L 349.845651 294.429396 
L 350.976851 292.356538 
L 352.108052 294.623343 
L 353.239252 292.464542 
L 354.370453 293.927981 
L 355.501653 293.299877 
L 356.632854 293.689403 
L 357.764054 293.72396 
L 358.895255 294.423543 
L 360.026455 291.394738 
L 361.157656 292.632093 
L 362.288857 294.672702 
L 363.420057 293.50508 
L 364.551258 292.667044 
L 365.682458 293.594062 
L 366.813659 293.183317 
L 367.944859 294.402268 
L 369.07606 294.16172 
L 370.20726 290.958104 
L 371.338461 293.740225 
L 372.469661 294.121197 
L 373.600862 295.488 
L 374.732062 291.97309 
L 375.863263 294.562333 
L 376.994463 293.011545 
L 378.125664 292.663161 
L 379.256864 294.196783 
L 380.388065 294.722849 
L 381.519265 294.382401 
L 382.650466 292.993985 
L 383.781666 293.770786 
L 384.912867 294.183557 
L 386.044067 293.116398 
L 387.175268 294.027488 
L 388.306468 293.644997 
L 389.437669 293.725086 
L 390.568869 292.936803 
L 391.70007 293.922241 
L 392.83127 293.698521 
L 393.962471 294.382232 
L 395.093671 294.268486 
L 396.224872 294.646418 
L 397.356072 293.86776 
L 398.487273 294.722061 
L 398.487273 294.722061 
" clip-path="url(#pe6f70028ee)" style="fill: none; stroke: #9467bd; stroke-width: 1.5; stroke-linecap: square"/>
   </g>
   <g id="patch_3">
    <path d="M 57.6 307.584 
L 57.6 41.472 
" style="fill: none; stroke: #000000; stroke-width: 0.8; stroke-linejoin: miter; stroke-linecap: square"/>
   </g>
   <g id="patch_4">
    <path d="M 414.72 307.584 
L 414.72 41.472 
" style="fill: none; stroke: #000000; stroke-width: 0.8; stroke-linejoin: miter; stroke-linecap: square"/>
   </g>
   <g id="patch_5">
    <path d="M 57.6 307.584 
L 414.72 307.584 
" style="fill: none; stroke: #000000; stroke-width: 0.8; stroke-linejoin: miter; stroke-linecap: square"/>
   </g>
   <g id="patch_6">
    <path d="M 57.6 41.472 
L 414.72 41.472 
" style="fill: none; stroke: #000000; stroke-width: 0.8; stroke-linejoin: miter; stroke-linecap: square"/>
   </g>
   <g id="text_18">
    <!-- Latent Space Size vs Accuracy Of Training -->
    <g transform="translate(110.320312 35.472) scale(0.12 -0.12)">
     <defs>
      <path id="DejaVuSans-4c" d="M 628 4666 
L 1259 4666 
L 1259 531 
L 3531 531 
L 3531 0 
L 628 0 
L 628 4666 
z
" transform="scale(0.015625)"/>
      <path id="DejaVuSans-61" d="M 2194 1759 
Q 1497 1759 1228 1600 
Q 959 1441 959 1056 
Q 959 750 1161 570 
Q 1363 391 1709 391 
Q 2188 391 2477 730 
Q 2766 1069 2766 1631 
L 2766 1759 
L 2194 1759 
z
M 3341 1997 
L 3341 0 
L 2766 0 
L 2766 531 
Q 2569 213 2275 61 
Q 1981 -91 1556 -91 
Q 1019 -91 701 211 
Q 384 513 384 1019 
Q 384 1609 779 1909 
Q 1175 2209 1959 2209 
L 2766 2209 
L 2766 2266 
Q 2766 2663 2505 2880 
Q 2244 3097 1772 3097 
Q 1472 3097 1187 3025 
Q 903 2953 641 2809 
L 641 3341 
Q 956 3463 1253 3523 
Q 1550 3584 1831 3584 
Q 2591 3584 2966 3190 
Q 3341 2797 3341 1997 
z
" transform="scale(0.015625)"/>
      <path id="DejaVuSans-74" d="M 1172 4494 
L 1172 3500 
L 2356 3500 
L 2356 3053 
L 1172 3053 
L 1172 1153 
Q 1172 725 1289 603 
Q 1406 481 1766 481 
L 2356 481 
L 2356 0 
L 1766 0 
Q 1100 0 847 248 
Q 594 497 594 1153 
L 594 3053 
L 172 3053 
L 172 3500 
L 594 3500 
L 594 4494 
L 1172 4494 
z
" transform="scale(0.015625)"/>
      <path id="DejaVuSans-6e" d="M 3513 2113 
L 3513 0 
L 2938 0 
L 2938 2094 
Q 2938 2591 2744 2837 
Q 2550 3084 2163 3084 
Q 1697 3084 1428 2787 
Q 1159 2491 1159 1978 
L 1159 0 
L 581 0 
L 581 3500 
L 1159 3500 
L 1159 2956 
Q 1366 3272 1645 3428 
Q 1925 3584 2291 3584 
Q 2894 3584 3203 3211 
Q 3513 2838 3513 2113 
z
" transform="scale(0.015625)"/>
      <path id="DejaVuSans-20" transform="scale(0.015625)"/>
      <path id="DejaVuSans-53" d="M 3425 4513 
L 3425 3897 
Q 3066 4069 2747 4153 
Q 2428 4238 2131 4238 
Q 1616 4238 1336 4038 
Q 1056 3838 1056 3469 
Q 1056 3159 1242 3001 
Q 1428 2844 1947 2747 
L 2328 2669 
Q 3034 2534 3370 2195 
Q 3706 1856 3706 1288 
Q 3706 609 3251 259 
Q 2797 -91 1919 -91 
Q 1588 -91 1214 -16 
Q 841 59 441 206 
L 441 856 
Q 825 641 1194 531 
Q 1563 422 1919 422 
Q 2459 422 2753 634 
Q 3047 847 3047 1241 
Q 3047 1584 2836 1778 
Q 2625 1972 2144 2069 
L 1759 2144 
Q 1053 2284 737 2584 
Q 422 2884 422 3419 
Q 422 4038 858 4394 
Q 1294 4750 2059 4750 
Q 2388 4750 2728 4690 
Q 3069 4631 3425 4513 
z
" transform="scale(0.015625)"/>
      <path id="DejaVuSans-69" d="M 603 3500 
L 1178 3500 
L 1178 0 
L 603 0 
L 603 3500 
z
M 603 4863 
L 1178 4863 
L 1178 4134 
L 603 4134 
L 603 4863 
z
" transform="scale(0.015625)"/>
      <path id="DejaVuSans-7a" d="M 353 3500 
L 3084 3500 
L 3084 2975 
L 922 459 
L 3084 459 
L 3084 0 
L 275 0 
L 275 525 
L 2438 3041 
L 353 3041 
L 353 3500 
z
" transform="scale(0.015625)"/>
      <path id="DejaVuSans-76" d="M 191 3500 
L 800 3500 
L 1894 563 
L 2988 3500 
L 3597 3500 
L 2284 0 
L 1503 0 
L 191 3500 
z
" transform="scale(0.015625)"/>
      <path id="DejaVuSans-41" d="M 2188 4044 
L 1331 1722 
L 3047 1722 
L 2188 4044 
z
M 1831 4666 
L 2547 4666 
L 4325 0 
L 3669 0 
L 3244 1197 
L 1141 1197 
L 716 0 
L 50 0 
L 1831 4666 
z
" transform="scale(0.015625)"/>
      <path id="DejaVuSans-75" d="M 544 1381 
L 544 3500 
L 1119 3500 
L 1119 1403 
Q 1119 906 1312 657 
Q 1506 409 1894 409 
Q 2359 409 2629 706 
Q 2900 1003 2900 1516 
L 2900 3500 
L 3475 3500 
L 3475 0 
L 2900 0 
L 2900 538 
Q 2691 219 2414 64 
Q 2138 -91 1772 -91 
Q 1169 -91 856 284 
Q 544 659 544 1381 
z
M 1991 3584 
L 1991 3584 
z
" transform="scale(0.015625)"/>
      <path id="DejaVuSans-72" d="M 2631 2963 
Q 2534 3019 2420 3045 
Q 2306 3072 2169 3072 
Q 1681 3072 1420 2755 
Q 1159 2438 1159 1844 
L 1159 0 
L 581 0 
L 581 3500 
L 1159 3500 
L 1159 2956 
Q 1341 3275 1631 3429 
Q 1922 3584 2338 3584 
Q 2397 3584 2469 3576 
Q 2541 3569 2628 3553 
L 2631 2963 
z
" transform="scale(0.015625)"/>
      <path id="DejaVuSans-79" d="M 2059 -325 
Q 1816 -950 1584 -1140 
Q 1353 -1331 966 -1331 
L 506 -1331 
L 506 -850 
L 844 -850 
Q 1081 -850 1212 -737 
Q 1344 -625 1503 -206 
L 1606 56 
L 191 3500 
L 800 3500 
L 1894 763 
L 2988 3500 
L 3597 3500 
L 2059 -325 
z
" transform="scale(0.015625)"/>
      <path id="DejaVuSans-4f" d="M 2522 4238 
Q 1834 4238 1429 3725 
Q 1025 3213 1025 2328 
Q 1025 1447 1429 934 
Q 1834 422 2522 422 
Q 3209 422 3611 934 
Q 4013 1447 4013 2328 
Q 4013 3213 3611 3725 
Q 3209 4238 2522 4238 
z
M 2522 4750 
Q 3503 4750 4090 4092 
Q 4678 3434 4678 2328 
Q 4678 1225 4090 567 
Q 3503 -91 2522 -91 
Q 1538 -91 948 565 
Q 359 1222 359 2328 
Q 359 3434 948 4092 
Q 1538 4750 2522 4750 
z
" transform="scale(0.015625)"/>
      <path id="DejaVuSans-66" d="M 2375 4863 
L 2375 4384 
L 1825 4384 
Q 1516 4384 1395 4259 
Q 1275 4134 1275 3809 
L 1275 3500 
L 2222 3500 
L 2222 3053 
L 1275 3053 
L 1275 0 
L 697 0 
L 697 3053 
L 147 3053 
L 147 3500 
L 697 3500 
L 697 3744 
Q 697 4328 969 4595 
Q 1241 4863 1831 4863 
L 2375 4863 
z
" transform="scale(0.015625)"/>
      <path id="DejaVuSans-54" d="M -19 4666 
L 3928 4666 
L 3928 4134 
L 2272 4134 
L 2272 0 
L 1638 0 
L 1638 4134 
L -19 4134 
L -19 4666 
z
" transform="scale(0.015625)"/>
      <path id="DejaVuSans-67" d="M 2906 1791 
Q 2906 2416 2648 2759 
Q 2391 3103 1925 3103 
Q 1463 3103 1205 2759 
Q 947 2416 947 1791 
Q 947 1169 1205 825 
Q 1463 481 1925 481 
Q 2391 481 2648 825 
Q 2906 1169 2906 1791 
z
M 3481 434 
Q 3481 -459 3084 -895 
Q 2688 -1331 1869 -1331 
Q 1566 -1331 1297 -1286 
Q 1028 -1241 775 -1147 
L 775 -588 
Q 1028 -725 1275 -790 
Q 1522 -856 1778 -856 
Q 2344 -856 2625 -561 
Q 2906 -266 2906 331 
L 2906 616 
Q 2728 306 2450 153 
Q 2172 0 1784 0 
Q 1141 0 747 490 
Q 353 981 353 1791 
Q 353 2603 747 3093 
Q 1141 3584 1784 3584 
Q 2172 3584 2450 3431 
Q 2728 3278 2906 2969 
L 2906 3500 
L 3481 3500 
L 3481 434 
z
" transform="scale(0.015625)"/>
     </defs>
     <use xlink:href="#DejaVuSans-4c"/>
     <use xlink:href="#DejaVuSans-61" transform="translate(55.712891 0)"/>
     <use xlink:href="#DejaVuSans-74" transform="translate(116.992188 0)"/>
     <use xlink:href="#DejaVuSans-65" transform="translate(156.201172 0)"/>
     <use xlink:href="#DejaVuSans-6e" transform="translate(217.724609 0)"/>
     <use xlink:href="#DejaVuSans-74" transform="translate(281.103516 0)"/>
     <use xlink:href="#DejaVuSans-20" transform="translate(320.3125 0)"/>
     <use xlink:href="#DejaVuSans-53" transform="translate(352.099609 0)"/>
     <use xlink:href="#DejaVuSans-70" transform="translate(415.576172 0)"/>
     <use xlink:href="#DejaVuSans-61" transform="translate(479.052734 0)"/>
     <use xlink:href="#DejaVuSans-63" transform="translate(540.332031 0)"/>
     <use xlink:href="#DejaVuSans-65" transform="translate(595.3125 0)"/>
     <use xlink:href="#DejaVuSans-20" transform="translate(656.835938 0)"/>
     <use xlink:href="#DejaVuSans-53" transform="translate(688.623047 0)"/>
     <use xlink:href="#DejaVuSans-69" transform="translate(752.099609 0)"/>
     <use xlink:href="#DejaVuSans-7a" transform="translate(779.882812 0)"/>
     <use xlink:href="#DejaVuSans-65" transform="translate(832.373047 0)"/>
     <use xlink:href="#DejaVuSans-20" transform="translate(893.896484 0)"/>
     <use xlink:href="#DejaVuSans-76" transform="translate(925.683594 0)"/>
     <use xlink:href="#DejaVuSans-73" transform="translate(984.863281 0)"/>
     <use xlink:href="#DejaVuSans-20" transform="translate(1036.962891 0)"/>
     <use xlink:href="#DejaVuSans-41" transform="translate(1068.75 0)"/>
     <use xlink:href="#DejaVuSans-63" transform="translate(1135.408203 0)"/>
     <use xlink:href="#DejaVuSans-63" transform="translate(1190.388672 0)"/>
     <use xlink:href="#DejaVuSans-75" transform="translate(1245.369141 0)"/>
     <use xlink:href="#DejaVuSans-72" transform="translate(1308.748047 0)"/>
     <use xlink:href="#DejaVuSans-61" transform="translate(1349.861328 0)"/>
     <use xlink:href="#DejaVuSans-63" transform="translate(1411.140625 0)"/>
     <use xlink:href="#DejaVuSans-79" transform="translate(1466.121094 0)"/>
     <use xlink:href="#DejaVuSans-20" transform="translate(1525.300781 0)"/>
     <use xlink:href="#DejaVuSans-4f" transform="translate(1557.087891 0)"/>
     <use xlink:href="#DejaVuSans-66" transform="translate(1635.798828 0)"/>
     <use xlink:href="#DejaVuSans-20" transform="translate(1671.003906 0)"/>
     <use xlink:href="#DejaVuSans-54" transform="translate(1702.791016 0)"/>
     <use xlink:href="#DejaVuSans-72" transform="translate(1749.125 0)"/>
     <use xlink:href="#DejaVuSans-61" transform="translate(1790.238281 0)"/>
     <use xlink:href="#DejaVuSans-69" transform="translate(1851.517578 0)"/>
     <use xlink:href="#DejaVuSans-6e" transform="translate(1879.300781 0)"/>
     <use xlink:href="#DejaVuSans-69" transform="translate(1942.679688 0)"/>
     <use xlink:href="#DejaVuSans-6e" transform="translate(1970.462891 0)"/>
     <use xlink:href="#DejaVuSans-67" transform="translate(2033.841797 0)"/>
    </g>
   </g>
   <g id="legend_1">
    <g id="patch_7">
     <path d="M 319.137188 124.25325 
L 407.72 124.25325 
Q 409.72 124.25325 409.72 122.25325 
L 409.72 48.472 
Q 409.72 46.472 407.72 46.472 
L 319.137188 46.472 
Q 317.137188 46.472 317.137188 48.472 
L 317.137188 122.25325 
Q 317.137188 124.25325 319.137188 124.25325 
z
" style="fill: #ffffff; opacity: 0.8; stroke: #cccccc; stroke-linejoin: miter"/>
    </g>
    <g id="line2d_21">
     <path d="M 321.137188 54.570438 
L 331.137188 54.570438 
L 341.137188 54.570438 
" style="fill: none; stroke: #1f77b4; stroke-width: 1.5; stroke-linecap: square"/>
    </g>
    <g id="text_19">
     <!-- z_dim=2 -->
     <g transform="translate(349.137188 58.070438) scale(0.1 -0.1)">
      <defs>
       <path id="DejaVuSans-5f" d="M 3263 -1063 
L 3263 -1509 
L -63 -1509 
L -63 -1063 
L 3263 -1063 
z
" transform="scale(0.015625)"/>
       <path id="DejaVuSans-64" d="M 2906 2969 
L 2906 4863 
L 3481 4863 
L 3481 0 
L 2906 0 
L 2906 525 
Q 2725 213 2448 61 
Q 2172 -91 1784 -91 
Q 1150 -91 751 415 
Q 353 922 353 1747 
Q 353 2572 751 3078 
Q 1150 3584 1784 3584 
Q 2172 3584 2448 3432 
Q 2725 3281 2906 2969 
z
M 947 1747 
Q 947 1113 1208 752 
Q 1469 391 1925 391 
Q 2381 391 2643 752 
Q 2906 1113 2906 1747 
Q 2906 2381 2643 2742 
Q 2381 3103 1925 3103 
Q 1469 3103 1208 2742 
Q 947 2381 947 1747 
z
" transform="scale(0.015625)"/>
       <path id="DejaVuSans-6d" d="M 3328 2828 
Q 3544 3216 3844 3400 
Q 4144 3584 4550 3584 
Q 5097 3584 5394 3201 
Q 5691 2819 5691 2113 
L 5691 0 
L 5113 0 
L 5113 2094 
Q 5113 2597 4934 2840 
Q 4756 3084 4391 3084 
Q 3944 3084 3684 2787 
Q 3425 2491 3425 1978 
L 3425 0 
L 2847 0 
L 2847 2094 
Q 2847 2600 2669 2842 
Q 2491 3084 2119 3084 
Q 1678 3084 1418 2786 
Q 1159 2488 1159 1978 
L 1159 0 
L 581 0 
L 581 3500 
L 1159 3500 
L 1159 2956 
Q 1356 3278 1631 3431 
Q 1906 3584 2284 3584 
Q 2666 3584 2933 3390 
Q 3200 3197 3328 2828 
z
" transform="scale(0.015625)"/>
       <path id="DejaVuSans-3d" d="M 678 2906 
L 4684 2906 
L 4684 2381 
L 678 2381 
L 678 2906 
z
M 678 1631 
L 4684 1631 
L 4684 1100 
L 678 1100 
L 678 1631 
z
" transform="scale(0.015625)"/>
      </defs>
      <use xlink:href="#DejaVuSans-7a"/>
      <use xlink:href="#DejaVuSans-5f" transform="translate(52.490234 0)"/>
      <use xlink:href="#DejaVuSans-64" transform="translate(102.490234 0)"/>
      <use xlink:href="#DejaVuSans-69" transform="translate(165.966797 0)"/>
      <use xlink:href="#DejaVuSans-6d" transform="translate(193.75 0)"/>
      <use xlink:href="#DejaVuSans-3d" transform="translate(291.162109 0)"/>
      <use xlink:href="#DejaVuSans-32" transform="translate(374.951172 0)"/>
     </g>
    </g>
    <g id="line2d_22">
     <path d="M 321.137188 69.526688 
L 331.137188 69.526688 
L 341.137188 69.526688 
" style="fill: none; stroke: #ff7f0e; stroke-width: 1.5; stroke-linecap: square"/>
    </g>
    <g id="text_20">
     <!-- z_dim=5 -->
     <g transform="translate(349.137188 73.026688) scale(0.1 -0.1)">
      <use xlink:href="#DejaVuSans-7a"/>
      <use xlink:href="#DejaVuSans-5f" transform="translate(52.490234 0)"/>
      <use xlink:href="#DejaVuSans-64" transform="translate(102.490234 0)"/>
      <use xlink:href="#DejaVuSans-69" transform="translate(165.966797 0)"/>
      <use xlink:href="#DejaVuSans-6d" transform="translate(193.75 0)"/>
      <use xlink:href="#DejaVuSans-3d" transform="translate(291.162109 0)"/>
      <use xlink:href="#DejaVuSans-35" transform="translate(374.951172 0)"/>
     </g>
    </g>
    <g id="line2d_23">
     <path d="M 321.137188 84.482938 
L 331.137188 84.482938 
L 341.137188 84.482938 
" style="fill: none; stroke: #2ca02c; stroke-width: 1.5; stroke-linecap: square"/>
    </g>
    <g id="text_21">
     <!-- z_dim=10 -->
     <g transform="translate(349.137188 87.982938) scale(0.1 -0.1)">
      <use xlink:href="#DejaVuSans-7a"/>
      <use xlink:href="#DejaVuSans-5f" transform="translate(52.490234 0)"/>
      <use xlink:href="#DejaVuSans-64" transform="translate(102.490234 0)"/>
      <use xlink:href="#DejaVuSans-69" transform="translate(165.966797 0)"/>
      <use xlink:href="#DejaVuSans-6d" transform="translate(193.75 0)"/>
      <use xlink:href="#DejaVuSans-3d" transform="translate(291.162109 0)"/>
      <use xlink:href="#DejaVuSans-31" transform="translate(374.951172 0)"/>
      <use xlink:href="#DejaVuSans-30" transform="translate(438.574219 0)"/>
     </g>
    </g>
    <g id="line2d_24">
     <path d="M 321.137188 99.439188 
L 331.137188 99.439188 
L 341.137188 99.439188 
" style="fill: none; stroke: #d62728; stroke-width: 1.5; stroke-linecap: square"/>
    </g>
    <g id="text_22">
     <!-- z_dim=50 -->
     <g transform="translate(349.137188 102.939188) scale(0.1 -0.1)">
      <use xlink:href="#DejaVuSans-7a"/>
      <use xlink:href="#DejaVuSans-5f" transform="translate(52.490234 0)"/>
      <use xlink:href="#DejaVuSans-64" transform="translate(102.490234 0)"/>
      <use xlink:href="#DejaVuSans-69" transform="translate(165.966797 0)"/>
      <use xlink:href="#DejaVuSans-6d" transform="translate(193.75 0)"/>
      <use xlink:href="#DejaVuSans-3d" transform="translate(291.162109 0)"/>
      <use xlink:href="#DejaVuSans-35" transform="translate(374.951172 0)"/>
      <use xlink:href="#DejaVuSans-30" transform="translate(438.574219 0)"/>
     </g>
    </g>
    <g id="line2d_25">
     <path d="M 321.137188 114.395438 
L 331.137188 114.395438 
L 341.137188 114.395438 
" style="fill: none; stroke: #9467bd; stroke-width: 1.5; stroke-linecap: square"/>
    </g>
    <g id="text_23">
     <!-- z_dim=150 -->
     <g transform="translate(349.137188 117.895438) scale(0.1 -0.1)">
      <use xlink:href="#DejaVuSans-7a"/>
      <use xlink:href="#DejaVuSans-5f" transform="translate(52.490234 0)"/>
      <use xlink:href="#DejaVuSans-64" transform="translate(102.490234 0)"/>
      <use xlink:href="#DejaVuSans-69" transform="translate(165.966797 0)"/>
      <use xlink:href="#DejaVuSans-6d" transform="translate(193.75 0)"/>
      <use xlink:href="#DejaVuSans-3d" transform="translate(291.162109 0)"/>
      <use xlink:href="#DejaVuSans-31" transform="translate(374.951172 0)"/>
      <use xlink:href="#DejaVuSans-35" transform="translate(438.574219 0)"/>
      <use xlink:href="#DejaVuSans-30" transform="translate(502.197266 0)"/>
     </g>
    </g>
   </g>
  </g>
 </g>
 <defs>
  <clipPath id="pe6f70028ee">
   <rect x="57.6" y="41.472" width="357.12" height="266.112"/>
  </clipPath>
 </defs>
</svg>
